<?xml version="1.0" encoding="UTF-8"?>
<!-- Generated by Pixelmator Pro 3.5.3 -->
<svg width="1381" height="739" viewBox="0 0 1381 739" xmlns="http://www.w3.org/2000/svg">
    <g id="Group">
        <path id="Path" fill="#ffffff" stroke="none" d="M 432.829132 180.948364 C 439.588989 168.642944 449.254761 158.029663 460.545349 149.727905 C 471.844604 141.412109 484.75415 135.325806 498.318726 131.73999 C 511.879578 128.160889 526.156677 127.077515 540.100403 129.01123 C 554.024597 130.920898 567.609192 135.988403 579.122498 144.182495 L 577.665405 144.505859 C 589.669983 123.212891 602.729614 102.240479 619.436279 84.07959 C 627.80835 75.060059 637.187073 66.844604 647.755005 60.324097 C 658.287109 53.779541 670.079163 49.103394 682.370422 46.938721 C 694.662903 44.73877 707.205811 44.915771 719.47583 46.13208 C 731.773743 47.35791 743.857483 49.578369 755.89624 51.727539 C 779.965454 56.071289 804.220398 61.126221 827.289551 70.44043 C 850.234619 79.662476 871.897888 94.23291 887.032532 114.470459 C 902.349609 134.47583 911.851257 158.40625 916.314575 182.959229 C 920.793762 207.607056 920.176636 232.869995 916.518311 257.36377 C 912.910828 281.927979 906.324585 305.824951 898.790405 329.222534 L 894.04834 323.083313 C 915.51709 321.689514 937.212891 325.23999 957.169189 332.97876 C 977.165405 340.658386 995.567139 352.174561 1011.4104 366.461609 C 1027.244995 380.757935 1040.574951 397.873718 1050.248413 416.949646 C 1059.925415 435.996277 1065.84668 457.097534 1066.760376 478.565002 L 1060.972168 474.532471 C 1072.501709 470.852051 1084.842896 470.263367 1096.612061 472.149963 C 1108.407471 474.040039 1119.699585 478.356628 1129.80835 484.530823 C 1139.911621 490.714172 1148.878784 498.785461 1155.902832 508.375854 C 1162.926636 517.942871 1167.939209 529.11792 1169.95459 540.911682 L 1166.285889 537.906189 C 1195.793335 537.482117 1225.907959 537.369202 1255.25708 544.293396 C 1269.85498 547.766663 1284.184204 553.171204 1297.006714 561.254944 C 1303.41626 565.299133 1309.442139 569.874634 1314.929932 575.181641 C 1320.276245 580.529968 1325.523682 586.7229 1327.45752 594.877563 C 1328.384521 598.911743 1328.043823 603.398315 1326.366211 607.248352 C 1324.722534 611.128296 1321.98999 614.272095 1319.012939 616.839539 C 1312.962891 621.950439 1305.87793 625.102539 1298.730469 627.521729 C 1291.545044 629.905884 1284.14917 631.429626 1276.686279 632.3479 C 1269.145386 633.210815 1261.832031 633.337097 1254.440063 633.805786 C 1224.925049 635.356689 1195.399536 636.533813 1165.87793 637.630798 C 1136.351685 638.732971 1106.8396 639.670349 1077.342896 641.049622 L 988.834961 645.491699 C 959.323364 647.08374 929.70459 647.442932 900.18335 647.628723 C 885.416687 647.750793 870.658325 647.894592 855.914612 648.257141 C 848.544189 648.466675 841.175842 648.723267 833.817078 649.088318 C 830.205872 649.27832 826.321655 649.467529 822.671631 649.444641 C 819.037476 649.466614 815.598755 649.766235 812.222107 650.654541 L 811.841675 646.284546 L 870.495422 650.373413 C 889.943359 652.007874 909.804565 652.022888 929.323364 657.49707 C 931.74707 658.18042 934.146667 658.977417 936.516235 659.866638 C 938.896667 660.72876 941.38501 661.809204 943.7229 663.407471 C 946.029602 664.981262 948.363342 667.339661 949.368774 670.537903 C 950.431641 673.747925 949.797058 677.217529 948.40625 679.886658 C 947.045837 682.584167 944.80542 684.84082 942.377502 686.346252 C 939.946289 687.871582 937.352478 688.830383 934.849976 689.545349 C 929.856689 690.900452 925.097473 691.828369 920.16748 692.710815 C 900.557495 696.111206 880.813721 696.961243 861.255859 697.989563 C 782.8396 701.995422 704.332092 702.087463 625.943359 702.070435 C 586.764587 702.051758 547.529602 702.244141 508.299988 701.587097 C 469.07196 701.035889 429.875092 700.124512 390.659576 699.040771 C 371.032928 698.425476 351.21582 697.675903 331.411652 694.629578 C 311.679565 691.592957 291.807922 686.091309 273.953735 675.916748 C 269.376678 673.225464 264.61499 670.082886 260.999573 664.684631 C 259.212921 662.022095 257.952087 658.577515 257.802094 655.033813 C 257.655426 651.472046 258.638763 648.009521 260.081238 645.243774 C 263.062103 639.625854 266.962921 635.998352 270.879578 632.488281 C 274.880829 629.031677 279.168732 625.942566 283.648315 623.32373 C 301.662506 612.83374 321.098755 608.205872 337.908752 599.792053 L 340.364166 610.638 C 319.895844 610.840027 298.650818 612.053345 277.743744 612.712891 C 256.753326 613.465027 235.740845 614.070435 214.70874 614.361267 C 193.676239 614.649658 172.622513 614.638672 151.545013 614.051636 C 130.467911 613.425903 109.362915 612.332947 88.243317 609.69165 C 77.68541 608.331604 67.12001 606.620483 56.583336 603.788818 C 51.318321 602.349121 46.053337 600.637512 40.85041 598.1521 C 35.768341 595.602478 30.21125 592.498718 26.433746 586.093689 C 24.522491 582.924194 23.956261 578.701721 24.263756 575.421204 C 24.526237 571.927979 25.68457 568.535034 27.35083 565.712036 C 30.726234 560.029175 35.432076 556.139526 40.174164 552.955078 C 44.963737 549.749146 50.064178 547.442932 54.840843 545.261292 C 59.695839 543.03418 64.614578 540.934937 69.596252 539.010803 C 109.394577 523.384155 152.572083 516.818787 195.150421 519.321655 L 190.128342 525.02002 C 185.683746 499.316223 189.708755 472.532471 200.824158 449.217041 C 211.942932 425.996216 229.966248 405.542053 253.325836 393.937866 C 276.384583 382.47876 302.123322 377.176697 327.69043 378.498413 C 340.445404 379.24707 353.262909 381.770874 365.068756 387.108276 C 376.859161 392.352478 387.52832 400.600342 394.977509 411.295349 L 390.259155 412.415344 C 394.619995 385.258789 415.33493 361.91333 441.478973 354.284241 C 447.942688 352.395447 454.717957 351.294128 461.522461 351.464111 C 468.32251 351.60083 475.061829 353.003357 481.376221 355.337463 C 494.054565 360.060791 505.01001 367.889221 515.424988 375.974976 L 513.533752 377.901245 C 501.759583 363.049988 488.802185 349.109985 476.388977 334.686218 C 463.970276 320.279602 451.854553 305.478333 441.702789 289.288818 C 431.630096 273.165405 423.416412 255.334106 421.151245 236.20459 C 420.045197 226.685425 420.504913 216.981689 422.568359 207.63208 C 424.612122 198.271729 428.215912 189.30835 432.829132 180.948364 Z M 433.770782 181.469604 C 424.605286 198.000854 420.126678 217.249146 422.585876 236.032104 C 424.935211 254.839966 433.144135 272.397095 443.237457 288.322021 C 453.406616 304.310791 465.552612 318.96167 478.035828 333.254578 C 490.542969 347.54834 503.487061 361.486206 515.650024 376.195435 L 522.977478 385.057129 L 513.758362 378.122131 C 503.327515 370.275452 492.404663 362.785034 480.244812 358.488403 C 468.133606 354.070862 454.855408 354.121216 442.616364 358.095459 C 418.143799 365.60498 398.986664 388.099243 395.428741 413.19458 L 394.520416 419.599976 L 390.709595 414.314941 C 383.687073 404.575806 373.773315 397.185852 362.710846 392.479614 C 351.641266 387.69751 339.502075 385.505493 327.371246 385.007019 C 303.071259 384.142883 278.371674 389.723389 256.92749 400.875793 C 246.207916 406.452087 236.766663 413.979126 228.705414 422.976257 C 220.644165 431.904175 213.945007 442.065369 208.874573 452.986694 C 198.726654 474.821655 195.315826 499.771301 199.630402 523.269592 L 200.733337 529.275452 L 194.607513 528.96875 C 153.394592 526.905884 111.82959 533.914124 73.544174 549.05835 C 68.74707 550.919556 64.012909 552.950439 59.341263 555.102966 C 54.587929 557.280396 50.104584 559.340454 46.169182 561.996277 C 42.230408 564.608704 38.757507 567.737915 36.777077 571.135864 C 34.850433 574.404968 34.516266 578.409607 35.964165 580.800415 C 37.495415 583.600403 41.34874 586.319519 45.58165 588.300903 C 49.85125 590.338318 54.599594 591.904663 59.448334 593.215332 C 69.183762 595.818359 79.380005 597.473328 89.620834 598.769958 C 110.147507 601.304932 130.998322 602.359985 151.849579 602.941162 C 172.713745 603.487427 193.625854 603.464172 214.544159 603.141724 C 235.463745 602.817078 256.39209 602.179138 277.329163 601.393311 L 308.755829 600.147034 C 319.290405 599.761658 329.627899 599.220825 340.499176 599.205444 L 365.206665 599.170349 L 342.95459 610.051636 C 324.606659 619.023682 305.302094 623.617126 289.309998 632.967957 C 285.316254 635.277893 281.62207 637.9375 278.19458 640.862061 C 274.793335 643.794556 271.516663 647.148682 269.932098 650.259949 C 268.341675 653.422485 268.4375 655.858765 270.22583 658.713745 C 272.035828 661.562927 275.554169 664.232971 279.38501 666.437073 C 295.643341 675.802917 314.160004 681.101685 333.065826 684.091614 C 352.019165 687.098389 371.464569 687.94458 390.988739 688.637085 C 430.131531 689.890869 469.304565 690.973694 508.460022 691.696228 C 547.612915 692.44342 586.774597 692.652954 625.987488 693.057922 C 704.365845 693.822021 782.716675 694.474243 860.943359 691.224609 C 880.508728 690.387512 900.04541 689.714111 919.126221 686.58667 C 923.8479 685.794617 928.72583 684.873413 933.201233 683.70166 C 937.627502 682.516663 941.419983 680.547119 943.13501 677.166321 C 944.953369 673.787842 943.914612 670.547546 940.417908 668.15625 C 937.025818 665.818359 932.221252 664.334534 927.741699 662.907104 C 909.41333 657.521606 889.612122 657.210449 870.119141 655.399658 L 811.510437 650.716736 L 798.152893 649.649597 L 811.130005 646.346191 C 814.915039 645.382874 818.895447 645.091309 822.63916 645.111633 C 826.375427 645.169617 829.87085 645.027954 833.635803 644.871704 C 841.03125 644.571228 848.427124 644.41626 855.820862 644.243286 C 870.60791 643.93457 885.388306 643.845825 900.15918 643.778809 C 929.710388 643.701599 959.182983 643.455444 988.675781 641.974976 C 1047.662476 639.348755 1106.707031 636.107422 1165.730835 633.910034 C 1195.23877 632.665833 1224.73877 631.341614 1254.21167 629.645447 C 1261.552856 629.14624 1269.030029 628.962158 1276.16333 628.102539 C 1283.351196 627.191711 1290.465454 625.580383 1297.275879 623.238281 C 1304.040405 620.870789 1310.656616 617.748291 1315.862061 613.214172 C 1318.428345 610.94873 1320.606689 608.303772 1321.809204 605.335022 C 1323.032959 602.378784 1323.25 599.150391 1322.499146 595.992065 C 1320.952881 589.612915 1316.287109 583.932556 1311.206665 579.039551 C 1306.013306 574.139221 1300.162476 569.802551 1294.037109 566.050415 C 1281.744995 558.515869 1267.992432 553.507935 1253.852539 550.330383 C 1225.43042 543.995483 1195.848755 544.402466 1166.446655 545.195435 L 1163.34375 545.279114 L 1162.776611 542.189575 C 1160.835449 531.61499 1156.206665 521.588684 1149.71167 512.961609 C 1143.220459 504.317932 1134.921631 497.021301 1125.61377 491.482117 C 1116.303711 485.947449 1105.952148 482.1521 1095.315063 480.583374 C 1084.685913 478.990356 1073.776245 479.754211 1063.672119 482.999634 L 1058.1521 484.772034 L 1057.882568 478.966675 C 1056.94873 458.861694 1051.32373 439.047546 1042.11377 421.090881 C 1032.911255 403.11084 1020.212036 386.922485 1005.147095 373.429138 C 990.07666 359.942017 972.598755 349.112915 953.743713 341.95752 C 934.900818 334.845398 914.685852 331.259583 894.621643 332.443298 L 887.717468 332.850464 L 889.878723 326.302917 C 897.491272 303.243713 904.10083 279.866333 907.773743 256.04126 C 911.502502 232.271729 912.237915 207.974609 908.133728 184.421265 C 903.94751 160.945435 895.359985 138.025391 881.167114 118.887939 C 867.189575 99.567871 847.043335 85.459229 824.921265 76.118286 C 802.718323 66.727905 778.884583 61.304199 754.973328 56.609619 C 731.107056 52.004517 706.874146 46.884644 683.015442 50.709961 C 671.18335 52.605469 659.766663 56.914551 649.440857 63.108765 C 639.085022 69.276245 629.771667 77.165405 621.389587 85.92041 C 604.56543 103.48999 591.5 124.340454 579.414185 145.494995 L 578.858337 146.468384 L 577.955811 145.818359 C 566.767517 137.760864 553.512085 132.72168 539.85083 130.769653 C 526.172913 128.794189 512.104187 129.776733 498.70874 133.232544 C 485.309143 136.695068 472.524597 142.633301 461.319092 150.784668 C 450.121399 158.922485 440.516785 169.350464 433.770782 181.469604 Z"/>
        <path id="path1" fill="#ffffff" stroke="none" d="M 904.205811 295.055847 C 897.871704 327.361206 879.99292 357.47583 855.567078 380.368713 C 849.395447 386.039551 842.909973 391.420776 835.902466 396.069153 C 828.904175 400.717468 821.587891 404.863281 814.04834 408.520081 C 798.842468 415.575867 782.839172 420.740845 766.47168 423.814209 C 750.117065 426.903687 733.404602 428.046753 716.850403 426.934998 C 700.314148 425.959961 683.782898 422.755859 668.308716 416.562988 C 652.915405 410.302551 638.692078 400.602539 628.22998 387.663696 C 617.80542 374.820374 610.94873 358.804626 610.580811 342.295898 L 611.65625 342.250366 C 612.739563 358.445435 620.116272 373.648376 630.692932 385.575439 C 641.321655 397.582581 655.258301 406.191711 670.244568 411.541687 C 685.232483 416.971252 701.204163 419.537048 717.18042 419.947083 C 733.164185 420.493347 749.182922 418.853699 764.722107 415.383728 C 795.930847 408.467041 824.506653 392.920349 848.367493 372.368286 C 872.33374 351.700012 891.182495 325.049133 903.172485 294.754578 L 904.205811 295.055847 Z"/>
        <path id="path2" fill="#ffffff" stroke="none" d="M 514.607483 129.506226 C 525.653748 128.639648 536.85376 128.054932 548.087097 129.819946 C 559.252502 131.560791 570.435425 136.036621 579.003723 144.25293 C 583.212891 148.407471 586.476685 153.55249 588.621643 158.988281 C 590.760437 164.450439 591.880432 170.164185 592.508728 175.827026 C 593.547058 187.168335 593.036255 198.457031 591.20752 209.597046 C 589.305847 220.69458 586.030029 231.640869 580.743347 241.639526 C 575.527893 251.627075 568.457092 260.78418 559.482483 267.689575 C 550.588318 274.643799 540.043335 279.362915 529.043335 281.505859 C 518.035828 283.621704 506.419556 282.67334 496.128052 278.358765 L 496.33197 277.86084 C 506.652893 281.794556 518.053772 282.33252 528.720398 279.923706 C 539.378357 277.48584 549.460022 272.5625 557.803772 265.58667 C 566.262512 258.748413 572.837097 249.789551 577.624146 240.056641 C 582.475403 230.321289 585.376648 219.692505 586.952515 208.941284 C 588.390015 198.178711 588.532898 187.133301 587.216675 176.44458 C 585.839966 165.857544 582.510437 155.409668 575.178345 148.037842 C 568.033325 140.433716 557.852905 135.898315 547.376282 133.503296 C 536.800415 131.047485 525.680847 130.70752 514.612915 130.044556 L 514.607483 129.506226 Z"/>
        <path id="path3" fill="#ffffff" stroke="none" d="M 351.060852 386.699219 C 361.992096 386.850037 372.720001 391.584961 381.129578 398.812927 C 389.592072 406.044189 395.85791 415.875427 399.040833 426.693298 C 402.09668 437.536316 402.085419 449.081238 399.628326 459.926636 C 397.159576 470.782898 392.526245 481.052979 386.200012 490.097839 C 373.684998 508.109985 354.035828 521.852905 331.976257 524.287476 C 321.020844 525.417908 309.862091 523.549988 299.917084 519.072876 C 289.985413 514.615417 281.217926 507.362549 275.645416 498.037109 L 276.102509 497.753296 C 281.918762 506.783325 290.75 513.574524 300.557922 517.590881 C 310.378754 521.626221 321.23584 523.046265 331.654175 521.615784 C 352.686249 518.77002 371.157928 505.124573 382.634583 487.68457 C 394.097504 470.163757 398.866241 448.104553 393.845825 428.09668 C 388.98291 408.275391 372.321655 390.775879 351.014984 387.235046 L 351.060852 386.699219 Z"/>
        <path id="path4" fill="#ffffff" stroke="none" d="M 1087.085815 476.918335 C 1071.367065 477.76001 1057.862549 485.503296 1049.006714 496.385864 C 1040.340332 507.318298 1034.588379 521.410034 1034.522949 536.267883 C 1034.463745 543.641724 1035.599976 551.057129 1038.525879 557.662903 C 1041.372559 564.280884 1046.36377 569.870056 1052.553345 573.981689 C 1058.693726 578.181274 1065.927124 580.862854 1073.482056 582.116638 C 1081.046631 583.370361 1088.889648 583.338379 1096.660889 582.500366 L 1096.83374 583.562927 C 1089.118774 585.237061 1081.119141 586.063721 1073.078735 585.409241 C 1065.060059 584.791626 1056.9729 582.632507 1049.72998 578.562866 C 1042.54541 574.498291 1036.155884 568.346741 1032.240479 560.735352 C 1028.263794 553.188782 1026.426636 544.810425 1025.91626 536.527039 C 1025.375 528.209106 1026.171265 519.745056 1028.430054 511.534546 C 1030.734131 503.349609 1034.957886 495.532043 1040.953369 489.245789 C 1047.006226 482.980774 1054.509521 478.289612 1062.65625 475.857483 C 1070.741699 473.383362 1079.554565 473.155396 1087.240845 475.853271 L 1087.085815 476.918335 Z"/>
        <path id="path5" fill="#ffffff" stroke="none" d="M 766.674988 422.202087 C 751.320862 441.012878 744.085388 466.373352 746.441284 490.828735 C 747.095825 496.940063 748.283325 502.986694 750.01416 508.892517 C 751.883362 514.751587 754.301697 520.427856 757.233337 525.862549 C 760.28833 531.227539 763.822937 536.320435 767.782471 541.091187 C 771.842896 545.774658 776.30127 550.112488 781.103333 554.064087 C 785.987915 557.910461 791.190002 561.349548 796.662903 564.332153 C 802.196228 567.195435 807.97168 569.581665 813.932068 571.441223 C 819.930847 573.163269 826.080383 574.333374 832.311218 574.916992 C 838.552917 575.355469 844.832947 575.223328 851.075806 574.541626 C 875.984619 571.549133 899.938721 558.810852 915.768311 538.901733 C 900.4729 559.225403 876.681641 572.811707 851.343323 576.542114 C 844.992493 577.407898 838.565796 577.716248 832.138733 577.433716 C 825.720459 577.005798 819.345825 575.969604 813.102905 574.352417 C 806.899597 572.598694 800.860413 570.290405 795.04834 567.473267 C 789.297913 564.537109 783.802917 561.111633 778.615417 557.242126 C 773.510437 553.26709 768.737915 548.867065 764.359985 544.074951 C 760.08252 539.195068 756.225037 533.945374 752.854187 528.368286 C 749.606689 522.720032 746.87793 516.767578 744.730408 510.589539 C 742.722107 504.369507 741.287903 497.975464 740.42334 491.489624 C 737.25 465.552429 744.114197 438.24585 760.349182 417.187561 L 766.674988 422.202087 Z"/>
        <path id="path6" fill="#ffffff" stroke="none" d="M 66.257507 553.055908 C 63.62291 555.513306 63.864578 561.019165 66.541672 564.998779 C 67.199158 565.982849 67.963745 566.877563 68.812485 567.639954 C 69.765396 568.449219 70.809174 569.174133 71.932495 569.817505 C 74.191254 571.091675 76.765411 572.025879 79.50293 572.717957 C 84.952515 574.096619 91.090012 574.751709 97.030411 575.662903 C 102.994598 576.56958 108.982086 577.299194 114.965439 578.074951 C 138.908768 581.097961 162.987091 583.112122 187.11499 584.291626 C 235.374573 586.685364 283.855408 585.295776 332.024994 580.424194 C 284.011658 586.63208 235.484161 589.381714 186.97583 588.325439 C 162.723755 587.814636 138.470428 586.463745 114.301682 584.092529 C 108.261673 583.479614 102.214996 582.912476 96.188354 582.16748 C 90.150833 581.401611 84.192902 580.979187 77.847092 579.584167 C 71.644165 578.109131 64.766663 575.614197 60.276245 569.242554 C 58.208748 566.206665 56.823753 562.698303 56.584572 558.8396 C 56.256256 555.039551 57.491264 550.659607 60.3871 547.515015 L 66.257507 553.055908 Z"/>
        <path id="path7" fill="#ffffff" stroke="none" d="M 323.001251 615.375427 C 313.471649 620.067139 303.56543 621.622498 296.183319 626.294128 C 292.563751 628.601257 289.402496 631.786255 287.637512 635.383301 C 285.872498 638.974548 285.825409 642.890869 287.61084 646.294556 C 289.358765 649.696655 292.890411 652.457886 296.869598 654.538269 C 300.876251 656.665833 305.322906 658.099548 309.994171 659.48999 C 319.22998 662.28833 328.667084 664.47876 338.207092 666.194214 C 376.453766 672.949524 415.845886 672.621216 454.93689 673.622925 C 533.239563 674.899231 611.5979 673.428284 689.933777 671.950439 C 611.634583 674.772949 533.313354 677.589966 454.90564 677.658752 C 435.299713 677.633362 415.716217 677.587952 396.077515 677.089111 C 376.447906 676.541199 356.732483 675.329163 337.187927 672.162048 C 327.422089 670.578308 317.708771 668.501709 308.148743 665.783752 C 303.422485 664.460449 298.458344 662.985046 293.751648 660.59375 C 289.107086 658.227478 284.315826 654.942139 281.383331 649.627075 C 278.38916 644.394104 278.455414 637.475891 281.018341 632.267944 C 283.516266 627.005798 287.519562 622.986633 292.060425 619.947876 C 301.35791 614.04248 311.398743 612.422852 319.330841 608.185913 L 323.001251 615.375427 Z"/>
        <path id="path8" fill="#ffffff" stroke="none" d="M 612.727051 353.872864 C 623.603333 366.685791 639.242065 374.358276 655.259155 378.3396 C 671.39209 382.374146 688.117493 383.330444 704.714172 383.122437 C 737.917114 382.842957 771.326233 378.743286 802.609619 367.93335 C 818.201233 362.501709 833.184143 355.317139 846.884583 346.248291 C 860.450806 337.084656 872.630432 325.829102 882.286682 312.649231 C 892.134155 299.615417 899.45874 284.80127 904.367493 269.29126 C 909.250427 253.753296 911.339172 237.422485 911.169983 221.185791 L 919.242065 221.114136 C 919.081665 238.1875 916.530396 255.285889 911.086243 271.462158 C 905.616638 287.612549 897.634583 302.934204 887.099548 316.313721 C 876.756226 329.840393 863.861206 341.278748 849.632507 350.470398 C 835.346252 359.518738 819.876221 366.543396 803.895386 371.752869 C 771.834167 382.107483 738.068787 385.522888 704.712524 385.137512 C 688.0271 385.009949 671.181213 383.709106 655.002502 379.314209 C 638.935425 374.980469 623.336243 366.906311 612.727051 353.872864 Z"/>
        <path id="path9" fill="#ffffff" stroke="none" d="M 791.57959 414.749939 C 778.599976 424.544556 770.081665 439.717041 766.187073 455.926208 C 762.207886 472.209229 762.488342 489.552856 766.24707 506.097961 C 769.945435 522.633789 777.179565 538.637451 788.645813 551.321716 C 800.068726 563.892029 815.86499 573.039917 833.119141 574.875061 C 815.804138 573.721252 799.383362 565.135864 787.179993 552.70874 C 774.919128 540.171631 766.804993 523.969177 762.328308 507.064087 C 757.789978 490.14209 756.731262 472.07251 760.276672 454.614563 C 763.734985 437.264954 772.262512 420.139099 786.582886 408.410461 L 791.57959 414.749939 Z"/>
        <path id="path10" fill="#ffffff" stroke="none" d="M 1111.489136 484.744568 C 1100.697876 482.25293 1088.575439 485.151733 1078.663696 491.178711 C 1068.59375 497.140808 1061.140869 506.991272 1056.749146 518.147461 C 1052.356201 529.30542 1050.773315 541.711243 1051.832886 553.809143 C 1052.450073 559.829651 1054.007446 565.835876 1057.124634 571.075378 C 1060.228271 576.275818 1064.862915 580.757935 1070.657471 582.991211 C 1064.74707 581.08374 1059.750366 576.799561 1056.264526 571.621277 C 1052.752563 566.397522 1050.791626 560.257141 1049.812866 554.072144 C 1048.044189 541.67627 1048.93042 528.842102 1052.92041 516.756226 C 1056.863281 504.761292 1064.421265 493.359924 1075.349609 486.070435 C 1086.044189 478.817017 1099.451294 474.532471 1113.090454 476.83252 L 1111.489136 484.744568 Z"/>
        <path id="path11" fill="#ffffff" stroke="none" d="M 467.076843 352.498779 C 454.411743 352.371277 442.281494 358.010803 433.127991 366.417847 C 423.916931 374.842102 417.250305 385.98877 414.232452 397.980835 C 411.172089 410.031311 411.385834 422.749146 413.847504 434.914551 C 416.310211 447.113708 420.905945 458.841248 426.783569 469.824524 C 432.69458 480.78418 439.862793 491.142944 448.968872 499.320007 C 457.981445 507.52417 469.085938 513.33252 481.064697 514.785034 C 492.861511 516.491272 505.662903 513.419556 514.002075 504.661255 C 518.210388 500.383301 521.359558 494.964172 522.934998 489.07373 C 523.708313 486.13208 524.157898 483.071716 524.047485 479.989197 C 523.883728 476.91748 523.270447 473.857544 522.176697 470.911194 L 522.664185 470.682983 C 525.726257 476.346252 526.48999 483.170349 525.330811 489.611633 C 524.093323 496.05542 521.089172 502.149109 516.768311 507.194946 C 512.503357 512.314514 506.525818 516.033325 500.202942 518.090881 C 493.850708 520.198364 487.055054 520.791687 480.448059 520.131226 C 473.836426 519.412903 467.392822 517.494141 461.433838 514.596619 C 455.459595 511.657104 450.133362 507.702026 445.35907 503.238708 C 435.849884 494.211243 428.735168 483.220459 422.967255 471.817078 C 417.166504 460.397888 412.688324 448.22876 410.410828 435.565857 C 408.133759 422.940369 408.186249 409.734131 411.631653 397.290466 C 415.146057 384.850891 422.363953 373.588745 432.057556 365.209106 C 441.690002 356.84668 454.274536 351.461731 467.087585 351.960815 L 467.076843 352.498779 Z"/>
        <path id="path12" fill="#ffffff" stroke="none" d="M 551.313354 532.380859 C 539.539612 526.244507 526.789551 521.979187 513.717102 520.145447 C 500.667114 518.310486 487.242859 518.995483 474.752686 522.827087 C 462.311523 526.641663 450.950928 533.819641 442.164551 543.263794 C 433.40271 552.691711 427.18045 564.537109 425.539459 577.116699 L 425.157928 580.041687 L 422.15033 579.651184 C 415.196045 578.748352 408.279572 578.10498 401.59375 578.687988 C 394.904175 579.259155 388.513336 581.089233 383.39917 584.882568 C 378.246246 588.569946 374.404999 594.0271 373.707489 599.812134 C 373.001678 605.641235 375.49707 611.465881 379.837494 616.007019 C 388.606262 625.311707 402.377502 629.289551 415.597778 629.858704 C 428.920837 630.40918 442.348053 626.932434 453.572205 620.136169 L 456.967957 618.079956 L 459.907288 620.945435 C 471.570984 632.315369 486.865356 639.238281 502.922913 643.222473 C 519.078308 647.052979 536.087524 648.143677 553.068726 647.46582 C 570.072937 646.837952 587.123352 644.931702 603.282471 639.932556 C 619.355408 635.007935 634.775818 626.561279 645.410828 612.820862 L 646.304565 613.420776 C 637.456238 628.742126 621.901672 639.572937 605.44873 646.049927 C 588.844604 652.626221 571.18335 655.601318 553.633728 657.104553 C 536.039612 658.480408 518.012085 658.067871 500.370422 653.953003 C 482.779724 650.068359 465.518555 641.618774 452.52478 628.341248 L 458.858521 629.150452 C 445.511322 636.613403 430.161255 639.962952 415.123199 638.971619 C 407.59668 638.49292 400.167084 636.892517 393.079987 634.234558 C 385.904999 631.451721 379.23291 627.314209 373.905426 621.426208 C 371.270416 618.477966 369.012085 615.031616 367.591248 611.134521 C 366.149994 607.244568 365.68457 602.951599 366.252502 598.795898 C 367.530426 590.369202 372.948761 583.530334 379.357086 579.1521 C 385.835419 574.595825 393.705414 572.632935 401.112915 572.203369 C 408.61499 571.739624 415.915222 572.633789 422.998749 573.720459 L 419.610596 576.254211 C 421.776428 562.321289 428.90976 549.592896 438.619385 539.859192 C 448.328979 530.077942 460.546631 522.928284 473.746765 519.333679 C 486.931335 515.748779 500.807495 515.517883 514.080811 517.817871 C 527.379578 520.120422 540.152893 524.869568 551.82666 531.434937 L 551.313354 532.380859 Z"/>
        <path id="path13" fill="#ffffff" stroke="none" d="M 589.247925 188.294556 C 592.258728 163.822144 602.017517 140.139526 616.558777 119.890869 C 623.94458 109.834961 632.637085 100.688721 642.513306 93.00293 C 652.378357 85.309204 663.4104 79.154541 674.958313 74.515869 C 698.125 65.088745 723.249146 62.372559 747.800842 62.643311 C 772.45752 63.029175 796.844543 66.34375 821.104187 69.882568 L 821.03418 70.415771 C 796.686646 67.58667 772.237061 64.998779 747.800842 65.334229 C 723.462952 65.594116 698.850403 68.855835 676.608765 78.492065 C 654.278748 87.902466 635.48584 104.042969 620.865417 123.117065 C 606.035828 142.164185 595.798767 164.65332 589.7771 188.39209 L 589.247925 188.294556 Z"/>
        <path id="path14" fill="#ffffff" stroke="none" d="M 197.034576 527.185364 C 195.08374 515.766724 193.154999 504.195435 193.822083 492.446167 C 194.189575 486.594971 195.244171 480.734924 197.277069 475.162537 C 199.312073 469.596313 202.245422 464.407043 205.605408 459.577881 C 219.566681 440.695374 237.483765 424.915344 257.825836 413.131653 C 267.967926 407.202454 278.722076 402.259094 289.935425 398.539551 C 301.182495 394.927551 312.914185 392.747559 324.741241 392.185791 C 336.564575 391.780762 348.458344 392.81543 359.907074 395.703308 C 365.614166 397.212524 371.256256 399.171631 376.494171 401.984619 C 381.667084 404.864197 386.48999 408.584167 389.918762 413.37207 L 389.505005 413.716309 C 385.506256 409.544189 380.649994 406.390808 375.41333 404.189636 C 370.212921 401.900391 364.6875 400.405823 359.08374 399.363403 C 347.832916 397.335388 336.387909 396.623291 325.04834 397.558411 C 313.706665 398.313721 302.467926 400.447144 291.516663 403.627075 C 280.585419 406.901611 270.001251 411.389954 259.945404 416.878662 C 239.865845 427.876709 221.848328 443.025757 207.790405 461.147888 C 204.384583 465.735046 201.406677 470.648743 199.286652 475.933411 C 197.172485 481.217102 195.96875 486.854248 195.432098 492.567871 C 194.418762 504.042114 195.964996 515.633728 197.566254 527.102051 L 197.034576 527.185364 Z"/>
        <path id="path15" fill="#ffffff" stroke="none" d="M 515.071228 648.836182 C 541.589172 657.322876 569.645813 662.297119 597.289978 659.510498 C 611.059143 658.174561 624.637512 654.697876 637.107056 648.948364 C 649.435425 642.919189 660.682068 634.600403 669.666687 624.265869 C 672.03125 621.786316 673.936646 618.931641 676.045837 616.253723 C 677.854553 613.363342 679.883301 610.608337 681.387512 607.550354 C 684.744568 601.631714 687.179138 595.241699 688.855835 588.719116 C 690.719971 582.216187 691.188721 575.436218 691.103333 568.755005 C 690.996643 562.051208 689.891663 555.32373 687.456238 549.210388 C 685.153748 543.040405 681.147949 537.676697 676.04126 533.54126 C 670.92627 529.362061 664.598328 526.772888 658.049194 525.179993 C 651.467529 523.613281 644.55835 523.219971 637.708313 523.744141 C 630.836243 524.181274 624.016235 525.647949 617.410828 527.873779 L 617.207092 527.375854 C 629.937927 521.46167 644.562927 519.071228 658.809143 521.506287 C 665.918335 522.69165 672.923767 525.413696 678.859558 529.852844 C 684.768738 534.265442 689.619568 540.341248 692.443359 547.188721 C 697.92627 560.967407 697.806641 576.172974 694.004578 590.088684 C 692.038757 597.034668 689.272522 603.754211 685.585388 609.911682 C 683.912903 613.094666 681.721252 615.94458 679.743347 618.92334 C 677.471252 621.682556 675.396667 624.609558 672.871643 627.140381 C 663.288757 637.735413 651.464172 646.128418 638.578308 652.121643 C 625.532898 657.835449 611.599182 661.091675 597.531677 662.190063 C 569.306274 664.294983 541.24292 658.519165 514.899597 649.346191 L 515.071228 648.836182 Z"/>
        <path id="path16" fill="#ffffff" stroke="none" d="M 591.139587 170.368774 C 588.065002 162.8125 582.749573 156.345459 576.390015 151.344116 C 570.028748 146.297852 562.611267 142.700806 554.917053 140.221313 C 539.43335 135.412109 522.671265 135.07666 506.986267 138.81665 C 491.278503 142.453735 476.507019 150.209961 464.97876 161.389648 C 453.365906 172.484619 444.835907 186.709595 440.298279 202.032959 C 438.119171 209.722046 436.770172 217.644165 436.805084 225.638794 C 436.660797 233.61084 437.461243 241.610352 439.307953 249.392456 C 440.022949 253.32666 441.334747 257.130371 442.408203 260.982544 C 443.799255 264.747925 445.039459 268.55957 446.683136 272.236694 C 449.674316 279.69873 453.397583 286.883301 457.387939 293.914978 C 465.237366 308.084534 474.67865 321.396667 484.248474 334.627075 C 493.886475 347.826721 503.625854 361.015869 513.030396 374.427063 L 512.60498 374.75708 C 501.97583 362.277893 491.564514 349.66626 481.265015 336.901245 C 471.019104 324.092041 461.245605 310.808716 452.726929 296.60498 C 444.416321 282.344971 437.327087 266.983398 434.096405 250.499146 C 432.337555 242.315063 431.663788 233.87915 431.990448 225.50708 C 432.134277 217.119141 433.727081 208.770752 436.178619 200.782471 C 441.196045 184.814575 450.326233 170.176636 462.578613 158.844971 C 474.760071 147.418335 490.19043 139.661621 506.395813 136.19165 C 522.612488 132.702515 539.733337 133.435425 555.422913 138.688354 C 563.222107 141.391235 570.695435 145.2229 577.065002 150.505859 C 583.432922 155.741211 588.696228 162.450806 591.640808 170.172485 L 591.139587 170.368774 Z"/>
        <path id="path17" fill="#ffffff" stroke="none" d="M 859.698303 374.604248 C 861.977478 369.414978 865.79834 364.955811 870.397888 361.62207 C 875.052124 358.342529 880.355408 356.089966 885.804993 354.540039 C 896.762878 351.409973 908.299988 351.337891 919.520874 352.109192 C 942.064575 353.806641 964.259155 360.305847 984.315796 370.95459 C 1004.383301 381.532959 1022.458374 396.400879 1035.972534 414.790405 C 1042.632568 424.027954 1048.420776 433.886658 1052.986206 444.270874 C 1057.480835 454.682983 1060.844604 465.558289 1062.75415 476.649536 L 1062.230835 476.774536 C 1055.500854 455.409546 1045.416626 435.348328 1031.686646 418.045349 C 1018.093384 400.72876 1001.572021 385.594116 982.249146 374.731262 C 962.973389 363.895447 941.403748 356.989197 919.2854 354.789551 C 908.243774 353.676636 897.00415 353.391174 886.216675 356.101257 C 880.858337 357.44165 875.634155 359.467529 871.010864 362.506653 C 866.447083 365.600891 862.593323 369.803284 860.188782 374.825439 L 859.698303 374.604248 Z"/>
        <path id="path18" fill="#ffffff" stroke="none" d="M 616.599609 365.117065 C 621.436279 377.353333 628.29541 388.712097 636.700439 398.68335 C 645.035034 408.710815 654.943726 417.382874 665.956665 424.187134 C 677.008728 430.983765 689.169983 435.585449 701.544556 439.117126 C 713.964172 442.670898 726.856262 444.486267 740.067078 444.997986 L 740.106262 445.534546 C 727.022095 447.973328 713.325012 447.312073 700.210449 444.330383 C 687.050842 441.327454 674.702515 435.327087 663.618347 427.801697 C 652.494568 420.284607 642.6875 410.945435 634.596252 400.360046 C 626.574158 389.719177 620.276672 377.8396 616.09375 365.301208 L 616.599609 365.117065 Z"/>
        <path id="path19" fill="#ffffff" stroke="none" d="M 649.775818 403.914978 C 650.702942 405.533813 650.817932 407.084961 650.734192 408.619629 C 650.569153 410.147888 650.200439 411.658813 649.012085 413.102173 C 648.078735 411.482544 647.9646 409.931213 648.054138 408.397095 C 648.224609 406.869568 648.594177 405.358276 649.775818 403.914978 Z"/>
        <path id="path20" fill="#ffffff" stroke="none" d="M 657.23291 409.2854 C 658.290833 411.33667 658.53418 413.388367 658.577515 415.439514 C 658.539612 417.490845 658.297485 419.542114 657.23291 421.593811 C 656.168335 419.542114 655.92627 417.490845 655.888306 415.439514 C 655.931702 413.388367 656.174988 411.33667 657.23291 409.2854 Z"/>
        <path id="path21" fill="#ffffff" stroke="none" d="M 667.078308 412.977905 C 668.331238 415.355347 668.771667 417.797913 669.012939 420.256592 C 669.17334 422.722046 669.130005 425.203735 668.267517 427.751221 C 667.008301 425.374512 666.568359 422.931702 666.33252 420.472534 C 666.177917 418.006714 666.222107 415.524963 667.078308 412.977905 Z"/>
        <path id="path22" fill="#ffffff" stroke="none" d="M 679.670837 418.732117 C 680.946228 421.380798 681.40918 424.094971 681.67334 426.825378 C 681.856262 429.562561 681.835449 432.315857 680.995422 435.134949 C 679.713745 432.487061 679.251221 429.772522 678.99292 427.041687 C 678.81543 424.304626 678.837097 421.551208 679.670837 418.732117 Z"/>
        <path id="path23" fill="#ffffff" stroke="none" d="M 693.39917 421.172913 C 694.97583 424.215881 695.749146 427.392517 696.325012 430.601318 C 696.820862 433.82373 697.11499 437.079163 696.598328 440.469543 C 695.015015 437.427429 694.24292 434.251221 693.672058 431.04126 C 693.181641 427.817993 692.888306 424.562134 693.39917 421.172913 Z"/>
        <path id="path24" fill="#ffffff" stroke="none" d="M 708.904175 424.472839 C 711.027893 428.044922 712.382507 431.887085 713.54248 435.777954 C 714.625 439.691711 715.511658 443.667908 715.596252 447.824158 C 713.449585 444.196655 712.105835 440.38916 710.95752 436.518799 C 709.887085 432.626282 709.010803 428.685059 708.904175 424.472839 Z"/>
        <path id="path25" fill="#ffffff" stroke="none" d="M 728.171265 423.6521 C 729.859558 427.093323 730.890442 430.578308 731.885864 434.093262 C 732.803345 437.629639 733.669983 441.158752 733.940002 444.984131 C 731.668335 441.885803 730.297485 438.379211 729.289612 434.79541 C 728.359131 431.190796 727.776672 427.471741 728.171265 423.6521 Z"/>
        <path id="path26" fill="#ffffff" stroke="none" d="M 741.405029 424.441223 C 743.510864 427.356628 744.857483 430.569153 746.012878 433.841248 C 747.091248 437.13916 747.977478 440.507935 748.073792 444.10498 C 745.947083 441.147034 744.610413 437.961243 743.466248 434.705017 C 742.398743 431.422485 741.522522 428.080444 741.405029 424.441223 Z"/>
        <path id="path27" fill="#ffffff" stroke="none" d="M 890.367493 306.99292 C 891.898743 308.013733 893.025818 309.484558 893.989197 311.021606 C 894.850403 312.618286 895.574585 314.324097 895.702087 316.161255 C 894.75293 314.600037 894.020813 313.029175 893.089966 311.544983 C 892.260803 310.001709 891.258728 308.587036 890.367493 306.99292 Z"/>
        <path id="path28" fill="#ffffff" stroke="none" d="M 887.144592 311.647461 C 888.875427 312.647583 890.220398 314.157898 891.377075 315.763794 C 892.436218 317.434998 893.338318 319.245483 893.617493 321.226318 C 892.532471 319.564087 891.633362 317.897461 890.515015 316.346313 C 889.494141 314.729126 888.28418 313.27124 887.144592 311.647461 Z"/>
        <path id="path29" fill="#ffffff" stroke="none" d="M 885.276245 315.800415 C 886.849976 316.974976 888.027527 318.543823 889.084595 320.164551 C 890.040039 321.847107 890.895447 323.612122 891.213318 325.55127 C 890.09668 323.947083 889.228333 322.287537 888.195801 320.705444 C 887.265442 319.061707 886.19165 317.526306 885.276245 315.800415 Z"/>
        <path id="path30" fill="#ffffff" stroke="none" d="M 881.61377 319.46582 C 884.93042 322.100891 887.100403 326.200806 887.397949 330.428772 C 885.69751 326.552917 883.858765 323.054199 881.61377 319.46582 Z"/>
        <path id="path31" fill="#ffffff" stroke="none" d="M 877.15625 324.735046 C 878.515869 326.410461 879.462463 328.32251 880.36377 330.245789 C 881.154602 332.216675 881.907471 334.213318 882.200012 336.352112 C 881.092529 334.50415 880.30127 332.565002 879.40918 330.660034 C 878.627502 328.707581 877.75293 326.804138 877.15625 324.735046 Z"/>
        <path id="path32" fill="#ffffff" stroke="none" d="M 871.632935 329.488831 C 873.580444 332.269226 874.908752 335.428284 875.949585 338.652466 C 876.876648 341.910889 877.529968 345.275818 877.45166 348.669617 C 876.669983 345.379211 875.977905 342.12793 874.953735 338.95459 C 874.043335 335.74707 872.814575 332.657959 871.632935 329.488831 Z"/>
        <path id="path33" fill="#ffffff" stroke="none" d="M 863.825012 336.963684 C 865.22876 340.060852 866.140442 343.328796 866.961243 346.609192 C 867.664978 349.916992 868.282532 353.252991 868.377075 356.652527 C 867.428345 353.391174 866.762939 350.104553 865.94751 346.843384 C 865.249573 343.555359 864.407471 340.309204 863.825012 336.963684 Z"/>
        <path id="path34" fill="#ffffff" stroke="none" d="M 852.26001 345.766602 C 853.811279 349.300049 854.753723 353.057556 855.477478 356.838257 C 856.083313 360.640015 856.477112 364.493774 856.215393 368.344543 C 855.612488 364.540771 855.169189 360.762939 854.452515 357.017944 C 853.854187 353.252075 852.989563 349.547485 852.26001 345.766602 Z"/>
        <path id="path35" fill="#ffffff" stroke="none" d="M 839.218323 353.756287 C 840.477478 358.051636 841.069153 362.507568 841.404602 366.964539 C 841.620422 371.429138 841.58252 375.924255 840.856689 380.341248 C 840.718323 375.875427 840.697937 371.449585 840.366272 367.028748 C 840.153748 362.599976 839.632935 358.204956 839.218323 353.756287 Z"/>
        <path id="path36" fill="#ffffff" stroke="none" d="M 821.868774 363.214172 C 822.192078 368.620361 822.116211 374.027588 822.070862 379.433777 C 821.80249 384.763367 822.17627 390.414124 819.951233 395.477112 C 820.693726 392.867981 820.861267 390.179138 820.937073 387.500427 L 821.030823 379.407532 C 821.19751 374.009155 821.33374 368.612061 821.868774 363.214172 Z"/>
        <path id="path37" fill="#ffffff" stroke="none" d="M 801.20874 370.361267 C 803.314148 381.909973 801.730835 394.226257 796.755859 404.86084 C 800.38208 393.700867 801.888733 382.077087 801.20874 370.361267 Z"/>
        <path id="path38" fill="#ffffff" stroke="none" d="M 781.026245 375.765381 C 781.49292 382.557495 780.972534 389.397888 779.908752 396.127869 C 778.727478 402.838318 776.997925 409.477051 774.344177 415.747131 C 776.176697 409.201599 777.825439 402.638306 778.882507 395.956604 C 780.056641 389.294128 780.634155 382.55127 781.026245 375.765381 Z"/>
        <path id="path39" fill="#ffffff" stroke="none" d="M 757.657104 381.751282 C 755.724976 388.482056 753.416687 395.07959 751.137512 401.687012 C 749.914185 404.965393 748.804993 408.265869 747.478333 411.526306 C 746.145874 414.757996 744.390808 417.984985 741.662903 420.234619 C 744.113342 417.705444 745.539612 414.473755 746.732056 411.234985 L 750.157104 401.339111 C 752.550842 394.772156 754.91626 388.194946 757.657104 381.751282 Z"/>
        <path id="path40" fill="#ffffff" stroke="none" d="M 733.835815 383.474548 C 731.691284 390.124939 728.730835 396.491699 725.398315 402.635864 C 723.63916 405.6604 721.94043 408.705444 719.84668 411.551697 C 717.775818 414.344238 715.002075 416.990479 711.505432 417.697449 C 714.877075 416.606689 717.270386 413.887085 719.195435 411.085083 C 721.102112 408.218689 722.816223 405.169617 724.487915 402.131714 C 727.908325 396.079163 730.89502 389.803772 733.835815 383.474548 Z"/>
        <path id="path41" fill="#ffffff" stroke="none" d="M 701.851685 384.649597 C 699.963318 389.758728 697.352112 394.57251 694.455017 399.18335 C 691.45752 403.729187 688.157898 408.100464 684.2854 411.931274 C 687.49585 407.542114 690.703735 403.197021 693.580017 398.619995 C 696.557495 394.107483 699.187927 389.390381 701.851685 384.649597 Z"/>
        <path id="path42" fill="#ffffff" stroke="none" d="M 1039.35498 423.880066 C 1039.013794 421.324219 1039.070801 418.781738 1039.097534 416.238708 C 1039.244629 413.699524 1039.359985 411.15918 1039.880005 408.632996 C 1040.224976 411.188721 1040.164917 413.731323 1040.137451 416.274597 C 1039.98877 418.813354 1039.871216 421.353699 1039.35498 423.880066 Z"/>
        <path id="path43" fill="#ffffff" stroke="none" d="M 1033.959595 414.174194 C 1033.637085 411.615417 1033.712891 409.073669 1033.758301 406.530457 C 1033.924194 403.992493 1034.057861 401.452942 1034.596313 398.93042 C 1034.922485 401.489197 1034.844116 404.030762 1034.797974 406.573792 C 1034.630859 409.112122 1034.494507 411.651306 1033.959595 414.174194 Z"/>
        <path id="path44" fill="#ffffff" stroke="none" d="M 1028.414185 392.35083 C 1028.843384 394.833801 1028.873291 397.315796 1028.934204 399.798401 C 1028.874634 402.28125 1028.84668 404.763733 1028.414185 407.246216 C 1027.981323 404.763733 1027.953735 402.28125 1027.893677 399.798401 C 1027.95459 397.315796 1027.984985 394.833801 1028.414185 392.35083 Z"/>
        <path id="path45" fill="#ffffff" stroke="none" d="M 1022.525391 386.115845 C 1022.95459 388.367493 1022.984619 390.619202 1023.04541 392.870911 C 1022.98584 395.12207 1022.957886 397.373779 1022.525391 399.625427 C 1022.092529 397.373779 1022.064941 395.12207 1022.005005 392.870911 C 1022.065796 390.619202 1022.096313 388.367493 1022.525391 386.115845 Z"/>
        <path id="path46" fill="#ffffff" stroke="none" d="M 1014.523315 380.574585 C 1015.022949 383.160461 1015.124146 385.757141 1015.255859 388.353271 C 1015.26709 390.952515 1015.309937 393.550781 1014.948364 396.160034 C 1014.445068 393.574219 1014.346313 390.977539 1014.21582 388.381653 C 1014.205811 385.782532 1014.165039 383.183716 1014.523315 380.574585 Z"/>
        <path id="path47" fill="#ffffff" stroke="none" d="M 1007.204102 370.869141 C 1007.592041 373.552124 1007.582886 376.196228 1007.603394 378.846313 C 1007.503296 381.494568 1007.435059 384.137939 1006.962524 386.807922 C 1006.570068 384.164978 1006.58252 381.494934 1006.562866 378.830383 C 1006.664185 376.167847 1006.73584 373.499207 1007.204102 370.869141 Z"/>
        <path id="path48" fill="#ffffff" stroke="none" d="M 996.54541 364.639221 C 996.974609 367.410461 997.005005 370.181702 997.065796 372.952942 C 997.005859 375.724243 996.978394 378.494934 996.54541 381.266235 C 996.112915 378.494934 996.084961 375.724243 996.025391 372.952942 C 996.086304 370.181702 996.116699 367.410461 996.54541 364.639221 Z"/>
        <path id="path49" fill="#ffffff" stroke="none" d="M 984.407104 354.940491 C 984.785034 357.700012 984.764526 360.484619 984.77417 363.264526 C 984.66333 366.041626 984.58374 368.825439 984.10083 371.569092 C 983.719971 368.769653 983.74292 366.010498 983.733765 363.244934 C 983.845459 360.482056 983.927124 357.723816 984.407104 354.940491 Z"/>
        <path id="path50" fill="#ffffff" stroke="none" d="M 971.267944 347.666199 C 971.515381 350.522034 971.365356 353.352539 971.245361 356.184937 C 971.005005 359.009583 970.797119 361.836304 970.18457 364.637024 C 969.93335 361.780884 970.086304 358.950867 970.207031 356.118713 C 970.448364 353.294189 970.65918 350.467468 971.267944 347.666199 Z"/>
        <path id="path51" fill="#ffffff" stroke="none" d="M 953.910828 339.006226 C 954.325012 342.406616 954.34082 345.819519 954.387085 349.22998 C 954.3125 352.639954 954.27002 356.052979 953.822937 359.449219 C 953.404968 356.031738 953.391663 352.630005 953.34668 349.22583 C 953.422119 345.821716 953.467102 342.42041 953.910828 339.006226 Z"/>
        <path id="path52" fill="#ffffff" stroke="none" d="M 934.700806 333.794189 C 935.460876 337.150879 935.698364 340.577881 935.837097 343.998413 C 935.855835 347.422058 935.77832 350.856201 935.169189 354.244141 C 934.913757 350.816284 934.93457 347.421692 934.797119 344.022583 C 934.779968 340.619995 934.606262 337.22998 934.700806 333.794189 Z"/>
        <path id="path53" fill="#ffffff" stroke="none" d="M 913.3396 328.92334 C 914.260803 332.547546 914.588745 336.279968 914.742065 340.00415 C 914.775818 343.731628 914.637085 347.475891 913.894165 351.141296 C 913.773743 347.410034 913.85376 343.723755 913.702087 340.030457 C 913.67041 336.333801 913.40918 332.655396 913.3396 328.92334 Z"/>
        <path id="path54" fill="#ffffff" stroke="none" d="M 896.55127 330.001221 C 896.922913 333.875854 896.895386 337.744202 896.898743 341.613342 C 896.78125 345.480408 896.695801 349.348389 896.205444 353.210022 C 895.830383 349.335388 895.860413 345.466675 895.858337 341.5979 C 895.976685 337.730469 896.064575 333.862854 896.55127 330.001221 Z"/>
        <path id="path55" fill="#ffffff" stroke="none" d="M 886.494995 337.960876 C 886.959167 340.825806 887.025024 343.724121 887.121643 346.617065 C 887.097107 349.511292 887.104553 352.410034 886.70752 355.285461 C 886.239563 352.385864 886.17627 349.51001 886.081238 346.629639 C 886.106689 343.747498 886.102112 340.87085 886.494995 337.960876 Z"/>
        <path id="path56" fill="#ffffff" stroke="none" d="M 759.958313 430.460388 C 761.59082 429.55835 763.401245 429.157471 765.209167 428.860779 C 767.032471 428.682861 768.885437 428.603271 770.695007 429.060425 C 768.883362 429.469238 767.111694 429.602112 765.34375 429.892517 C 763.560425 430.064209 761.813354 430.387573 759.958313 430.460388 Z"/>
        <path id="path57" fill="#ffffff" stroke="none" d="M 753.741699 440.555359 C 756.203735 439.195435 758.912109 438.396606 761.640442 437.780823 C 764.392517 437.282104 767.197937 436.958374 769.995422 437.253357 C 767.250427 437.82251 764.53418 438.194214 761.847473 438.800354 C 759.137085 439.289551 756.48999 440.005066 753.741699 440.555359 Z"/>
        <path id="path58" fill="#ffffff" stroke="none" d="M 747.287903 451.870789 C 750.058716 449.950867 753.250854 448.717529 756.506226 447.850464 C 759.789978 447.097473 763.189209 446.696655 766.535828 447.105835 C 763.211243 447.563354 759.94751 448.010437 756.756226 448.860474 C 753.537048 449.596191 750.440002 450.721313 747.287903 451.870789 Z"/>
        <path id="path59" fill="#ffffff" stroke="none" d="M 746.761658 462.257446 C 748.918762 460.741577 751.390015 459.776611 753.897522 459.013794 C 756.436646 458.365051 759.049988 457.905884 761.680847 458.086731 C 759.14502 458.766602 756.637085 459.26709 754.17749 460.015808 C 751.686279 460.650024 749.28125 461.520447 746.761658 462.257446 Z"/>
        <path id="path60" fill="#ffffff" stroke="none" d="M 745.130005 477.325378 C 747.395386 475.363708 750.10791 473.995789 752.901245 472.928833 C 755.734619 471.972046 758.697083 471.297119 761.693359 471.37085 C 758.816223 472.155457 755.987488 472.862549 753.253296 473.907532 C 750.479614 474.841614 747.84668 476.095398 745.130005 477.325378 Z"/>
        <path id="path61" fill="#ffffff" stroke="none" d="M 745.78418 494.913818 C 748.929993 490.664978 754.004578 487.789185 759.27002 487.290894 C 754.35083 489.205872 749.958313 491.681213 745.78418 494.913818 Z"/>
        <path id="path62" fill="#ffffff" stroke="none" d="M 747.588318 510.644958 C 749.304565 508.693359 751.315002 507.044556 753.54126 505.660828 C 755.797119 504.386169 758.403748 503.387512 761.032104 503.650452 C 755.945007 504.754211 752.035034 507.968689 747.588318 510.644958 Z"/>
        <path id="path63" fill="#ffffff" stroke="none" d="M 755.094971 521.537964 C 756.686707 520.031677 758.558716 518.930847 760.451233 517.891235 C 762.398743 516.958801 764.383728 516.076721 766.536682 515.664978 C 764.716248 516.875916 762.797485 517.789673 760.92627 518.816711 C 759.000427 519.737549 757.138367 520.761292 755.094971 521.537964 Z"/>
        <path id="path64" fill="#ffffff" stroke="none" d="M 758.103333 529.221252 C 759.46582 527.59967 761.189148 526.380859 762.956665 525.265808 C 764.784973 524.253784 766.682495 523.329224 768.761658 522.920044 C 767.027893 524.122925 765.221252 525.066711 763.486267 526.161621 C 761.690002 527.15332 759.990845 528.279175 758.103333 529.221252 Z"/>
        <path id="path65" fill="#ffffff" stroke="none" d="M 762.326233 534.963806 C 763.51001 533.496643 765.062927 532.437439 766.657898 531.492554 C 768.310425 530.652527 770.036255 529.907898 771.910828 529.69873 C 770.337097 530.719971 768.7146 531.482483 767.158752 532.404663 C 765.54541 533.222107 764.030029 534.180359 762.326233 534.963806 Z"/>
        <path id="path66" fill="#ffffff" stroke="none" d="M 766.258728 540.61377 C 767.487061 539.308716 769.019592 538.415466 770.575012 537.602539 C 772.182068 536.897949 773.837524 536.26001 775.625 536.122437 C 774.11792 537.079163 772.54834 537.744568 771.024597 538.540833 C 769.449585 539.229126 767.946228 540.03418 766.258728 540.61377 Z"/>
        <path id="path67" fill="#ffffff" stroke="none" d="M 771.443726 546.622131 C 772.515808 545.471619 773.794189 544.662048 775.057068 543.826233 C 775.725403 543.469177 776.370422 543.07373 777.060425 542.752869 L 778.106628 542.289551 L 778.660828 542.103394 C 778.76123 542.075012 778.900818 542.024536 779.027466 542.124084 C 779.192505 542.281677 778.875793 542.427856 778.892944 542.278748 C 779.144592 542.070068 778.567078 542.474548 778.37085 542.72583 L 777.475403 543.438416 C 776.871277 543.901245 776.222107 544.289551 775.595825 544.716187 C 774.269958 545.447998 772.960388 546.205444 771.443726 546.622131 Z"/>
        <path id="path68" fill="#ffffff" stroke="none" d="M 775.98584 551.174622 C 777.105408 550.202087 777.95459 549.149658 779.133789 548.175354 C 780.345825 547.314148 781.695435 546.583374 783.207092 546.442993 C 782.034973 547.381287 780.8479 548.095398 779.768311 549 C 778.653748 549.767883 777.537476 550.952087 775.98584 551.174622 Z"/>
        <path id="path69" fill="#ffffff" stroke="none" d="M 781.875 555.689575 C 782.261658 554.764587 782.94873 554.102539 783.610413 553.424133 C 784.352478 552.835022 785.080444 552.217041 786.04248 551.930786 C 785.615845 552.897461 784.954163 553.532959 784.307068 554.196594 C 783.57959 554.770874 782.87793 555.361633 781.875 555.689575 Z"/>
        <path id="path70" fill="#ffffff" stroke="none" d="M 789.181641 554.121216 C 788.945007 555.027954 788.377075 555.710388 787.837097 556.405457 C 787.20752 557.020386 786.59375 557.662537 785.717041 557.996277 C 785.994995 557.037903 786.536255 556.388794 787.061218 555.712036 C 787.67627 555.115417 788.263367 554.506592 789.181641 554.121216 Z"/>
        <path id="path71" fill="#ffffff" stroke="none" d="M 791.602112 556.462036 C 791.625 557.365479 791.194153 558.096252 790.731689 558.772949 C 790.176697 559.375427 789.563354 559.961243 788.674988 560.13916 C 788.997498 559.305359 789.48999 558.755798 789.91748 558.124573 C 790.4375 557.567139 790.86499 556.965088 791.602112 556.462036 Z"/>
        <path id="path72" fill="#ffffff" stroke="none" d="M 794.727905 559.014587 C 794.768311 559.764526 794.437927 560.363708 794.137085 560.967957 C 793.734192 561.509644 793.350403 562.076233 792.660034 562.376221 C 792.65918 561.55542 792.9646 561.002014 793.250854 560.422974 C 793.639587 559.906677 793.998352 559.385376 794.727905 559.014587 Z"/>
        <path id="path73" fill="#ffffff" stroke="none" d="M 798.763306 561.80249 C 798.716675 562.655823 798.319153 563.318298 797.950012 563.992493 C 797.47998 564.60083 797.032898 565.231262 796.266235 565.612488 C 796.332092 564.723755 796.717529 564.084167 797.07959 563.422424 C 797.542908 562.826721 797.977478 562.219177 798.763306 561.80249 Z"/>
        <path id="path74" fill="#ffffff" stroke="none" d="M 802.64624 564.660828 C 802.876221 565.24585 802.715027 565.745483 802.584167 566.245483 C 802.341675 566.701294 802.122925 567.178284 801.553345 567.450378 C 801.348328 566.792114 801.493774 566.339539 801.615417 565.865906 C 801.849182 565.435852 802.052063 565.005432 802.64624 564.660828 Z"/>
        <path id="path75" fill="#ffffff" stroke="none" d="M 806.16333 567.07959 C 806.490417 567.440857 806.441711 567.669617 806.422058 567.908264 C 806.28833 568.107056 806.184998 568.316711 805.699585 568.390869 C 805.368713 568.02832 805.419983 567.800476 805.440857 567.561646 C 805.575439 567.363281 805.681274 567.155029 806.16333 567.07959 Z"/>
        <path id="path76" fill="#ffffff" stroke="none" d="M 811.426636 568.981628 C 811.73877 569.439087 811.616699 569.820435 811.494141 570.175842 C 811.26709 570.475464 811.019165 570.790039 810.462524 570.782166 C 810.344177 570.246704 810.480408 569.989563 810.577087 569.684509 C 810.777893 569.436218 810.919128 569.180847 811.426636 568.981628 Z"/>
        <path id="path77" fill="#ffffff" stroke="none" d="M 1085.484985 482.751282 C 1083.130859 482.010437 1080.882935 481.194641 1078.536743 480.662476 C 1076.219604 480.015869 1073.854126 479.667114 1071.431274 479.195862 C 1073.883301 478.800903 1076.382935 479.104187 1078.792114 479.653748 C 1081.172485 480.317139 1083.51416 481.241272 1085.484985 482.751282 Z"/>
        <path id="path78" fill="#ffffff" stroke="none" d="M 1079.102051 485.432861 C 1077.00293 484.694214 1075.036255 483.836304 1072.96875 483.206238 C 1070.938354 482.464172 1068.852051 481.966187 1066.732544 481.286682 C 1068.9646 481.107117 1071.17627 481.570007 1073.299194 482.219604 C 1075.38501 482.981689 1077.427002 483.947021 1079.102051 485.432861 Z"/>
        <path id="path79" fill="#ffffff" stroke="none" d="M 1073.770752 488.424255 C 1071.392578 488.205383 1069.197144 487.267883 1067.010864 486.562012 C 1064.8479 485.740845 1062.690796 485.122498 1060.345459 484.848328 C 1062.684204 484.246643 1065.144531 484.853821 1067.357056 485.580872 C 1069.568726 486.425476 1071.650879 487.38623 1073.770752 488.424255 Z"/>
        <path id="path80" fill="#ffffff" stroke="none" d="M 1067.977905 493.998413 C 1063.436279 492.317871 1058.772461 492.332886 1053.962891 491.585449 C 1056.357422 491.162903 1058.77832 491.156189 1061.205811 491.407043 C 1063.597046 491.768677 1066.067871 492.445801 1067.977905 493.998413 Z"/>
        <path id="path81" fill="#ffffff" stroke="none" d="M 1064.366699 498.988281 C 1058.61792 498.163269 1053.02832 498.034973 1047.246216 498.575012 C 1052.721191 496.621643 1058.992065 496.779541 1064.366699 498.988281 Z"/>
        <path id="path82" fill="#ffffff" stroke="none" d="M 1057.159546 508.505066 L 1037.512451 510.172058 C 1040.662964 509.109558 1043.95459 508.618347 1047.246216 508.279602 C 1050.547974 508.059998 1053.875 507.992126 1057.159546 508.505066 Z"/>
        <path id="path83" fill="#ffffff" stroke="none" d="M 1054.472534 517.289185 C 1050.895386 517.915039 1047.32959 518.141602 1043.759155 518.398743 C 1040.182495 518.535034 1036.613403 518.702881 1032.989136 518.468811 C 1036.525757 517.841675 1040.11792 517.616211 1043.702148 517.359619 C 1047.293335 517.223267 1050.888306 517.056702 1054.472534 517.289185 Z"/>
        <path id="path84" fill="#ffffff" stroke="none" d="M 1051.619507 529.174194 C 1048.507568 529.753784 1045.402954 530.059082 1042.309204 530.518799 C 1039.199585 530.859192 1036.119629 531.353333 1032.96167 531.577515 C 1035.945801 530.505432 1039.05957 529.94873 1042.175781 529.487061 C 1045.307983 529.144592 1048.461182 528.896667 1051.619507 529.174194 Z"/>
        <path id="path85" fill="#ffffff" stroke="none" d="M 1049.6604 537.002869 C 1047.641602 538.465454 1045.282104 539.351196 1042.888672 539.999207 C 1040.467896 540.532471 1037.96582 540.84082 1035.499146 540.474121 C 1037.928345 539.975037 1040.306274 539.621277 1042.641235 538.988831 C 1045.00415 538.470886 1047.277466 537.687134 1049.6604 537.002869 Z"/>
        <path id="path86" fill="#ffffff" stroke="none" d="M 1050.127075 547.705383 C 1047.792847 548.754944 1045.28125 549.257446 1042.767944 549.612854 C 1040.240479 549.850037 1037.68042 549.945007 1035.166626 549.460815 C 1037.689209 549.079163 1040.171631 548.929504 1042.646729 548.57959 C 1045.135376 548.348267 1047.585815 547.921692 1050.127075 547.705383 Z"/>
        <path id="path87" fill="#ffffff" stroke="none" d="M 1049.613281 554.581238 C 1047.665039 555.277588 1045.626709 555.487488 1043.596191 555.631287 C 1041.561279 555.654968 1039.512451 555.614502 1037.513794 555.075867 C 1039.552124 554.75 1041.550049 554.733337 1043.553711 554.591675 C 1045.5625 554.570068 1047.555786 554.42627 1049.613281 554.581238 Z"/>
        <path id="path88" fill="#ffffff" stroke="none" d="M 1038.679932 559.101318 C 1039.677856 559.596313 1040.804565 559.590454 1041.875854 559.747498 C 1042.957031 559.84375 1044.033813 559.932861 1045.112061 559.875061 C 1047.27832 559.906677 1049.39502 559.512146 1051.604126 559.096191 C 1049.69751 560.326721 1047.395874 560.834167 1045.127075 560.915405 C 1043.988281 560.887451 1042.845459 560.807861 1041.740845 560.533691 C 1040.668823 560.241272 1039.494995 559.935791 1038.679932 559.101318 Z"/>
        <path id="path89" fill="#ffffff" stroke="none" d="M 1039.529175 563.860352 C 1041.583374 565.07373 1043.888306 564.685852 1046.189087 564.601685 L 1049.606689 564.603333 C 1050.733398 564.645081 1051.842896 564.405396 1052.774536 563.684143 C 1052.142456 564.687927 1050.880371 565.311646 1049.714233 565.397461 C 1048.54834 565.524231 1047.349243 565.59375 1046.184204 565.64209 C 1045.00708 565.593384 1043.854126 565.706299 1042.664185 565.523682 C 1041.477539 565.310486 1040.297119 564.770447 1039.529175 563.860352 Z"/>
        <path id="path90" fill="#ffffff" stroke="none" d="M 1045.734619 569.01123 C 1048.752075 569.115906 1051.334961 568.727905 1054.19458 567.760803 C 1052.130005 570.019958 1048.363281 570.570435 1045.734619 569.01123 Z"/>
        <path id="path91" fill="#ffffff" stroke="none" d="M 1049.284546 572.042114 C 1051.547852 571.366333 1053.40332 570.829224 1055.684204 570.212463 C 1054.194214 572.062134 1051.525391 572.818298 1049.284546 572.042114 Z"/>
        <path id="path92" fill="#ffffff" stroke="none" d="M 1053.015869 574.53418 C 1053.784546 574.013306 1054.551636 573.829224 1055.310791 573.55249 C 1056.102539 573.390381 1056.851196 573.144592 1057.780396 573.190002 C 1057.207031 573.934204 1056.396606 574.265869 1055.593384 574.553711 C 1054.757568 574.727051 1053.893311 574.865417 1053.015869 574.53418 Z"/>
        <path id="path93" fill="#ffffff" stroke="none" d="M 1056.300049 576.309631 C 1056.828735 575.853271 1057.316284 575.737915 1057.805908 575.537537 C 1058.327515 575.449585 1058.80127 575.289185 1059.492554 575.402527 C 1059.206665 576.054932 1058.641602 576.320801 1058.089966 576.538391 C 1057.506226 576.642029 1056.88623 576.710815 1056.300049 576.309631 Z"/>
        <path id="path94" fill="#ffffff" stroke="none" d="M 1060.125488 579.265381 C 1060.3396 578.685059 1060.727539 578.463806 1061.102051 578.214966 C 1061.529175 578.074585 1061.942017 577.905823 1062.531738 578.101257 C 1062.319092 578.68457 1061.929932 578.903748 1061.555054 579.151733 C 1061.127441 579.290833 1060.713379 579.45752 1060.125488 579.265381 Z"/>
        <path id="path95" fill="#ffffff" stroke="none" d="M 210.974579 440.509216 C 211.143341 444.168762 211.789185 447.430481 213.008331 450.884583 C 210.508759 448.177917 209.688354 443.957947 210.974579 440.509216 Z"/>
        <path id="path96" fill="#ffffff" stroke="none" d="M 216.484161 435.999207 C 216.752075 437.732117 216.811249 439.389587 217.074585 441.045837 C 217.221252 442.717041 217.567505 444.338257 217.723328 446.085388 C 216.745422 444.612549 216.311676 442.889954 216.042084 441.172974 C 215.88916 439.441223 215.895416 437.665344 216.484161 435.999207 Z"/>
        <path id="path97" fill="#ffffff" stroke="none" d="M 224.140411 425.960876 C 224.256653 428.032104 224.191254 430.022888 224.35376 432.024536 C 224.397919 434.032471 224.669159 436.004944 224.762085 438.078369 C 223.827484 436.210449 223.47876 434.137146 223.314575 432.078003 C 223.268341 430.012451 223.405823 427.914612 224.140411 425.960876 Z"/>
        <path id="path98" fill="#ffffff" stroke="none" d="M 231.059998 417.642517 C 231.291656 419.875 231.313324 422.045837 231.543762 424.219177 C 231.655426 426.401733 231.974579 428.548767 232.089569 430.790405 C 231.131683 428.748352 230.739594 426.520874 230.506256 424.300049 C 230.39209 422.070374 230.435425 419.809143 231.059998 417.642517 Z"/>
        <path id="path99" fill="#ffffff" stroke="none" d="M 243.881653 407.943298 C 244.137085 410.22583 244.128326 412.45874 244.27832 414.698364 C 244.308746 416.942505 244.498749 419.167114 244.422913 421.463318 C 243.642487 419.294556 243.38916 417.012451 243.238739 414.740051 C 243.207916 412.462524 243.280823 410.167847 243.881653 407.943298 Z"/>
        <path id="path100" fill="#ffffff" stroke="none" d="M 256.909576 399.960876 C 257.03125 402.155884 257.013336 404.272156 257.262482 406.389526 C 257.394165 408.517517 257.790009 410.595886 258.056244 412.778809 C 256.962494 410.853394 256.480011 408.664612 256.226257 406.482117 C 256.0896 404.289185 256.178345 402.049927 256.909576 399.960876 Z"/>
        <path id="path101" fill="#ffffff" stroke="none" d="M 274.64624 392.35083 C 274.99292 394.630859 275.100403 396.867065 275.393341 399.099548 C 275.567078 401.344604 275.924164 403.554199 276.050842 405.85791 C 275.082092 403.754211 274.654175 401.479126 274.358337 399.207092 C 274.181671 396.922852 274.134583 394.608765 274.64624 392.35083 Z"/>
        <path id="path102" fill="#ffffff" stroke="none" d="M 295.117493 386.806641 C 295.687927 388.799622 295.859985 390.820374 296.062927 392.838745 C 296.145416 394.865845 296.259583 396.890808 295.970428 398.943787 C 295.396667 396.951233 295.226654 394.93042 295.024994 392.911743 C 294.943756 390.884583 294.831665 388.859619 295.117493 386.806641 Z"/>
        <path id="path103" fill="#ffffff" stroke="none" d="M 305.61084 385.389648 C 306.34668 386.789124 306.700012 388.302002 307.081238 389.803772 C 307.344604 391.330017 307.640015 392.855896 307.533752 394.434143 C 306.786255 392.997559 306.440826 391.508301 306.063324 390.02002 C 305.803741 388.506653 305.516266 387.004517 305.61084 385.389648 Z"/>
        <path id="path104" fill="#ffffff" stroke="none" d="M 318.302917 383.689148 C 319.611267 384.729553 320.495422 386.148376 321.243317 387.605835 C 321.883759 389.11377 322.409149 390.700867 322.366241 392.372925 C 321.570007 390.916626 321.023315 389.453308 320.300842 388.046692 C 319.684998 386.590393 318.914154 385.231201 318.302917 383.689148 Z"/>
        <path id="path105" fill="#ffffff" stroke="none" d="M 328.027069 384.705811 C 329.454163 385.862 330.594574 387.296631 331.753326 388.707031 C 332.816681 390.191223 333.909576 391.662537 334.653748 393.342163 C 333.189575 392.142944 332.073334 390.73584 330.927917 389.340759 C 329.87793 387.872498 328.809174 386.428406 328.027069 384.705811 Z"/>
        <path id="path106" fill="#ffffff" stroke="none" d="M 342.863739 382.672058 C 344.152924 384.111694 345.116669 385.782959 346.102509 387.433838 C 346.98291 389.142029 347.894165 390.842896 348.431244 392.700012 C 347.112488 391.214539 346.167908 389.572449 345.192505 387.938354 C 344.32251 386.246277 343.43042 384.574951 342.863739 382.672058 Z"/>
        <path id="path107" fill="#ffffff" stroke="none" d="M 353.628754 387.504639 C 354.832092 388.427917 355.654175 389.669983 356.409576 390.931274 C 357.05957 392.25 357.658752 393.613342 357.778351 395.126648 C 356.854156 393.932922 356.232513 392.657898 355.495422 391.428833 C 354.864166 390.14209 354.132904 388.92627 353.628754 387.504639 Z"/>
        <path id="path108" fill="#ffffff" stroke="none" d="M 360.873322 390.983398 C 361.888336 391.996704 362.550415 393.195007 363.239166 394.379211 C 363.821259 395.619141 364.431671 396.844543 364.68335 398.257874 C 363.665009 397.246216 363.005432 396.046631 362.317505 394.861633 C 361.736237 393.621216 361.128326 392.394592 360.873322 390.983398 Z"/>
        <path id="path109" fill="#ffffff" stroke="none" d="M 368.617096 392.651672 C 369.659576 393.742065 370.3479 395.014648 371.063324 396.272949 C 371.671234 397.586609 372.307495 398.885803 372.58374 400.369934 C 371.537903 399.28125 370.852081 398.007507 370.137909 396.748779 C 369.530823 395.434143 368.896667 394.134216 368.617096 392.651672 Z"/>
        <path id="path110" fill="#ffffff" stroke="none" d="M 377.73291 398.967041 C 378.447906 400.132935 378.869995 401.32373 379.421265 402.480347 C 379.862915 403.683289 380.420837 404.816223 380.750427 406.144653 C 379.68335 405.270813 379.030823 404.084229 378.462097 402.883728 C 378.00293 401.636719 377.614594 400.339966 377.73291 398.967041 Z"/>
        <path id="path111" fill="#ffffff" stroke="none" d="M 438.61557 361.401672 C 437.194244 361.89502 435.780304 361.989136 434.363373 362.114136 C 432.94101 362.118347 431.524536 362.153809 430.064331 361.786682 C 431.454529 361.291321 432.88855 361.19873 434.316589 361.074646 C 435.750031 361.070801 437.186554 361.036621 438.61557 361.401672 Z"/>
        <path id="path112" fill="#ffffff" stroke="none" d="M 433.544098 365.234192 C 432.039307 365.527893 430.604797 365.561584 429.164429 365.753723 C 427.713135 365.827087 426.29718 366.056641 424.763153 366.037048 C 426.07489 365.219543 427.57782 364.912964 429.069672 364.717529 C 430.572418 364.640381 432.105621 364.671631 433.544098 365.234192 Z"/>
        <path id="path113" fill="#ffffff" stroke="none" d="M 429.16275 369.760071 C 428.231415 370.069153 427.184967 370.203735 426.259888 370.285828 C 425.305237 370.406677 424.352539 370.486267 423.412598 370.667969 C 421.507721 370.892151 419.662781 371.344971 417.694702 371.63623 C 419.364777 370.53125 421.310699 369.987549 423.260345 369.638733 C 424.248077 369.537903 425.238403 369.439087 426.230743 369.488708 L 429.16275 369.760071 Z"/>
        <path id="path114" fill="#ffffff" stroke="none" d="M 423.486542 375.133667 C 421.544861 375.894958 419.537201 376.263 417.534546 376.661255 C 416.523712 376.791321 415.510468 376.959534 414.501617 377.053406 C 413.497498 377.165405 412.498749 377.246643 411.486237 377.473755 C 413.254181 376.264099 415.401337 376.068787 417.362213 375.634949 C 419.38504 375.357117 421.40274 375.048767 423.486542 375.133667 Z"/>
        <path id="path115" fill="#ffffff" stroke="none" d="M 418.651154 383.017944 C 416.702698 384.089233 414.474213 384.375793 412.36792 384.728821 C 410.222076 384.969666 408.16333 385.268738 406.024597 385.734131 C 407.853333 384.455017 410.107513 384.048767 412.225006 383.698303 C 414.387177 383.458374 416.475525 383.258728 418.651154 383.017944 Z"/>
        <path id="path116" fill="#ffffff" stroke="none" d="M 414.602661 391.642944 C 411.899994 392.216309 409.305847 392.886658 406.772095 393.852051 C 404.202484 394.705017 401.732513 395.846252 399.095825 396.699951 C 401.34082 395.074646 403.829987 393.860046 406.422913 392.871643 C 409.041656 391.998718 411.827087 391.357849 414.602661 391.642944 Z"/>
        <path id="path117" fill="#ffffff" stroke="none" d="M 412.206665 401.144958 C 409.370422 402.257446 406.535004 403.19751 403.78833 404.400818 C 402.387512 404.931702 401.031677 405.567871 399.657501 406.172485 C 398.303345 406.79126 396.932068 407.389099 395.886261 408.508362 C 396.62207 407.142456 397.982086 406.203369 399.292908 405.45874 C 400.612091 404.696228 401.99707 404.055481 403.391266 403.439636 C 406.22583 402.32959 409.164154 401.423706 412.206665 401.144958 Z"/>
        <path id="path118" fill="#ffffff" stroke="none" d="M 410.144165 411.264221 C 407.241241 412.353333 404.346252 413.303284 401.520844 414.468689 C 398.664581 415.554199 395.902496 416.838379 393.046265 418.028687 L 392.977509 417.930054 L 393.449585 417.615845 L 393.054993 418.022949 L 392.986237 417.923767 C 395.468323 416.052063 398.27124 414.670349 401.145416 413.510437 C 404.049591 412.430359 407.049591 411.555786 410.144165 411.264221 Z"/>
        <path id="path119" fill="#ffffff" stroke="none" d="M 410.104584 420.60376 C 408.441254 421.902161 406.639984 422.825806 404.845001 423.779602 C 402.996674 424.624939 401.169159 425.494934 399.125 426.022156 C 400.740845 424.74292 402.572906 423.807068 404.384583 422.846252 C 406.249573 421.993713 408.10791 421.111633 410.104584 420.60376 Z"/>
        <path id="path120" fill="#ffffff" stroke="none" d="M 409.962097 431.393005 C 408.323761 433.113281 406.861664 434.467896 405.006256 435.952942 C 405.660828 433.662476 407.629578 431.859619 409.962097 431.393005 Z"/>
        <path id="path121" fill="#ffffff" stroke="none" d="M 412.097076 437.122559 C 411.137085 438.547058 410.032501 439.746277 409.040009 441.060425 C 407.955414 442.299194 407.00708 443.625061 405.803741 444.852112 C 406.261261 443.18457 407.211243 441.752563 408.233337 440.40332 C 409.347931 439.129578 410.55957 437.911255 412.097076 437.122559 Z"/>
        <path id="path122" fill="#ffffff" stroke="none" d="M 414.790253 446.404968 C 413.674164 448.310791 411.895844 449.647095 410.504578 451.17627 C 409.00293 452.617981 407.921234 454.368408 406.922516 456.296204 C 407.087494 454.10376 408.246246 452.052124 409.756653 450.452881 C 411.342072 448.905396 413.061676 447.709595 414.790253 446.404968 Z"/>
        <path id="path123" fill="#ffffff" stroke="none" d="M 416.642944 453.640442 C 416.144165 455.070801 415.308594 456.286682 414.499908 457.517578 C 413.593323 458.677856 412.709991 459.860046 411.511658 460.787903 C 412.023743 459.333374 412.85083 458.132874 413.654572 456.910889 C 414.556458 455.759094 415.431335 454.592957 416.642944 453.640442 Z"/>
        <path id="path124" fill="#ffffff" stroke="none" d="M 420.069214 462.807922 C 419.376038 465.225769 418.323914 467.470459 417.299347 469.728271 C 416.166077 471.933289 415.061707 474.152588 413.592926 476.194946 C 414.282715 473.775391 415.337128 471.532104 416.362701 469.274963 C 417.496918 467.070435 418.603577 464.852478 420.069214 462.807922 Z"/>
        <path id="path125" fill="#ffffff" stroke="none" d="M 565.59668 653.778381 C 567.373718 656.169922 568.949585 658.283264 570.717896 660.681702 C 568.02417 659.394653 566.052063 656.725891 565.59668 653.778381 Z"/>
        <path id="path126" fill="#ffffff" stroke="none" d="M 559.810425 655.622009 C 560.817932 656.878357 561.357483 657.80542 561.928345 659.3125 C 560.360413 658.884644 559.394592 657.188721 559.810425 655.622009 Z"/>
        <path id="path127" fill="#ffffff" stroke="none" d="M 572.984985 653.773804 C 574.485413 656.568359 576.223755 658.741333 578.607056 660.833313 C 575.492493 660.063354 573.043762 656.978271 572.984985 653.773804 Z"/>
        <path id="path128" fill="#ffffff" stroke="none" d="M 581.227905 651.983337 C 582.973328 653.535767 584.367493 655.282532 585.79126 657.022522 C 586.422913 657.974182 587.193359 658.746643 588.015808 659.440063 C 588.83667 660.105835 589.817505 660.665466 590.980835 660.534973 C 589.912903 661.069153 588.544983 660.740845 587.555847 660.096313 C 586.534607 659.466614 585.69458 658.5979 585.005432 657.70459 C 583.648743 655.857544 582.262512 654.017456 581.227905 651.983337 Z"/>
        <path id="path129" fill="#ffffff" stroke="none" d="M 591.574585 649.490051 C 593.444153 651.273254 595.089172 653.188354 596.868774 654.994995 L 599.462097 657.775452 C 600.361267 658.661682 601.05542 659.805359 602.354187 660.036621 C 600.974609 660.209961 599.849609 659.11377 598.910034 658.355896 C 597.923767 657.530029 597.018311 656.616638 596.110413 655.707092 C 594.397095 653.794556 592.760437 651.792969 591.574585 649.490051 Z"/>
        <path id="path130" fill="#ffffff" stroke="none" d="M 601.885864 647.526245 C 604.397522 649.377869 606.800415 651.270874 609.39624 652.9104 C 610.655029 653.782959 611.977478 654.567505 613.291687 655.351318 C 614.591675 656.091614 615.977905 656.825439 617.55127 656.643738 C 616.044556 657.227539 614.323364 656.71875 612.92334 656.063416 C 611.495422 655.407104 610.15625 654.602112 608.824158 653.779541 C 606.248352 652.01001 603.806274 650.000793 601.885864 647.526245 Z"/>
        <path id="path131" fill="#ffffff" stroke="none" d="M 610.488342 643.761597 C 613.377075 645.657532 616.22998 647.499146 619.299988 648.9646 C 620.801636 649.749146 622.369568 650.44043 623.937073 651.047424 C 625.503357 651.623352 627.159607 652.074585 628.882935 651.837463 C 627.242493 652.462463 625.367065 652.285034 623.690857 651.810364 C 621.996643 651.334595 620.415833 650.627075 618.835815 649.895386 C 615.756226 648.293335 612.831665 646.321655 610.488342 643.761597 Z"/>
        <path id="path132" fill="#ffffff" stroke="none" d="M 618.49585 639.004944 C 622.220825 641.624146 626.01123 644.065796 630.087524 645.983276 C 632.0896 647.005005 634.169617 647.842468 636.328735 648.363831 C 638.47583 648.869141 640.762085 649.020447 642.952515 648.352478 C 640.900024 649.390442 638.450439 649.547119 636.170837 649.149658 C 633.87207 648.768799 631.706238 647.885437 629.632507 646.919189 C 625.542053 644.863281 621.674194 642.287903 618.49585 639.004944 Z"/>
        <path id="path133" fill="#ffffff" stroke="none" d="M 629.289185 632.328735 C 638.034546 634.72998 646.36377 638.724976 655.528748 638.232849 C 653.307068 638.730408 650.989563 638.848267 648.702087 638.653748 C 646.4104 638.469116 644.167053 637.947144 641.960022 637.362488 C 637.57959 636.034973 633.387939 634.298767 629.289185 632.328735 Z"/>
        <path id="path134" fill="#ffffff" stroke="none" d="M 637.696655 624.402527 C 644.169189 627.025024 650.807068 628.569214 657.770447 629.091187 C 650.841675 630.019531 643.498718 628.297852 637.696655 624.402527 Z"/>
        <path id="path135" fill="#ffffff" stroke="none" d="M 586.18457 170.85498 C 594.024597 160.700806 602.424561 149.99707 614.510803 143.071655 C 620.517944 139.664551 627.512939 137.633789 634.598328 137.807861 C 641.67041 138.00708 648.496277 140.336182 654.25293 144.034546 C 660.0625 147.681641 664.938354 152.648315 668.581665 158.362061 C 672.296265 164.078369 674.506653 170.606689 675.614136 177.160034 C 677.787476 190.386597 675.453735 203.777466 670.799561 215.912964 L 667.97168 214.070435 C 675.119568 207.338745 685.29541 204.948364 694.58374 206.197876 C 703.88501 207.400879 712.955017 212.352539 717.94165 220.449585 C 722.96167 228.52417 723.295837 238.70459 720.299561 247.35791 C 717.347107 256.033813 710.85376 263.726196 702.218323 266.89624 C 710.745422 263.449585 716.862488 255.641724 719.476685 247.0896 C 722.140015 238.545044 721.425842 228.770386 716.483765 221.383301 C 711.589172 213.966675 702.970398 209.622925 694.282898 208.777466 C 685.59375 207.881226 676.416687 210.466675 670.37915 216.559204 L 665.02417 221.962524 L 667.550415 214.716309 C 671.67041 202.898804 673.40625 190.073364 671.01001 178 C 669.793762 171.99585 667.605835 166.202148 664.168335 161.276733 C 660.783752 156.314575 656.306702 152.053711 651.173767 149.064575 C 646.080444 146.010864 640.262512 144.29248 634.520813 144.314209 C 628.782532 144.366211 623.087524 146.169556 618.071228 149.232422 C 607.922058 155.43335 600.234558 165.562134 592.890808 175.801636 L 586.18457 170.85498 Z"/>
        <path id="path136" fill="#ffffff" stroke="none" d="M 604.459595 499.059998 C 601.19751 500.604553 597.413757 500.948792 593.784973 500.644104 C 590.13623 500.295044 586.60376 499.449585 583.099976 498.523376 C 576.112488 496.611206 569.16748 493.917114 563.00293 489.634644 C 556.93335 485.377075 551.369141 479.579224 548.544189 472.197144 C 545.746277 464.960815 545.098755 456.672485 547.838745 448.914124 C 549.228333 445.059631 551.674561 441.508789 554.773315 438.702087 C 557.898743 435.926636 561.645813 433.964233 565.543762 432.827576 C 573.335449 430.445801 581.833313 431.305359 589.085388 434.164124 C 596.425415 437.027527 602.696228 441.305481 608.436646 446.337463 C 611.317078 448.900391 613.983337 451.883728 616.125427 455.411194 C 618.244995 458.932556 619.742493 463.181641 619.800842 467.632446 L 611.937073 466.160889 C 614.583313 459.745483 619.752502 454.9646 625.429565 451.987915 C 631.185852 448.959534 637.652893 447.869141 643.737915 447.810425 C 649.886658 447.761719 655.789185 448.671631 661.522949 449.89502 C 667.275818 451.185791 673.082092 452.909546 678.502075 455.779175 C 683.870422 458.609192 688.95874 462.702515 692.095825 468.206177 C 695.205383 473.564575 696.834167 480.014221 695.442078 486.219238 C 694.20459 492.509155 689.460022 497.460327 684.207886 500.032104 C 678.92749 502.767883 673.19165 503.81665 667.5625 504.761719 C 673.020447 503.080017 678.523315 501.270874 683.209167 498.301636 C 687.890015 495.381226 691.338745 490.768005 691.831665 485.590393 C 692.418762 480.454956 690.790405 475.143005 687.858337 470.872925 C 684.976257 466.568787 680.579163 463.488708 675.792114 461.205872 C 670.966248 458.951233 665.632935 457.629944 660.191223 456.697876 C 654.709167 455.775024 649.21582 455.073364 643.91748 455.30249 C 638.610413 455.516235 633.529602 456.629639 629.175842 459.044556 C 624.799988 461.394531 621.191284 464.973755 619.502502 469.227051 L 611.912476 488.342957 L 611.638733 467.755066 C 611.565002 462.242432 607.702942 456.891296 602.862915 452.469543 C 597.914185 448.023254 592.179138 444.070862 586.169556 441.689209 C 580.142517 439.312561 573.660828 438.54834 567.612915 440.151245 C 561.549194 441.651733 556.631653 445.73584 554.279968 451.422546 C 551.909607 457.114624 551.9646 464.02124 554.023743 470.192871 C 555.990845 476.402466 560.321655 481.825439 565.633728 486.117859 C 570.955383 490.426697 577.22168 493.761597 583.8396 496.234558 C 587.155396 497.464172 590.527466 498.621704 593.974182 499.288757 C 597.402527 499.978699 601.020813 500.173767 604.459595 499.059998 Z"/>
        <path id="path137" fill="#ffffff" stroke="none" d="M 685.10498 608.640503 C 690.462524 599.316711 696.164185 589.91626 704.505859 582.546692 C 708.652893 578.893311 713.483337 575.874634 718.873779 574.085815 C 724.227051 572.212524 730.20459 571.859558 735.767456 572.812988 C 746.750854 574.757935 757.5896 579.411621 765.580811 587.855469 C 773.526245 596.153687 778.059143 608.398376 775.32666 620.253296 L 770.75708 616.982971 C 796.813293 600.419556 832.587097 602.24707 856.914185 620.794983 C 858.477051 621.890808 859.92749 623.2229 861.159973 624.13501 C 862.434143 625.07251 863.521667 625.519592 865.120789 625.769226 C 868.269165 626.190857 872.255432 626.019592 875.821228 626.126648 L 897.793762 626.406677 C 912.44873 626.715759 927.112122 627.036743 941.804199 627.650024 C 927.162048 628.550781 912.490845 629.159607 897.810852 629.756714 L 875.781677 630.467529 C 872.02002 630.508728 868.6521 630.900024 864.49585 630.565063 C 862.446228 630.408264 859.995422 629.538269 858.2854 628.328735 L 853.747925 625.0495 C 830.832947 608.500854 797.88916 607.335815 773.993713 622.116272 L 767.730835 625.98999 L 769.423767 618.845398 C 771.643738 609.475403 768.290833 598.923279 761.546692 591.592957 C 754.768738 584.172119 745.082092 579.209595 735.008728 577.009155 C 729.97998 575.930847 724.860413 576.00293 719.929138 577.464966 C 714.998352 578.876709 710.374573 581.450806 706.158752 584.578369 C 697.69043 590.937866 691.441223 599.950439 685.10498 608.640503 Z"/>
        <path id="path138" fill="none" stroke="none" d="M 685.10498 608.640503 C 690.234619 600.731689 695.43042 592.741211 702.26709 586.250854 C 709.10376 579.760437 717.844604 574.814148 727.258728 574.329956 C 731.955444 574.088745 736.653748 574.957947 741.155457 576.318787 C 750.538757 579.155396 759.415833 584.304199 765.513306 591.979126 C 771.61084 599.654541 774.648743 610.014526 772.375 619.549622 C 797.905823 603.452515 833.54126 605.425415 857.138733 624.242981 C 858.617493 625.422119 860.080017 626.676208 861.824585 627.406616 C 863.929199 628.287537 866.274963 628.337036 868.556213 628.368286 C 892.973328 628.703369 917.398315 628.464172 941.804199 627.650024"/>
    </g>
</svg>
