<?xml version="1.0" encoding="UTF-8"?>
<!-- Generated by Pixelmator Pro 3.5.3 -->
<svg width="1450" height="699" viewBox="0 0 1450 699" xmlns="http://www.w3.org/2000/svg">
    <g id="Group">
        <path id="Path" fill="#ffffff" stroke="none" d="M 760.486206 270.85498 C 762.347168 271.01709 764.078369 271.635864 765.783813 272.292969 C 767.442505 273.060791 769.092041 273.872925 770.500366 275.10083 C 768.695068 274.641724 767.061279 273.899536 765.37793 273.250854 C 763.741333 272.491211 762.072876 271.830444 760.486206 270.85498 Z"/>
        <path id="path1" fill="#ffffff" stroke="none" d="M 761.5 277.291626 C 763.527588 277.646729 765.389648 278.48584 767.202148 279.391724 C 768.95752 280.40332 770.685791 281.492432 772.097534 282.991211 C 770.200439 282.209229 768.493408 281.199951 766.709106 280.307983 C 764.981689 279.310425 763.199951 278.439941 761.5 277.291626 Z"/>
        <path id="path2" fill="#ffffff" stroke="none" d="M 760.587524 286.501709 C 763.63501 287.229126 766.48999 288.54834 769.237061 290.026611 C 771.925415 291.609131 774.534546 293.365356 776.733765 295.5979 C 774.015015 294.05835 771.437988 292.392944 768.726196 290.932861 C 766.073364 289.369141 763.314575 288.025879 760.587524 286.501709 Z"/>
        <path id="path3" fill="#ffffff" stroke="none" d="M 761.071289 295.173706 C 764.772583 296.704956 768.14624 298.931274 771.292114 301.405884 C 774.363281 303.972534 777.239624 306.812866 779.498779 310.12085 C 776.589233 307.38501 773.742065 304.656616 770.636597 302.213745 C 767.606201 299.678711 764.350342 297.452881 761.071289 295.173706 Z"/>
        <path id="path4" fill="#ffffff" stroke="none" d="M 757.871216 304.432495 C 762.024536 307.139648 765.644165 310.613281 768.865479 314.387451 C 771.995728 318.237061 774.760742 322.424194 776.669556 327 C 774 322.838745 771.247925 318.782471 768.065918 315.053345 C 764.974609 311.249146 761.483765 307.807129 757.871216 304.432495 Z"/>
        <path id="path5" fill="#ffffff" stroke="none" d="M 753.313843 315.834595 C 761.418335 323.00293 767.002808 333.160034 768.696655 343.848389 C 765.585083 333.493774 760.38623 324.013794 753.313843 315.834595 Z"/>
        <path id="path6" fill="#ffffff" stroke="none" d="M 746.0896 326.256226 C 753.20459 334.286255 757.233276 345.171631 757.042603 355.900879 C 755.770508 345.259155 752.04834 335.165894 746.0896 326.256226 Z"/>
        <path id="path7" fill="#ffffff" stroke="none" d="M 736.433838 337.491699 C 741.825439 345.894531 743.844971 356.564087 741.878784 366.354614 C 742.386597 356.39624 740.541138 346.57959 736.433838 337.491699 Z"/>
        <path id="path8" fill="#ffffff" stroke="none" d="M 718.804932 349.089233 C 719.785767 353.786255 720.020386 358.60791 719.929565 363.402466 C 719.719971 368.193359 719.185425 372.991211 717.907471 377.616699 C 718.331665 372.84668 718.799561 368.122437 718.890015 363.369995 C 719.099609 358.62085 718.932129 353.876221 718.804932 349.089233 Z"/>
        <path id="path9" fill="#ffffff" stroke="none" d="M 704.844971 354.734131 C 706.391235 363.683716 703.843384 373.41333 698.094116 380.44751 C 702.611694 372.589966 704.926636 363.798828 704.844971 354.734131 Z"/>
        <path id="path10" fill="#ffffff" stroke="none" d="M 685.619141 357.127563 C 684.628296 361.543701 683.008789 365.78418 681.191284 369.92041 C 679.264526 374.00708 677.131226 378.01416 674.447144 381.658325 C 676.384644 377.575806 678.439209 373.59668 680.244507 369.489136 C 682.158813 365.431641 683.814575 361.270386 685.619141 357.127563 Z"/>
        <path id="path11" fill="#ffffff" stroke="none" d="M 663.044556 353.480835 C 661.920898 357.915771 659.939209 362.101196 657.580811 366.025391 C 655.12207 369.887085 652.261597 373.529175 648.79126 376.51123 C 651.62793 372.938721 654.368286 369.349976 656.696289 365.477539 C 659.124146 361.66748 661.116211 357.614624 663.044556 353.480835 Z"/>
        <path id="path12" fill="#ffffff" stroke="none" d="M 638.928833 341.466309 C 640.618286 352.114136 637.997925 363.535034 631.81958 372.373291 C 636.730835 362.790405 639.165894 352.23291 638.928833 341.466309 Z"/>
        <path id="path13" fill="#ffffff" stroke="none" d="M 616.825073 343.002075 C 620.378296 355.970459 619.015381 370.382935 613.076294 382.449097 C 617.660034 369.820801 618.95459 356.267944 616.825073 343.002075 Z"/>
        <path id="path14" fill="#ffffff" stroke="none" d="M 586.185425 348.711304 C 587.177856 355.390381 586.82373 362.327881 584.928345 368.895386 C 583.909546 372.153687 582.447144 375.294556 580.488281 378.09082 C 578.537964 380.892944 576.127441 383.35376 573.397461 385.344971 C 578.328369 380.747437 582.087524 374.99707 583.932983 368.592529 C 584.94165 365.418701 585.491699 362.109619 585.8396 358.78125 C 586.175049 355.449951 586.296631 352.085449 586.185425 348.711304 Z"/>
        <path id="path15" fill="#ffffff" stroke="none" d="M 344.036621 405.33374 C 340.20166 412.898315 337.714233 420.88208 336.554199 429.282471 C 336.267578 420.800415 338.978271 412.14624 344.036621 405.33374 Z"/>
        <path id="path16" fill="#ffffff" stroke="none" d="M 347.485352 416.861694 C 343.503784 423.19165 340.831177 430.032471 339.44873 437.380859 C 339.378296 429.893311 342.354614 422.312134 347.485352 416.861694 Z"/>
        <path id="path17" fill="#ffffff" stroke="none" d="M 351.798706 424.57959 C 350.617554 427.900024 349.376709 431.139526 348.447144 434.492432 C 347.40332 437.811279 346.684204 441.205078 345.864624 444.632935 C 345.824585 441.097046 346.504639 437.597046 347.449219 434.197144 C 348.507935 430.830811 349.844604 427.525879 351.798706 424.57959 Z"/>
        <path id="path18" fill="#ffffff" stroke="none" d="M 357.87793 433.166748 C 355.237915 439.612549 353.655396 446.219971 353.069214 453.160034 C 352.205444 446.241699 353.96875 438.937012 357.87793 433.166748 Z"/>
        <path id="path19" fill="#ffffff" stroke="none" d="M 365.457031 440.79126 C 364.835449 443.875488 364.070435 446.868774 363.556641 449.926636 C 362.925415 452.962524 362.552979 456.029541 362.007935 459.128784 C 361.687866 455.98877 362.01123 452.83374 362.53418 449.734619 C 363.174194 446.657104 364.02124 443.601196 365.457031 440.79126 Z"/>
        <path id="path20" fill="#ffffff" stroke="none" d="M 377.4729 449.345825 C 376.950439 452.205078 376.344116 454.980347 376.043335 457.817505 C 375.625366 460.639526 375.52002 463.477905 375.306641 466.377075 C 374.655396 463.530396 374.702026 460.57959 375.01123 457.686279 C 375.4375 454.807495 376.133301 451.940063 377.4729 449.345825 Z"/>
        <path id="path21" fill="#ffffff" stroke="none" d="M 392.739624 458.273315 C 392.518677 460.806274 392.15625 463.251709 392.051636 465.734985 C 391.829102 468.210815 391.868774 470.682129 391.75 473.222046 C 391.007446 470.7771 390.904541 468.203369 391.013794 465.66626 C 391.241211 463.136719 391.685059 460.600464 392.739624 458.273315 Z"/>
        <path id="path22" fill="#ffffff" stroke="none" d="M 408.562866 464.675415 C 408.879639 467.250488 408.891235 469.793823 409.024658 472.342163 C 409.037842 474.893311 409.174194 477.432861 409.001709 480.022461 C 408.312866 477.515381 408.11792 474.94043 407.984619 472.371704 C 407.972046 469.799561 408.022095 467.217529 408.562866 464.675415 Z"/>
        <path id="path23" fill="#ffffff" stroke="none" d="M 433.743774 470.221313 C 433.984619 473.089966 433.997559 475.913696 434.206299 478.740479 C 434.29541 481.573364 434.580444 484.38208 434.637085 487.260864 C 433.72583 484.521729 433.376709 481.655029 433.167114 478.794556 C 433.077515 475.928345 433.127563 473.04126 433.743774 470.221313 Z"/>
        <path id="path24" fill="#ffffff" stroke="none" d="M 457.104126 472.349609 C 457.501221 474.780884 457.637573 477.179565 457.939575 479.574585 C 458.122437 481.981689 458.470337 484.358398 458.563354 486.820801 C 457.622925 484.5354 457.20874 482.105835 456.904541 479.678711 C 456.719238 477.239624 456.642578 474.776611 457.104126 472.349609 Z"/>
        <path id="path25" fill="#ffffff" stroke="none" d="M 660.265381 583.92334 C 665.571289 587.47998 670.322144 591.827026 674.667114 596.515869 C 678.923706 601.285034 682.802979 606.425415 685.837891 612.046631 C 682.07666 606.897461 678.207886 601.869141 673.897095 597.21582 C 669.674561 592.48291 665.037109 588.152832 660.265381 583.92334 Z"/>
        <path id="path26" fill="#ffffff" stroke="none" d="M 654.99292 591.547852 C 660.161255 595.415771 664.707886 600.080444 668.792114 605.087524 C 672.783813 610.168823 676.341187 615.625488 678.979614 621.517944 C 675.582153 616.042847 672.030396 610.704224 667.97998 605.737549 C 664.022095 600.697021 659.592896 596.05957 654.99292 591.547852 Z"/>
        <path id="path27" fill="#ffffff" stroke="none" d="M 646.4375 598.722046 C 650.522461 603.099976 653.954956 608.05542 656.998779 613.214233 C 659.938721 618.432495 662.509644 623.88501 664.247925 629.615356 C 661.704956 624.205078 659.11792 618.85498 656.097046 613.733765 C 653.179932 608.552979 649.8479 603.631714 646.4375 598.722046 Z"/>
        <path id="path28" fill="#ffffff" stroke="none" d="M 634.868774 604.304199 C 638.203735 609.272949 640.68457 614.787964 642.610352 620.460815 C 644.423706 626.17041 645.69751 632.08252 645.953735 638.061646 C 644.838745 632.195435 643.528687 626.404541 641.62207 620.7854 C 639.827515 615.129639 637.451172 609.687988 634.868774 604.304199 Z"/>
        <path id="path29" fill="#ffffff" stroke="none" d="M 617.284546 610.79541 C 619.757935 615.121216 621.469971 619.849121 622.762085 624.66333 C 623.939575 629.506714 624.70874 634.476318 624.61084 639.458374 C 623.845459 634.546631 623.032471 629.685059 621.75415 624.920898 C 620.59082 620.127441 618.973389 615.470825 617.284546 610.79541 Z"/>
        <path id="path30" fill="#ffffff" stroke="none" d="M 596.744995 618.227539 C 597.590454 622.5625 597.795898 626.987061 597.78418 631.395386 C 597.652954 635.801758 597.305908 640.217529 596.31543 644.522095 C 596.446289 640.114624 596.732056 635.755005 596.744141 631.378418 C 596.876221 627.003784 596.735474 622.637085 596.744995 618.227539 Z"/>
        <path id="path31" fill="#ffffff" stroke="none" d="M 571.632935 620.067139 C 571.61084 624.484131 571.189575 628.890381 570.799194 633.294556 C 570.288818 637.686646 569.808716 642.087158 568.93042 646.415894 C 568.952515 641.96167 569.373779 637.57959 569.76416 633.188354 C 570.27417 628.809937 570.75415 624.43335 571.632935 620.067139 Z"/>
        <path id="path32" fill="#ffffff" stroke="none" d="M 537.686279 620.965332 C 537.369995 625.051636 536.661621 629.065796 535.983276 633.085449 C 535.186279 637.083252 534.420776 641.08667 533.25708 645.01709 C 533.570068 640.929932 534.280884 636.91626 534.959961 632.897095 C 535.757935 628.89917 536.525879 624.89624 537.686279 620.965332 Z"/>
        <path id="path33" fill="#ffffff" stroke="none" d="M 508.205078 617.745361 C 507.577026 622.114136 506.67041 626.4021 505.89917 630.72168 C 505.009521 635.018311 504.258789 639.335815 503.212891 643.624146 C 503.402466 639.211304 504.102539 634.857544 504.877563 630.524536 C 505.770874 626.214111 506.74292 621.91333 508.205078 617.745361 Z"/>
        <path id="path34" fill="#ffffff" stroke="none" d="M 472.171631 612.193726 C 470.574219 616.383301 468.938721 620.511719 467.64209 624.765869 C 466.231689 628.983765 465.171631 633.295776 464.039185 637.63501 C 464.318359 633.14917 465.340088 628.743774 466.650879 624.449219 C 468.075439 620.190796 469.800415 616.010864 472.171631 612.193726 Z"/>
        <path id="path35" fill="#ffffff" stroke="none" d="M 78.148743 499.65625 C 72.029968 507.92749 67.537537 517.12085 64.75293 527.024536 C 66.119995 516.821167 70.934998 506.998291 78.148743 499.65625 Z"/>
        <path id="path36" fill="#ffffff" stroke="none" d="M 81.654175 509.733276 C 79.241272 513.442505 76.856262 517.115356 74.828735 521.003662 C 72.697083 524.835815 70.943359 528.848389 69.168762 532.9021 C 70.123352 528.568726 71.860413 524.442505 73.912903 520.51001 C 76.070007 516.634155 78.562927 512.915771 81.654175 509.733276 Z"/>
        <path id="path37" fill="#ffffff" stroke="none" d="M 88.383362 517.911621 C 86.462524 521.878296 84.54541 525.796631 82.990417 529.878784 C 81.325012 533.917114 80.037048 538.084106 78.712097 542.28833 C 79.19165 537.895386 80.449585 533.621704 82.023315 529.494995 C 83.707947 525.412109 85.723755 521.44043 88.383362 517.911621 Z"/>
        <path id="path38" fill="#ffffff" stroke="none" d="M 99.568298 525.231689 C 98.402954 529.493286 96.872498 533.608276 95.668762 537.813721 C 94.349609 541.988281 93.362488 546.22998 92.592102 550.57373 C 92.499573 546.141235 93.455017 541.752075 94.672485 537.513672 C 96.00708 533.297119 97.602539 529.184937 99.568298 525.231689 Z"/>
        <path id="path39" fill="#ffffff" stroke="none" d="M 110.700012 529.07666 C 110.606628 533.128784 110.121216 537.107544 109.665405 541.094116 C 109.089966 545.064941 108.546631 549.036255 107.599182 552.977905 C 107.685425 548.952515 108.175415 544.956665 108.633728 540.960449 C 109.21167 536.979614 109.759583 532.991211 110.700012 529.07666 Z"/>
        <path id="path40" fill="#ffffff" stroke="none" d="M 127.96875 528.380371 C 128.342102 532.910889 128.374573 537.451294 128.39917 541.989624 C 128.354614 546.527954 128.286682 551.067871 127.894592 555.594971 L 127.717102 555.60376 L 127.651672 554.360352 L 127.893738 555.581665 L 127.716248 555.590454 C 127.378723 551.047119 127.36499 546.516235 127.375 541.983765 C 127.453735 537.451294 127.540833 532.920898 127.96875 528.380371 Z"/>
        <path id="path41" fill="#ffffff" stroke="none" d="M 146.876648 524.248291 C 147.852905 528.029541 148.325867 531.897949 148.717529 535.766235 C 148.98877 539.645386 149.180847 543.537842 148.856628 547.429932 C 148.315857 543.56543 148.06958 539.70752 147.680847 535.85498 C 147.411682 531.992065 147.00293 528.147949 146.876648 524.248291 Z"/>
        <path id="path42" fill="#ffffff" stroke="none" d="M 186.622559 549.535034 C 185.674194 554.497925 184.344604 559.342896 183.044189 564.197876 C 181.627563 569.02002 180.242065 573.849121 178.464233 578.579102 C 179.405396 573.62793 180.739624 568.775391 182.04248 563.916626 C 183.461182 559.089966 184.851196 554.253784 186.622559 549.535034 Z"/>
        <path id="path43" fill="#ffffff" stroke="none" d="M 192.69165 560.354614 C 191.278809 565.02417 189.857544 569.648315 188.819214 574.378784 C 187.664185 579.08252 186.901245 583.859131 186.104614 588.672485 C 186.038818 583.78418 186.756226 578.915894 187.805786 574.143311 C 188.971191 569.397461 190.478271 564.713379 192.69165 560.354614 Z"/>
        <path id="path44" fill="#ffffff" stroke="none" d="M 200.457886 570.302124 C 200.315063 574.917114 199.776245 579.48291 199.267944 584.052124 C 198.640015 588.606689 198.043701 593.165405 197.045776 597.673706 C 197.184937 593.05835 197.726196 588.49292 198.235474 583.92334 C 198.864624 579.369141 199.463379 574.810913 200.457886 570.302124 Z"/>
        <path id="path45" fill="#ffffff" stroke="none" d="M 214.491699 579.630371 C 214.36377 583.798706 213.842529 587.900024 213.351196 592.007568 C 212.740845 596.099121 212.161743 600.192505 211.179932 604.246216 C 211.302124 600.094971 211.827026 595.982544 212.320435 591.868774 C 212.932861 587.77124 213.515869 583.667114 214.491699 579.630371 Z"/>
        <path id="path46" fill="#ffffff" stroke="none" d="M 232.591187 587.26709 C 232.795776 591.325806 232.602051 595.373291 232.438354 599.420776 C 232.154541 603.461304 231.9021 607.505859 231.246704 611.51709 C 231.039185 607.445068 231.234985 603.405884 231.399536 599.363281 C 231.684204 595.327026 231.938354 591.29126 232.591187 587.26709 Z"/>
        <path id="path47" fill="#ffffff" stroke="none" d="M 259.938721 592.11792 C 260.309082 596.380371 260.280884 600.662476 260.282959 604.94043 C 260.164551 609.216675 260.077881 613.497925 259.587036 617.748291 C 259.213257 613.455444 259.243774 609.192871 259.242432 604.92627 C 259.362061 600.660889 259.451294 596.39917 259.938721 592.11792 Z"/>
        <path id="path48" fill="#ffffff" stroke="none" d="M 294.775879 591.04834 C 295.671265 593.546631 296.044189 596.16748 296.308716 598.785034 C 296.453735 601.412109 296.493774 604.059204 295.992065 606.665405 C 295.628296 604.042969 295.532959 601.454102 295.271729 598.865845 C 295.130005 596.268311 294.825806 593.694946 294.775879 591.04834 Z"/>
        <path id="path49" fill="#ffffff" stroke="none" d="M 694.119995 496.112549 C 691.78418 496.571655 689.438721 496.495483 687.20874 496.911255 C 684.965454 497.223389 682.82666 497.972168 680.938354 499.38916 C 682.230835 497.317017 684.716675 496.295776 687.046265 495.883789 C 689.442139 495.569214 691.792114 495.716187 694.119995 496.112549 Z"/>
        <path id="path50" fill="#ffffff" stroke="none" d="M 690.189941 503.019531 C 684.130005 504.602905 678.584961 507.077515 673.349609 510.51416 C 677.656616 505.954224 683.921631 503.172974 690.189941 503.019531 Z"/>
        <path id="path51" fill="#ffffff" stroke="none" d="M 688.129639 512.116699 C 678.468262 517.322144 669.954956 524.189575 662.809204 532.517456 C 668.800049 523.315796 677.868286 516.017944 688.129639 512.116699 Z"/>
        <path id="path52" fill="#ffffff" stroke="none" d="M 687.226685 522.30835 C 682.969604 526.63623 678.837524 531.037476 675.12793 535.799194 C 671.324585 540.487061 667.969238 545.505371 664.708252 550.625854 C 667.212891 545.083374 670.571655 539.95166 674.313354 535.151611 C 678.148315 530.425415 682.392944 525.999634 687.226685 522.30835 Z"/>
        <path id="path53" fill="#ffffff" stroke="none" d="M 688.494141 536.719238 C 684.250488 541.594604 680.281738 546.660767 676.922485 552.137451 C 673.463379 557.552124 670.641235 563.335449 668.105469 569.280762 C 669.828369 563.035889 672.647095 557.11499 676.040405 551.585449 C 679.533691 546.118408 683.630859 540.998779 688.494141 536.719238 Z"/>
        <path id="path54" fill="#ffffff" stroke="none" d="M 693.63208 550.832153 C 690.32959 557.020386 686.72168 563.025879 683.912842 569.403809 C 680.999634 575.7229 678.91333 582.425049 678.252075 589.415771 C 678.043335 582.356689 680.126221 575.390869 682.964233 568.976685 C 685.919189 562.571655 689.601196 556.567871 693.63208 550.832153 Z"/>
        <path id="path55" fill="#ffffff" stroke="none" d="M 700.530396 562.290039 C 694.352051 574.037476 690.68457 586.853394 689.694092 600.087891 C 689.233765 586.81665 693.114624 573.303711 700.530396 562.290039 Z"/>
        <path id="path56" fill="#ffffff" stroke="none" d="M 710.942017 572.844971 C 706.842041 584.627441 704.998779 596.969116 705.459229 609.435425 C 703.55835 597.100342 705.515381 584.082153 710.942017 572.844971 Z"/>
        <path id="path57" fill="#ffffff" stroke="none" d="M 725.611206 585.891235 C 725.988403 591.293823 725.89502 596.709229 725.965332 602.089966 C 725.959961 607.46582 726.318726 612.828369 727.80127 618.042969 C 726.681641 615.57373 725.94751 612.922485 725.532104 610.229126 C 725.104126 607.5354 724.990845 604.80957 724.924927 602.099976 C 724.976685 596.67749 725.130493 591.29126 725.611206 585.891235 Z"/>
        <path id="path58" fill="#ffffff" stroke="none" d="M 743 596.984131 C 742.889648 601.575073 742.935059 606.12207 743.535889 610.628784 C 744.019897 615.14917 745.054565 619.577148 746.24585 624.012085 C 744.237061 619.864624 743.110352 615.325806 742.502441 610.75293 C 742.011597 606.165771 742.03418 601.489624 743 596.984131 Z"/>
        <path id="path59" fill="#ffffff" stroke="none" d="M 767.0625 609.071655 C 768.553833 616.72998 769.322021 624.505371 773.331299 631.280884 C 770.661987 628.365845 769.176758 624.539185 768.236694 620.741699 C 767.39917 616.890015 767.019653 612.984131 767.0625 609.071655 Z"/>
        <path id="path60" fill="#ffffff" stroke="none" d="M 793.211548 618.420898 C 795.149658 625.441284 798.246216 631.869995 802.51123 637.772095 C 797.150024 632.829956 793.726685 625.692139 793.211548 618.420898 Z"/>
        <path id="path61" fill="#ffffff" stroke="none" d="M 823.703735 625.782104 C 824.95874 628.349121 826.034546 630.930054 827.340454 633.415894 C 828.539673 635.954956 829.953735 638.366211 831.244629 640.915771 C 829.243286 638.861328 827.734131 636.40625 826.40918 633.879639 C 825.190796 631.299927 824.142456 628.615845 823.703735 625.782104 Z"/>
        <path id="path62" fill="#ffffff" stroke="none" d="M 855.374146 629.548828 C 857.902832 634.452026 860.86084 638.83667 864.444946 643.029541 C 859.888672 639.90918 856.554199 634.94165 855.374146 629.548828 Z"/>
        <path id="path63" fill="#ffffff" stroke="none" d="M 886.704956 630.85083 C 888.359985 632.430786 889.672485 634.216675 891.012573 635.989136 C 892.254639 637.831665 893.519165 639.651245 894.473389 641.731689 C 892.838257 640.185425 891.513306 638.37793 890.165771 636.59375 C 888.916626 634.739136 887.640015 632.897461 886.704956 630.85083 Z"/>
        <path id="path64" fill="#ffffff" stroke="none" d="M 1203.072998 432.922119 C 1206.37793 430.051636 1210.211182 427.8396 1214.19043 426.012939 C 1218.217041 424.294189 1222.430664 422.939941 1226.778809 422.42627 C 1222.630371 423.783325 1218.539063 425.160889 1214.611572 426.964233 C 1210.63623 428.65918 1206.864258 430.76001 1203.072998 432.922119 Z"/>
        <path id="path65" fill="#ffffff" stroke="none" d="M 1215.7146 433.505005 C 1222.361328 427.262939 1231.189697 423.2229 1240.261963 422.292114 C 1231.45752 424.645386 1223.255371 428.38501 1215.7146 433.505005 Z"/>
        <path id="path66" fill="#ffffff" stroke="none" d="M 1225.80957 434.633301 C 1229.543701 432.143677 1233.42627 429.973389 1237.368408 427.833252 C 1239.38501 426.85083 1241.44165 425.887085 1243.631836 425.281616 C 1245.806641 424.645752 1248.115479 424.408691 1250.34082 424.689209 C 1245.849121 424.93457 1241.755371 426.697876 1237.843018 428.759155 C 1233.882568 430.771606 1229.942627 432.90332 1225.80957 434.633301 Z"/>
        <path id="path67" fill="#ffffff" stroke="none" d="M 1234.387939 436.234985 C 1239.689697 434.337891 1244.47168 431.252441 1250.053467 429.772461 C 1255.60791 428.378784 1261.317627 428.185059 1266.94751 428.398804 C 1261.341797 429.047852 1255.695557 429.30542 1250.317871 430.778809 C 1244.925781 432.068359 1239.983643 435.140381 1234.387939 436.234985 Z"/>
        <path id="path68" fill="#ffffff" stroke="none" d="M 1247.205811 439.421265 C 1251.920166 436.343262 1257.492676 434.793701 1263.01709 433.911255 C 1268.587402 433.137085 1274.19458 432.956299 1279.78125 433.203369 C 1268.690918 434.30249 1257.422119 434.672974 1247.205811 439.421265 Z"/>
        <path id="path69" fill="#ffffff" stroke="none" d="M 1257.60498 444.2229 C 1269.380371 439.159546 1282.910889 437.929565 1295.404053 440.804565 C 1282.673828 439.361694 1269.869141 440.512939 1257.60498 444.2229 Z"/>
        <path id="path70" fill="#ffffff" stroke="none" d="M 1267.63501 450.4021 C 1273.894531 448.469971 1280.482422 447.669189 1287.044189 447.603394 C 1293.605713 447.655029 1300.195801 448.44043 1306.45874 450.36377 C 1300.011963 449.287476 1293.54126 448.579102 1287.044922 448.643799 C 1280.549316 448.59082 1274.078613 449.30957 1267.63501 450.4021 Z"/>
        <path id="path71" fill="#ffffff" stroke="none" d="M 1275.955322 457.648315 C 1282.158691 456.82251 1288.439941 456.737549 1294.69165 456.997437 C 1297.81543 457.191284 1300.937012 457.442139 1304.03833 457.857544 C 1307.119629 458.259521 1310.331299 458.831665 1313.029297 460.474609 C 1310.161621 459.185913 1307.038818 458.921631 1303.952148 458.654175 C 1300.849121 458.405396 1297.748291 458.148315 1294.63916 458.036621 C 1288.42627 457.657471 1282.206787 457.679565 1275.955322 457.648315 Z"/>
        <path id="path72" fill="#ffffff" stroke="none" d="M 1280.79541 464.843262 C 1287.154053 465.159668 1293.450439 466.290894 1299.636963 467.796631 C 1302.694092 468.621582 1305.85376 469.448364 1308.653809 471.119507 C 1311.454102 472.776245 1313.721191 475.064575 1315.914063 477.353394 C 1313.458252 475.342529 1311.014648 473.282104 1308.261719 471.818359 C 1305.507813 470.361694 1302.455078 469.549561 1299.381348 468.805054 C 1293.260742 467.19165 1287.045898 466.01123 1280.79541 464.843262 Z"/>
        <path id="path73" fill="#ffffff" stroke="none" d="M 1284.954834 477.19043 C 1290.424316 477.404541 1295.834229 478.480835 1301.104492 479.9646 C 1306.341309 481.562988 1311.476318 483.579224 1316.192383 486.357544 C 1311.106689 484.362427 1306.036133 482.434937 1300.811523 480.963379 C 1295.62085 479.377075 1290.3125 478.256226 1284.954834 477.19043 Z"/>
        <path id="path74" fill="#ffffff" stroke="none" d="M 1284.27124 490.275024 C 1293.027832 490.324585 1301.838867 494.271606 1307.693604 500.787109 C 1300.841553 495.359985 1292.882813 491.78125 1284.27124 490.275024 Z"/>
        <path id="path75" fill="#ffffff" stroke="none" d="M 1277.358643 500.634521 C 1282.861816 502.357422 1287.695801 506.391235 1290.361572 511.50708 C 1286.506348 507.227539 1282.25708 503.66626 1277.358643 500.634521 Z"/>
        <path id="path76" fill="#ffffff" stroke="none" d="M 429.785034 637.649658 C 416.7229 631.999146 406.25708 622.082886 398.644165 610.818726 C 391.03833 599.474609 385.804932 586.832153 382.928711 573.6604 C 380.178345 560.539551 380.23291 546.31665 385.808716 533.910767 C 391.20752 521.686646 401.929565 511.38916 415.032471 508.763794 C 402.097534 512.091309 392.292114 522.740479 387.730835 534.713745 C 383.040405 546.827026 383.705811 560.325439 386.982544 572.698364 C 390.38208 585.126221 396.081299 597.003418 403.725464 607.179199 C 411.383789 617.326172 421.371582 625.6521 432.890015 629.91626 L 429.785034 637.649658 Z"/>
        <path id="path77" fill="#ffffff" stroke="none" d="M 759.187012 177.383301 C 781.199951 174.638794 803.734131 186.540405 813.852539 205.750854 C 823.904175 225.002075 820.664185 249.873779 806.487915 265.699585 C 820.142822 249.415894 822.268311 224.828369 812.023315 206.747925 C 801.771606 188.666626 779.834229 178.269165 759.777954 181.507935 L 759.187012 177.383301 Z"/>
        <path id="path78" fill="#ffffff" stroke="none" d="M 641.34082 187.405884 C 634.570435 189.804565 626.775024 187.375854 621.206665 182.827881 C 615.502441 178.134155 612.330811 170.98584 611.110474 163.874146 C 608.819214 149.418701 612.817505 134.736694 619.953735 122.283325 C 627.329956 109.910034 638.41626 99.627075 651.722534 94.015869 C 658.34375 91.242065 665.629517 89.633789 672.854126 90.337891 C 679.983765 91.157959 687.034546 94.20166 691.615356 99.617554 C 686.381226 94.902954 679.509155 92.505371 672.71167 92.375366 C 665.900024 92.117554 659.150024 93.970459 653.034546 96.940063 C 640.746216 102.925049 630.444214 112.668335 623.540405 124.398682 C 616.720825 136.07959 612.857056 149.93042 614.266724 163.408813 C 615.042969 170.066284 617.59375 176.69751 622.553711 181.30835 C 627.331299 186.00415 634.384155 188.852051 641.34082 187.405884 Z"/>
        <path id="path79" fill="#ffffff" stroke="none" d="M 625.805054 185.356201 C 618.096313 183.568726 610.094238 182.675049 602.447998 184.104126 C 594.799194 185.340454 587.776733 189.217041 582.9104 195.061646 C 578.09082 200.887085 574.829102 208.087891 574.067505 215.614136 C 573.282471 223.10498 574.840454 230.818359 578.17749 237.627075 C 581.390381 244.505859 586.2146 250.686646 592.176636 255.479126 C 598.126709 260.344116 605.13501 263.81665 612.457886 266.351196 C 619.806641 268.845825 627.594971 270.213745 635.413696 270.491211 C 643.226685 270.883789 651.161743 269.891235 658.577515 267.009521 C 651.532104 270.768799 643.407471 272.247925 635.400391 272.533691 C 627.361694 272.66626 619.296753 271.633789 611.500366 269.410034 C 595.958252 265.08252 581.559937 254.453735 574.415039 239.405029 C 570.904175 231.93042 569.30542 223.467041 570.30835 215.175781 C 571.332886 206.936646 574.848389 198.984985 580.532471 192.93457 C 586.138794 186.811279 594.07251 182.943359 602.156738 182.094604 C 610.267944 181.297119 618.34375 182.672974 625.805054 185.356201 Z"/>
        <path id="path80" fill="#ffffff" stroke="none" d="M 332.03125 430.779541 C 317.678345 429.706299 301.964111 434.168335 292.69873 445.320435 C 283.36499 456.372559 282.54126 473.42749 288.702881 486.964111 C 294.922119 500.729614 307.59668 511.121216 321.71167 517.159912 C 335.977905 523.27832 351.752075 525.362915 367.34082 526.012451 C 351.73999 526.046631 335.823364 524.69873 320.932983 519.092163 C 306.212036 513.527954 292.418701 503.440918 284.94165 488.756226 C 281.275879 481.450806 279.391602 473.218384 279.67749 464.92627 C 279.949951 456.663818 282.610474 448.239624 287.790894 441.450806 C 292.904175 434.616699 300.168701 429.693359 307.929199 426.632935 C 315.726685 423.563721 324.108765 422.202148 332.489624 422.45874 L 332.03125 430.779541 Z"/>
        <path id="path81" fill="#ffffff" stroke="none" d="M 692.820068 483.019165 C 690.202881 475.972534 685.330811 469.740479 679.431641 464.476318 C 673.52124 459.189941 666.645386 454.778687 659.501709 450.785889 C 652.365356 446.815796 644.9646 443.367554 637.242065 441.19043 C 629.545776 439.013306 621.471313 438.193726 613.692871 439.605347 C 598.054199 442.421631 584.364502 453.758789 576.827148 468.037476 C 569.175049 482.476685 567.217896 499.599609 569.189209 515.963379 L 569.432007 517.980469 L 567.892456 516.696289 C 555.930786 506.719604 536.28418 507.210449 524.647949 518.231689 C 535.904663 506.834106 555.87085 505.370361 568.897949 515.449097 L 567.602051 516.182129 C 565.054199 499.64624 566.378296 482.011719 573.898315 466.549561 C 581.362915 451.244995 595.397461 438.513794 612.729126 434.732056 C 621.351196 432.863403 630.328369 433.497925 638.715454 435.571655 C 647.139648 437.64502 655.078735 441.04541 662.638306 444.921631 C 670.17041 448.810791 677.597046 453.191284 684.331665 458.808716 C 691.026245 464.390381 697.061646 471.424194 700.574951 479.968384 L 692.820068 483.019165 Z"/>
        <path id="path82" fill="#ffffff" stroke="none" d="M 616.069946 75.584595 C 608.167114 80.472046 600.780884 86.242065 594.44165 93.016235 C 588.113281 99.776245 582.858276 107.601318 579.568359 116.240356 C 576.291626 124.850464 575.196655 134.296265 576.467896 143.4021 C 577.724976 152.484131 581.526245 161.311646 587.911621 167.875366 L 589.46582 169.473389 L 587.227539 169.432983 C 564.650391 169.024536 541.93457 173.19043 521.212524 182.095459 C 500.506592 190.914551 481.914551 205.0896 469.212524 223.576294 C 456.550781 241.998779 450.939575 264.920044 452.615845 287.053711 C 454.20874 309.124146 463.792969 331.00293 480.997559 344.752441 L 487.564575 350.000854 L 479.095825 349.701294 C 463.467896 349.147949 447.887939 348.64624 432.46875 349.629639 C 417.07959 350.604126 401.80127 353.12793 387.602905 358.537109 C 373.556641 363.89917 360.707886 372.64624 350.950439 383.907471 C 341.22583 395.120483 334.756226 409.205811 334.647095 423.726685 L 334.606201 429.145386 L 329.24292 427.972534 C 313.527466 424.536255 297.884644 421.230835 282.185425 419.717529 C 266.536255 418.179199 250.723755 418.602051 235.875 422.414917 C 221.220459 426.379639 207.270874 434.125854 196.91333 444.919189 C 186.48877 455.629639 180.684204 470.13916 183.142456 484.41748 L 184.861206 494.401245 L 175.5625 490.176636 C 155.563354 481.091675 133.056274 477.256592 111.255432 479.415039 C 100.469604 480.530396 89.921265 483.430908 81.474182 489.22583 C 73.157959 494.789551 67.143738 504.027466 66.021667 513.550781 C 65.437073 518.324951 66.265808 522.911255 68.382935 527.212036 C 70.435852 531.563721 73.828308 535.517944 77.62793 538.976685 C 81.456238 542.445435 85.909546 545.335815 90.59375 547.560791 C 92.924988 548.717896 95.356689 549.567139 97.778748 550.338745 C 100.308777 550.992065 102.441284 551.489136 105.287903 551.731201 C 126.946655 554.151611 149.419556 549.919189 168.640015 539.692993 L 179.506226 533.911621 L 176.80127 545.94165 C 175.864624 550.106689 175.70752 554.862549 175.969604 559.545044 C 176.108765 561.88916 176.367065 564.255371 176.744141 566.491577 C 176.962036 567.678345 177.114136 568.492065 177.44165 569.48999 C 177.766235 570.567017 178.155396 571.631226 178.567505 572.686279 C 180.227905 576.905396 182.534546 580.911255 185.307495 584.459229 C 188.042114 587.960815 191.506714 590.984985 195.296631 593.81958 C 210.614624 604.892944 230.189575 610.729614 249.513306 614.335815 C 268.881226 617.75708 288.907104 617.678345 308.183716 613.877441 C 327.44751 610.089233 345.9729 602.482422 361.89917 591.126709 L 365.609619 588.481323 L 368.80127 591.723755 C 378.727051 601.80835 390.212891 610.345337 402.773804 617.058716 C 415.347534 623.749634 428.827026 628.85083 442.74585 632.541626 C 470.615845 640.003784 499.829102 642.454102 529.012085 643.422852 C 543.609985 643.846313 558.342896 643.967041 572.95459 643.9104 C 587.560425 643.79541 602.109985 643.18457 616.428345 641.300781 C 630.712891 639.382446 644.824097 636.176636 657.819214 630.498779 C 670.807495 624.875 682.489624 616.508789 691.232056 605.538696 L 693.174194 603.101685 L 696.016235 604.309204 C 724.104492 616.246704 753.299927 625.602539 783.105469 632.317139 C 812.902588 639.09082 843.345337 643.067139 873.907471 644.23584 C 904.464233 645.443359 935.147461 644.008301 965.467407 639.776733 C 980.54126 637.453369 995.799072 634.81543 1010.444092 631.155029 C 1014.023682 630.133789 1017.469604 628.8396 1020.537598 627.036255 C 1023.545776 625.231201 1026.297119 622.796265 1027.85498 619.95459 C 1029.387573 617.008301 1030.094971 613.463379 1029.574585 610.177979 C 1029.088379 606.891235 1027.325806 603.991577 1024.540405 602.656738 L 1011.908691 596.602539 L 1025.750488 598.595459 C 1065.991699 604.388794 1106.961304 605.05249 1147.42041 600.924561 C 1157.526611 599.821289 1167.692017 598.786621 1177.457031 596.482544 C 1187.149658 594.157104 1196.813232 590.529541 1203.89624 583.727905 C 1207.366211 580.31665 1210.422119 576.36499 1211.572021 571.786255 C 1212.776367 567.187012 1212.514648 562.187012 1211.164307 557.557983 C 1209.807861 552.937866 1207.277588 548.573242 1203.67334 545.552002 C 1200.089111 542.498291 1195.30127 541.29126 1190.844238 542.580811 L 1190.47998 539.30127 C 1246.512451 541.66748 1302.763428 538.432007 1358.125732 529.67041 L 1368.451172 527.958374 C 1371.797607 527.311646 1375.10083 526.394165 1378.336182 525.303345 C 1384.78125 523.08667 1391.030762 520.108765 1396.358643 516.072876 C 1401.625 512.10498 1406.136963 506.746704 1406.690918 500.69043 C 1406.990723 497.720459 1406.30835 494.615845 1404.945068 491.877441 C 1403.628662 489.134155 1401.418213 486.879639 1398.863037 485.040894 C 1393.628418 481.425415 1386.984131 479.598755 1380.339111 478.783691 C 1373.581787 477.980835 1366.67334 477.892456 1359.85791 478.362061 C 1346.20459 479.356689 1332.755859 482.892944 1320.42041 488.717529 L 1315.919189 490.842896 L 1315.847168 485.844116 C 1315.643311 471.682495 1308.652588 458.219604 1298.486328 448.23291 C 1288.30957 438.178711 1275.124512 431.060425 1261.19165 428.002075 C 1247.072021 424.902954 1232.306152 425.242065 1217.874756 427.610352 C 1203.405273 429.978271 1189.205078 434.281616 1175.213379 439.287476 L 1164.959229 442.956177 L 1169.823364 433.199951 C 1173.56958 425.686279 1171.157471 415.923706 1165.469238 408.783691 C 1162.659912 405.182861 1159.104492 402.105835 1155.141357 400.005859 C 1151.061646 397.839111 1146.464478 396.412476 1141.76123 395.484985 C 1132.254517 393.729126 1122.163818 394.127563 1111.954224 394.900879 C 1101.679199 395.703369 1091.377441 396.618774 1081.107422 397.652954 C 1040.00708 401.811646 999.146606 408.075806 958.575806 415.814087 L 950.467529 417.36084 L 953.258423 409.66748 C 957.391724 398.272095 956.387451 385.238281 951.64502 373.759644 C 946.924561 362.249146 938.64624 352.051636 928.204224 345.313354 C 917.640747 338.476685 905.130859 334.745361 892.395386 333.766235 C 879.634644 332.770874 866.622192 334.422974 854.286255 338.164551 L 823.825073 347.40332 L 850.955444 330.882568 C 869.090332 319.839111 883.5 302.158691 889.328369 281.650391 C 892.239136 271.440796 892.911987 260.595459 890.89624 250.187866 C 888.938721 239.79541 884.192505 229.92041 877.757935 221.38623 C 864.703369 204.221191 844.56665 193.398315 823.594971 187.616211 C 802.481689 181.760864 780.171143 180.282104 758.22583 181.935425 L 752.279541 182.383301 L 757.026611 178.795898 C 761.188721 175.650879 764.346313 170.939575 767.007568 166.12207 C 769.679077 161.261597 771.859253 156.08667 773.77002 150.821655 C 777.518311 140.269653 780.39917 129.290039 781.8125 118.194214 C 782.13501 115.43457 782.367432 112.612915 782.083374 109.98999 C 781.695435 107.222534 781.309082 104.445801 780.619507 101.76001 C 779.35376 96.361206 777.07959 91.24707 773.455811 87.094238 C 769.892822 82.895386 765.335449 79.550781 760.702515 76.38208 C 756.055054 73.23291 751.180908 70.443726 746.09375 68.06543 C 725.707886 58.533325 702.714111 55.192505 680.275391 56.509155 C 657.824219 57.877563 635.418335 63.949951 616.069946 75.584595 Z M 615.507446 74.666626 C 634.974121 62.803711 657.5271 56.548706 680.182007 55.030029 C 702.82666 53.56958 726.092896 56.785889 746.890015 66.354126 C 752.075073 68.73999 757.071655 71.560059 761.81665 74.734131 C 766.519531 77.915405 771.22876 81.302979 775.044678 85.736206 C 778.925781 90.121216 781.40918 95.637939 782.74707 101.234131 C 783.481689 104.032959 783.893677 106.874146 784.307983 109.707031 C 784.63916 112.722534 784.401733 115.585815 784.135742 118.446289 C 782.877441 129.84375 780.157959 140.952881 776.52002 151.789551 C 774.660889 157.19458 772.525757 162.52832 769.82959 167.641235 C 767.11084 172.71167 763.96875 177.76416 759.12085 181.593262 L 757.922119 178.454224 C 780.205811 176.407104 802.936646 177.505371 824.796997 183.17041 C 846.472046 188.779175 867.872437 199.623291 882.29541 217.869995 C 889.373413 226.920776 894.720459 237.512939 897.094238 248.94165 C 899.510864 260.339966 898.973267 272.272461 895.988647 283.474121 C 889.999146 305.976196 874.746704 325.354614 855.218384 337.737915 L 851.887451 330.456177 C 865.091309 326.275879 879.076294 324.41333 893.01709 325.372559 C 906.918701 326.331665 920.88916 330.317017 932.905762 337.958374 C 945.016235 345.664551 954.455444 357.123291 959.998657 370.300415 C 965.540039 383.408325 967.001709 398.822876 962.078003 412.78418 L 956.760742 406.637939 C 977.159058 402.563354 997.63623 398.827881 1018.234619 395.890869 C 1038.819092 392.867432 1059.480347 390.382935 1080.18335 388.349976 C 1090.541138 387.349976 1100.891235 386.473389 1111.284668 385.704956 C 1121.699097 384.97583 1132.532104 384.50293 1143.465454 386.554565 C 1148.910889 387.651733 1154.322876 389.327881 1159.400391 392.046265 C 1164.583374 394.83374 1169.01001 398.722534 1172.555786 403.29541 C 1176.083008 407.876221 1178.758789 413.224121 1179.927612 419.123779 C 1181.132446 424.97998 1180.51123 431.524536 1177.697144 437.088379 L 1172.307495 431.001221 C 1186.644531 426.08374 1201.374268 421.806641 1216.608887 419.513794 C 1231.794678 417.223755 1247.61499 417.024658 1262.864502 420.579956 C 1278.21875 424.179199 1292.405029 432.089111 1303.466309 443.282104 C 1314.482422 454.368774 1322.263672 469.621338 1322.275391 485.76416 L 1317.702881 482.891235 C 1330.858398 476.894531 1345.088379 473.368286 1359.472412 472.51416 C 1366.672852 472.11792 1373.874023 472.303345 1381.057129 473.253784 C 1388.262451 474.262451 1395.603271 476.262085 1401.939697 480.734619 C 1408.318359 485.149536 1412.617188 493.13501 1411.67041 501.222534 C 1411.222412 505.247559 1409.494141 508.957153 1407.226318 512.034668 C 1404.92627 515.102051 1402.162842 517.68042 1399.189941 519.854614 C 1393.23877 524.226196 1386.581543 527.257446 1379.738281 529.516235 C 1372.871338 531.87207 1365.652344 532.773804 1358.778809 533.861694 C 1303.090088 542.369995 1246.570801 545.314941 1190.328613 542.638306 L 1179.660034 542.130371 L 1189.9646 539.358276 C 1192.668457 538.631226 1195.602051 538.552124 1198.363037 539.214966 C 1201.130371 539.877075 1203.63501 541.297485 1205.759277 543.04834 C 1209.960449 546.649658 1212.755859 551.497925 1214.296631 556.625854 C 1215.812988 561.764648 1216.152588 567.323242 1214.79248 572.62915 C 1213.428467 578.0354 1209.97998 582.487549 1206.241211 586.175903 C 1198.48291 593.653687 1188.26123 597.447876 1178.275757 599.897461 C 1168.164185 602.318726 1157.962036 603.38501 1147.799194 604.538696 C 1107.054077 608.932129 1065.80249 608.192871 1025.162109 602.841675 L 1026.371582 598.780396 C 1030.683716 600.756226 1033.302979 605.217163 1033.932129 609.48584 C 1034.63916 613.81543 1033.821167 618.200439 1031.861572 622.084595 C 1027.428833 629.932495 1019.24585 633.51001 1011.78833 635.75 C 996.618408 639.720459 981.54126 642.471191 966.236572 645.008667 C 935.644653 649.619141 904.62793 651.41333 873.68457 650.497925 C 842.73584 649.628784 811.85376 645.91748 781.564575 639.357544 C 751.26709 632.856201 721.526733 623.662109 692.845825 611.81543 L 697.628784 610.586182 C 688.114136 622.802124 675.24707 632.165039 661.309937 638.356689 C 647.349609 644.621338 632.492065 648.114624 617.667114 650.26416 C 602.810425 652.37207 587.897949 653.13916 573.081299 653.408325 C 558.26001 653.647461 543.553345 653.594604 528.727051 653.226318 C 499.158325 652.375 469.25 650.0625 440.118286 642.420776 C 425.57666 638.635498 411.311279 633.338745 397.862915 626.260498 C 384.427979 619.162964 371.975464 610.022949 361.204224 599.169556 L 368.104614 599.766724 C 350.902954 612.156738 330.95874 620.431641 310.32959 624.589111 C 289.678345 628.759521 268.309204 628.938354 247.581665 625.379517 C 237.210327 623.589233 227.133301 621.044189 217.123779 617.570801 C 207.169556 614.074585 197.355835 609.523804 188.524658 603.00415 C 184.178711 599.755005 179.898315 596.027466 176.357544 591.494141 C 172.872437 587.017456 170.063721 582.101196 168.001221 576.8479 C 167.489136 575.532959 167.008789 574.202881 166.599121 572.84375 C 166.134155 571.421265 165.79126 569.731689 165.565796 568.414551 C 165.102051 565.631226 164.81958 562.929932 164.660034 560.19458 C 164.383789 554.730469 164.497437 549.206177 165.785889 543.420898 L 173.946289 549.669189 C 152.607056 560.955444 127.973328 565.538696 104.034546 562.836304 C 101.157471 562.602539 97.662903 561.886719 94.657104 561.052856 C 91.614197 560.095459 88.624573 559.019165 85.812073 557.627075 C 80.148315 554.918701 74.884155 551.484985 70.207092 547.249634 C 65.568359 543.002075 61.300842 538.099121 58.416687 532.057861 C 55.43457 526.074585 54.174988 518.922485 55.04248 512.29126 C 56.706665 498.948364 64.607117 487.379639 75.260864 480.162109 C 85.86377 472.948364 98.209595 469.77417 110.14209 468.54541 C 134.032898 466.234131 158.29248 470.439941 180.052856 480.352051 L 172.473755 486.111206 C 171.06665 477.293335 171.948364 467.978394 175.10498 459.61377 C 178.237915 451.224121 183.348755 443.8479 189.368408 437.662476 C 201.532959 425.32666 216.941284 417.091675 233.37915 412.799194 C 249.868774 408.757935 266.781616 408.587524 283.140015 410.366211 C 299.534546 412.134521 315.465454 415.707031 331.185791 419.32251 L 325.782471 423.567871 C 326.096313 406.565918 333.824585 390.568726 344.790039 378.48584 C 355.78418 366.286255 369.789185 357.179199 385.063354 351.657104 C 400.277832 346.186646 416.300049 343.887573 432.117554 343.177979 C 447.971313 342.464966 463.717896 343.276245 479.345459 344.11792 L 477.444214 349.066284 C 468.382935 341.486694 461.24707 331.769531 456.41333 321.125366 C 451.556641 310.471313 448.907471 298.933716 448.212891 287.354126 C 446.862915 264.213379 453.098755 240.592896 466.545044 221.704956 C 479.95166 202.820068 499.284546 188.884155 520.307861 179.976685 C 541.422485 171.074951 564.440063 167.0271 587.269165 167.59375 L 586.585815 169.150391 C 579.936646 162.219116 576.067139 153.001709 574.834595 143.626709 C 573.588745 134.221191 574.783813 124.538696 578.207886 115.715454 C 581.637085 106.894165 587.053345 98.961304 593.519165 92.147949 C 599.997559 85.319214 607.50293 79.542969 615.507446 74.666626 Z"/>
        <path id="path83" fill="#ffffff" stroke="none" d="M 340.422485 393.685059 C 335.227905 401.513306 333.946289 410.612549 335.265869 419.101685 C 335.979614 423.343384 337.152954 427.484619 338.992065 431.284546 C 340.732544 435.092041 343.061646 438.579956 345.9021 441.815796 C 351.433716 448.300781 358.325806 453.744995 365.862549 458.580444 C 373.357544 463.477905 381.693726 467.510864 390.185791 471.056274 C 407.226685 478.064941 425.260376 482.89502 443.63501 485.99707 C 462.001709 489.277954 480.717896 490.806641 499.487427 491.647949 L 499.489624 492.724121 C 480.678711 493.60083 461.763794 493.214111 442.887939 491.32666 C 424.047119 489.243286 405.27124 485.378296 387.133789 479.107422 C 378.07373 475.970825 369.131592 472.418335 360.435059 467.749634 C 351.807861 463.070801 343.609619 456.766602 337.451172 448.480835 C 334.445801 444.367065 331.821655 439.745361 330.161255 434.783325 C 328.557007 429.842896 327.619629 424.716309 327.710815 419.58252 C 327.654541 409.421631 331.817139 398.880859 339.643311 392.942139 L 340.422485 393.685059 Z"/>
        <path id="path84" fill="#ffffff" stroke="none" d="M 174.174561 578.170044 C 173.459595 572.32251 172.151245 566.930054 171.049194 561.2146 C 169.91626 555.533325 169.03125 549.480835 169.532471 542.984985 C 170.124634 536.518311 172.283325 530.212524 175.68335 524.839111 C 179.065796 519.442139 183.244629 514.743774 187.824585 510.640015 C 196.992432 502.356689 208.162964 496.9646 219.47583 493.670898 C 230.894531 490.483398 242.51001 489.069214 254.067505 488.452026 L 254.202026 489.52002 C 242.90332 491.829224 231.644165 494.375854 221.233765 498.75708 C 210.760376 502.902954 201.157471 508.813354 193.849976 516.790405 C 190.224976 520.78125 187.142456 525.205811 185.026245 529.962036 C 182.793701 534.659546 181.227539 539.470459 180.199219 544.424194 C 179.128296 549.385376 179.019653 554.929565 178.604614 560.739624 C 178.224121 566.515381 177.624634 572.726196 175.239624 578.325806 L 174.174561 578.170044 Z"/>
        <path id="path85" fill="#ffffff" stroke="none" d="M 678.457886 216.280396 C 706.973755 210.819214 738.648315 221.471191 759.167969 243.653687 C 769.47998 254.622925 777.192017 268.023315 781.587402 282.487061 C 783.796265 289.726685 785.247925 297.16333 785.590454 304.820801 C 785.990356 312.438721 785.236694 320.428345 782.79541 327.845825 C 778.006226 342.737061 768.228394 355.185791 756.519531 364.529175 C 753.609985 366.92627 750.456543 368.970825 747.287476 370.92749 C 744.206543 373.03833 740.781616 374.59668 737.483276 376.341309 C 730.658325 379.362549 723.606201 382.017578 716.26709 383.347046 C 701.652466 386.337891 686.72583 385.835449 672.394165 383.837891 C 657.996704 381.894531 644.000366 378.597534 630.061279 375.427002 L 632.115845 374.907959 C 618.99585 385.54126 601.874634 390.033691 585.532104 388.93335 C 569.180054 387.869629 553.040405 381.145874 541.821289 369.262939 L 542.588379 368.508301 C 554.043335 379.722046 569.954956 385.562012 585.671631 385.970459 C 601.394165 386.420776 617.364136 381.419556 628.98999 371.191284 L 629.832031 370.450439 L 631.045776 370.671631 C 645.129517 373.237915 659.109985 376.1875 673.144165 377.635498 C 687.137573 379.174194 701.276245 379.170898 714.662476 376.012939 C 721.39917 374.598267 727.756592 371.95459 733.90918 369.030884 C 736.877075 367.32959 739.957031 365.84668 742.727173 363.810425 C 745.593384 361.929199 748.39917 359.992432 750.9375 357.736328 C 761.249146 348.967163 769.415405 337.525757 772.845459 324.888306 C 774.563354 318.599976 775.132813 312.118286 774.630493 305.465454 C 774.385864 302.155762 773.950806 298.80957 773.266235 295.50708 C 772.731689 292.18042 771.900024 288.905396 771.001343 285.65332 C 767.133301 272.735352 760.745483 260.455811 751.940063 250.112549 C 734.554199 229.312988 707.119995 216.621704 678.574585 217.350464 L 678.457886 216.280396 Z"/>
        <path id="path86" fill="#ffffff" stroke="none" d="M 1168.676636 408.766724 C 1173.307861 411.043335 1176.37207 416.202148 1177.215088 421.502075 C 1178.05835 426.85376 1177.132202 432.430786 1174.655762 437.45874 C 1172.031982 442.626587 1167.914185 446.412964 1163.49292 449.505005 C 1158.997925 452.493408 1154.135376 454.57666 1149.339478 456.274658 C 1130.257568 462.38916 1110.97583 464.537476 1091.526978 466.625854 C 1072.124268 468.560913 1052.629639 469.311646 1033.206299 468.70752 C 1013.7854 467.996338 994.442871 466.074585 975.379517 462.748291 L 975.520874 461.681641 C 994.755371 463.295776 1014.012939 464.063721 1033.212891 463.325806 C 1052.405762 462.853271 1071.530762 461.04126 1090.42749 458.085815 C 1109.256714 455.1604 1128.03833 450.200806 1146.166748 445.98999 C 1154.893311 443.727539 1163.232056 440.077515 1168.13623 433.61084 C 1172.731689 427.083374 1174.715088 416.655396 1168.047485 409.640381 L 1168.676636 408.766724 Z"/>
        <path id="path87" fill="#ffffff" stroke="none" d="M 718.755371 617.890381 C 700.087891 615.75 682.803833 603.885864 672.044189 588.042114 C 660.998291 572.301636 655.020386 552.812866 655.918701 533.121704 C 656.477539 523.291626 659.209229 513.048706 664.817139 504.401611 C 670.45459 495.84375 678.13208 489.210449 686.186279 483.900879 C 694.341309 478.626709 702.897461 474.570435 711.640381 470.98999 C 720.38916 467.414551 729.387085 464.498779 738.536255 462.248779 C 775.132446 453.37793 814.280029 455.253296 849.241211 468.896729 C 866.58667 475.884521 882.885864 486.301636 894.980469 500.712524 C 907.05249 514.955444 914.897095 533.08667 915.215088 551.729614 L 914.13916 551.765015 C 913.10498 533.446289 904.741699 516.140015 892.550049 502.838379 C 880.349976 489.404175 864.29248 480.006714 847.324585 473.925415 C 813.186646 461.73291 775.351685 461.087524 740.70166 470.58252 C 723.50708 475.506714 706.568726 482.733398 692.154175 492.727905 C 684.95459 497.654175 678.676636 503.604614 674.198364 510.487061 C 669.652466 517.281616 667.294189 525.36084 666.656616 533.859619 C 665.174194 550.979126 669.562866 568.733765 678.401733 583.931641 C 687.188354 599.115845 701.255371 611.78125 718.95874 616.83374 L 718.755371 617.890381 Z"/>
        <path id="path88" fill="#ffffff" stroke="none" d="M 184.789185 531.383301 C 185.205444 544.062134 191.220337 556.325073 200.035889 565.787109 C 208.831299 575.39917 220.640381 581.987061 233.184937 586.015015 C 245.772461 590.066284 259.109985 591.73999 272.422485 592.092041 C 285.751221 592.448364 299.138794 591.38916 312.29541 588.95166 C 299.228394 591.828735 285.837036 593.346313 272.409668 593.4375 C 259.002441 593.529175 245.453735 592.30835 232.400757 588.588745 C 219.417114 584.897949 206.814209 578.472534 197.125854 568.58374 C 187.462524 558.873779 180.380371 545.882935 179.414551 531.65625 L 184.789185 531.383301 Z"/>
        <path id="path89" fill="#ffffff" stroke="none" d="M 81.36377 488.117065 C 78.847473 496.231689 81.387939 505.544922 86.847046 512.587891 C 92.19458 519.850464 100.374573 524.685425 109.358765 526.624512 C 118.3479 528.628784 127.855408 528.13916 137.022095 526.318726 C 141.609985 525.400879 146.187927 524.229126 150.606262 522.674561 C 154.962097 521.095825 159.325439 518.799194 161.982544 514.81958 C 159.522095 518.927124 155.186646 521.498413 150.85083 523.30127 C 146.449585 525.088257 141.922485 526.47876 137.313782 527.63208 C 128.119568 529.910889 118.40918 530.917969 108.831665 529.262939 C 99.317078 527.703369 89.956665 522.848755 83.692078 515.105835 C 80.535034 511.28833 77.95874 506.875854 76.547913 501.978271 C 75.146667 497.097534 74.905823 491.747925 76.182068 486.663696 L 81.36377 488.117065 Z"/>
        <path id="path90" fill="#ffffff" stroke="none" d="M 347.178711 386.42041 C 345.259155 398.10498 347.529541 410.277466 353.348389 420.710449 C 359.121704 431.188354 367.851685 439.993408 377.74292 447.005371 C 397.595825 461.371704 422.2229 467.544556 446.658325 469.547852 C 458.932129 470.599121 471.311279 470.725464 483.660767 470.508789 C 495.94873 470.224243 508.41626 469.11792 519.834229 464.509521 C 531.078369 459.95752 541.529175 451.760376 546.11377 440.217896 C 548.341187 434.509155 548.945435 428.155029 547.827515 422.098755 C 546.726318 416.05957 543.736206 410.24585 538.947144 406.262939 C 543.807129 410.158325 546.932129 415.952515 548.152954 422.035034 C 549.390869 428.133789 548.9021 434.585815 546.73291 440.454956 C 542.265015 452.315796 531.74292 460.881714 520.343262 465.733765 C 508.758301 470.650879 496.09375 471.987427 483.724609 472.49585 C 471.317505 472.93457 458.888306 473.032104 446.456299 472.191284 C 434.03833 471.373291 421.608398 469.55835 409.547119 466.106201 C 397.501221 462.651245 385.865356 457.425415 375.464111 450.279175 C 365.067505 443.189575 355.694214 434.15918 349.262085 423.00293 C 342.780029 411.919556 339.970825 398.487061 341.855469 385.630371 L 347.178711 386.42041 Z"/>
        <path id="path91" fill="#ffffff" stroke="none" d="M 722.271729 472.209229 C 714.595825 475.878784 707.871216 481.503784 702.596313 488.285034 C 697.36499 495.114136 693.669189 503.119629 691.618286 511.49585 C 689.542969 519.881226 689.508789 528.730347 691.358398 537.116211 C 693.178711 545.517944 697.428711 553.34375 702.648682 560.32251 C 707.955078 567.290039 714.314575 573.495361 721.16626 579.115479 C 727.99585 584.780029 735.269531 589.918823 742.869507 594.529541 C 758.068726 603.767578 774.506592 610.950073 791.494995 616.362061 C 825.545898 627.259521 861.602173 630.702515 897.355347 630.831665 C 915.259155 630.839966 933.202881 630.294189 951.059204 628.960449 C 959.969971 628.188354 968.868774 626.852539 977.432495 624.224609 C 981.679688 622.862549 985.9729 621.39209 989.626709 618.778687 C 993.246216 616.325806 996.464478 612.384155 996.164551 607.756714 C 996.527466 612.380859 993.337891 616.404175 989.724609 618.915771 C 986.077515 621.593384 981.774658 623.126709 977.533691 624.54541 C 968.971191 627.290894 960.048828 628.744141 951.122192 629.630005 C 933.23584 631.191284 915.310791 631.960449 897.358276 632.177124 C 861.526733 632.492554 825.244995 629.509155 790.695068 618.930786 C 773.461304 613.677124 756.714111 606.61499 741.138306 597.41333 C 733.350342 592.820435 725.872559 587.677856 718.827148 581.982056 C 711.75708 576.326294 705.10083 570.01416 699.444214 562.776245 C 693.87207 555.511719 689.223389 547.272949 687.103271 538.121704 C 684.976196 529.048706 684.915405 519.492554 687.029541 510.438721 C 689.122925 501.390015 692.98999 492.723755 698.574219 485.239136 C 704.202026 477.805786 711.487915 471.522095 719.963257 467.3479 L 722.271729 472.209229 Z"/>
        <path id="path92" fill="#ffffff" stroke="none" d="M 743.16748 232.87085 C 757.422119 247.173706 764.356689 267.612549 763.274658 287.382935 C 762.955444 292.338379 762.171631 297.253296 760.932129 302.062134 C 759.58374 306.847046 757.760864 311.4729 755.533691 315.89502 C 753.2146 320.27002 750.49585 324.4104 747.447388 328.290039 C 744.326294 332.112915 740.875366 335.644653 737.165039 338.878784 C 722.262573 351.745361 702.382568 358.719971 682.790039 357.616211 C 663.236694 356.698364 644.168335 348.84668 629.723389 335.784546 L 630.907959 335.816284 C 614.975464 348.352173 593.233398 352.869141 573.75708 347.811279 C 554.284912 342.737915 537.646606 328.238403 529.962891 309.803711 C 537.928345 328.119141 554.724976 342.2229 573.981689 346.920898 C 593.240356 351.614136 614.495361 346.790039 629.760376 334.38208 L 630.357056 333.897095 L 630.945801 334.413696 C 645.25415 346.9646 663.97998 354.303711 682.89502 354.895386 C 701.8479 355.663696 720.732056 348.664185 734.800781 336.1521 C 748.967896 323.805786 758.26001 305.887451 758.78418 287.170776 C 759.531616 268.58374 752.645874 249.563721 739.386597 236.700439 L 743.16748 232.87085 Z"/>
        <path id="path93" fill="#ffffff" stroke="none" d="M 850.012939 330.849609 C 860.60083 329.778687 871.402466 330.072144 881.897461 332.355835 C 892.35791 334.670044 902.512939 339.085449 910.860107 346.081665 C 919.111206 353.081665 925.405396 362.424194 928.353394 372.897949 C 931.387451 383.347046 930.118286 395.052124 924.815308 404.537476 C 919.5979 414.109985 911.023315 421.342896 901.53418 426.102539 C 892.025879 430.886597 881.287109 433.30957 870.694214 432.929932 C 849.487061 432.452026 828.762939 422.74292 815.00293 406.737915 L 816.392456 406.493774 C 809.544189 423.887451 793.502563 437.147461 775.289185 440.632446 C 757.070801 444.096191 737.424194 437.64502 724.862915 424.206177 C 737.623291 437.457031 757.257446 443.506714 775.128784 439.825439 C 792.999634 436.135864 808.490356 422.844604 814.856201 405.90332 L 815.334961 404.629639 L 816.246704 405.65918 C 829.910767 421.0896 850.269531 430.20459 870.733765 430.350464 C 880.974976 430.561646 891.131714 428.08374 900.145874 423.390015 C 909.119141 418.727905 917.071289 411.745361 921.7229 402.869141 C 926.448242 394.060425 927.432129 383.529541 924.523315 373.982544 C 921.683716 364.428345 915.71875 355.831299 908.012085 349.497925 C 900.270874 343.200806 890.729126 339.181641 880.874146 337.162964 C 870.972046 335.161621 860.697876 335.02417 850.605835 336.198364 L 850.012939 330.849609 Z"/>
        <path id="path94" fill="#ffffff" stroke="none" d="M 1158.90625 444.666626 C 1181.543335 433.217896 1207.858887 429.74707 1232.619141 434.411255 C 1238.803223 435.598267 1244.925537 437.196167 1250.814941 439.449219 C 1256.730957 441.59082 1262.500977 444.317017 1267.824219 447.85791 C 1273.134521 451.393799 1277.970947 455.834595 1281.54126 461.297119 C 1285.0625 466.734985 1287.341309 473.070435 1287.542969 479.657959 C 1287.807129 486.231201 1285.569092 492.916626 1281.540527 498.04248 C 1277.570801 503.27124 1272.123779 506.998779 1266.469971 509.8125 C 1255 515.432495 1242.452881 517.382446 1230.13501 518.75708 C 1205.326172 521.138794 1180.02124 517.861206 1156.731689 509.142944 L 1157.998413 508.445435 C 1156.435913 515.296265 1152.858765 521.574585 1148.084595 526.594604 C 1143.369507 531.696289 1137.626587 535.69458 1131.580444 538.945435 C 1125.522949 542.229614 1119.024658 544.560791 1112.447998 546.44751 C 1105.876221 548.4021 1099.095825 549.56958 1092.297485 550.29834 C 1078.677856 551.714233 1064.851196 550.720459 1051.559937 547.584595 C 1044.904907 546.02417 1038.436646 543.776611 1032.13501 541.167114 C 1025.869629 538.451294 1019.875488 535.162964 1014.142456 531.473389 C 1019.919189 535.096191 1025.94458 538.309937 1032.227905 540.946655 C 1038.547852 543.477539 1045.02124 545.64209 1051.668335 547.118774 C 1064.943848 550.087158 1078.700928 550.909668 1092.19458 549.347168 C 1098.929932 548.545044 1105.633789 547.310059 1112.114136 545.299194 C 1118.60498 543.354614 1124.991699 540.977051 1130.897095 537.68335 C 1136.796265 534.423706 1142.359497 530.442505 1146.852539 525.461304 C 1151.410767 520.554199 1154.7229 514.530396 1156.127075 508.04541 L 1156.358643 506.973755 L 1157.394531 507.3479 C 1180.50293 515.692017 1205.493896 518.617554 1229.850342 515.991333 C 1241.967041 514.505005 1254.266113 512.39624 1265.030762 506.938721 C 1270.355469 504.215454 1275.337402 500.671265 1278.805664 495.971191 C 1282.337158 491.344604 1284.187012 485.563354 1283.897461 479.787842 C 1283.65918 473.993408 1281.554199 468.293701 1278.313721 463.422485 C 1275.057861 458.561646 1270.56958 454.499146 1265.576172 451.264526 C 1260.568848 448.016235 1255.057617 445.477051 1249.341309 443.486694 C 1243.661133 441.386719 1237.759521 439.92334 1231.807129 438.852051 C 1207.97168 434.642944 1182.755859 438.309937 1161.369995 449.451294 L 1158.90625 444.666626 Z"/>
        <path id="path95" fill="#ffffff" stroke="none" d="M 672.081665 575.924561 C 660.612427 590.908691 644.792969 601.92749 627.77832 609.235474 C 610.697144 616.634155 592.263794 620.150391 573.94873 621.51123 C 555.574097 622.864136 537.221313 622.084229 518.980347 620.765015 C 500.756714 619.32251 482.355469 616.877441 464.946167 610.671631 C 447.70459 604.516235 431.061279 594.582886 420.252075 579.324951 C 414.937012 571.768799 411.29126 562.756714 411.104248 553.389648 C 410.827515 544.123779 413.726685 534.582031 419.988403 527.60083 C 426.271729 520.502075 435.645874 517.28125 444.662109 516.168701 C 453.79541 515.078735 462.963745 515.314941 472.081665 515.980347 C 481.15625 516.78125 490.361206 518.797119 498.246704 523.557129 C 506.02832 528.248779 512.559204 535.7146 514.462891 544.741211 C 512.445801 535.740356 505.85083 528.407471 498.07373 523.845459 C 490.19751 519.2229 481.05249 517.335815 472.025879 516.650879 C 462.962891 516.099121 453.779541 515.981201 444.799194 517.168335 C 435.909546 518.375 426.890747 521.650879 420.992554 528.496216 C 415.091187 535.235352 412.406616 544.44043 412.785034 553.335815 C 413.07251 562.299927 416.669189 570.912109 421.898804 578.158325 C 432.52417 592.787476 448.880859 602.321289 465.831177 608.130859 C 482.95166 614.000488 501.121704 616.202881 519.217041 617.409546 C 537.366699 618.5 555.597534 619.041748 573.627075 617.487915 C 591.620483 615.927856 609.506226 612.262451 625.894165 604.920044 C 642.236206 597.664551 657.174194 586.912964 667.785034 572.68457 L 672.081665 575.924561 Z"/>
        <path id="path96" fill="#ffffff" stroke="none" d="M 856.9729 328.591675 C 870.871704 325.711304 884.994141 323.435425 899.321167 323.422974 C 913.596191 323.393799 928.150757 326.19873 941.026611 332.918701 C 947.445068 336.27417 953.405396 340.61084 958.423706 345.950439 C 960.888794 348.658325 963.11084 351.576172 965.026733 354.739624 C 966.860107 357.93457 968.39624 361.294556 969.545532 364.792847 C 971.783325 371.802124 972.564209 379.287964 971.584961 386.641235 C 971.038818 390.305054 970.101318 393.922119 968.67334 397.373779 C 967.175781 400.794922 965.220825 404.016235 962.849487 406.928345 L 960.597046 403.885376 C 992.497437 390.047852 1026.736328 381.798706 1061.32251 378.919556 C 1078.642944 377.702026 1096.030396 377.692139 1113.31543 379.24707 C 1121.953369 380.095825 1130.604492 381.704102 1138.755371 384.81543 C 1146.869995 387.88501 1154.485474 392.884155 1159.4646 400.02124 C 1154.090332 393.186646 1146.425903 388.644165 1138.358276 385.903687 C 1130.243286 383.135376 1121.68335 381.956665 1113.137085 381.341675 C 1095.97583 380.203735 1078.708374 380.62085 1061.608398 382.228394 C 1044.507935 383.894165 1027.506226 386.672485 1010.876221 390.975464 C 994.212402 395.148315 977.979126 400.86499 962.13501 407.45752 L 954.560791 410.609131 L 959.882446 404.414185 C 968.736206 394.107544 970.290405 378.824219 966.154541 365.876221 C 962.117065 352.696655 951.795044 342.124146 939.668335 335.452881 C 927.437988 328.661255 913.349609 325.687134 899.285034 325.213257 C 885.161133 324.640015 871.01123 326.512939 856.9729 328.591675 Z"/>
        <path id="path97" fill="#ffffff" stroke="none" d="M 169.750854 575.342529 C 182.871216 588.01123 198.037476 598.452515 214.429199 606.241211 C 230.823364 614.013794 248.308716 619.440063 266.214111 622.12085 C 284.112061 624.850342 302.375 624.82959 320.241333 622.2854 C 338.10083 619.697021 355.563721 614.29834 371.593384 606.067139 L 372.89209 605.400391 L 373.882935 606.506714 C 390.484131 625.045898 412.63208 637.942505 436.308716 645.667847 C 460.06543 653.408691 485.114624 656.857056 510.157104 658.178345 C 522.689209 658.911255 535.26416 659.18335 547.841675 659.119995 C 560.411743 659.041626 572.977905 658.591675 585.464111 657.29248 C 597.927856 655.900391 610.343384 653.797852 622.377075 650.1875 C 634.36499 646.491699 645.932495 641.297852 656.480347 634.383301 C 646.224609 641.726196 634.731323 647.307861 622.746216 651.345825 C 610.719116 655.27832 598.267456 657.89209 585.712524 659.450439 C 573.148315 660.974609 560.505859 661.642578 547.880005 661.936646 C 535.258301 662.19873 522.616699 662.195801 509.980469 661.5979 C 484.743774 660.405396 459.384644 657.083374 435.11084 649.327148 C 410.882935 641.695068 388.017944 628.294189 371.029175 609.010864 L 373.317017 609.450073 C 356.84668 617.79126 338.964966 623.202881 320.733276 625.740845 C 302.493286 628.335449 283.887085 627.845459 265.782104 624.82251 C 247.686646 621.741211 229.995361 616.11499 213.686646 607.744629 C 197.385864 599.407471 182.341675 588.554565 169.750854 575.342529 Z"/>
        <path id="path98" fill="none" stroke="none" d="M 169.750854 575.342163 C 221.330444 627.240845 307.263306 640.98291 372.455444 607.758301 C 412.192505 653.037109 479.126221 660.693726 539.368774 660.594604 C 580.01709 660.527954 623.092529 657.568726 656.480347 634.383301"/>
    </g>
</svg>
