<?xml version="1.0" encoding="UTF-8"?>
<!-- Generated by Pixelmator Pro 3.5.3 -->
<svg width="1003" height="478" viewBox="0 0 1003 478" xmlns="http://www.w3.org/2000/svg">
    <g id="Group">
        <path id="Path" fill="#ffffff" stroke="none" d="M 99.527924 229.352539 C 100.909149 226.512085 101.760834 223.937134 103.088745 221.527954 L 108.272095 213.984131 L 114.272919 207.046631 L 121.006683 200.799561 C 130.421234 192.939941 141.400848 186.970459 153.09082 183.114624 C 164.784576 179.27002 177.230408 177.522949 189.632507 178.26001 C 202.022919 178.993286 214.355408 182.412964 225.332092 188.506226 L 221.342072 189.69043 C 234.724579 163.092896 255.272095 140.27417 279.867554 123.430054 C 304.432861 106.505371 333.406189 95.84375 363.282471 93.077881 C 393.190002 90.35376 423.605835 95.777466 451.034973 107.803345 C 478.51709 119.746216 503.064148 138.67627 521.161255 162.71875 L 514.37085 162.03125 C 531.105835 147.471313 551.235413 137.080444 572.542114 131.39624 C 593.87793 125.799194 616.467041 125.009155 638.056274 129.412109 C 681.272095 138.273315 719.250854 167.72876 738.577515 206.861694 L 735.667053 205.725464 C 764.917908 195.284546 798.524963 197.76709 825.432129 213.137939 C 838.829956 220.594604 851.104614 229.580811 865.505859 233.891602 C 879.808716 238.463379 894.94873 239.867554 909.952515 242.924194 C 917.451294 244.460815 924.94458 246.484985 932.07959 249.549194 C 939.214966 252.592896 945.934082 256.687134 951.915039 261.664551 C 957.739624 266.662476 963.606689 272.5979 965.72583 280.844116 C 966.726685 284.9104 966.345825 289.446289 964.527466 293.295898 C 962.723267 297.152954 959.773315 300.272461 956.395874 302.61499 C 942.396606 310.831299 926.205811 312.546631 910.72168 310.755005 C 895.287476 308.780029 879.877563 302.90332 868.209595 291.719971 L 873.331665 289.633789 C 873.268799 304.989136 867.05127 320.169189 856.23584 331.227051 C 850.782104 336.798706 844.060425 341.027466 837.04834 343.97583 C 830.030884 346.996216 822.722534 348.891602 815.487061 350.420898 C 808.150024 351.925781 801.217529 353.12085 793.75 354.259521 C 786.302124 355.23877 778.762512 355.570068 771.240845 355.228394 C 756.202515 354.481689 741.248352 350.910889 727.517517 344.477539 L 732.732056 343.55249 C 719.986267 356.762085 704.550842 367.289185 687.79126 374.626709 C 671.028748 381.987061 653.009155 386.33374 634.780823 387.66626 C 616.55127 388.987915 598.06958 387.299561 580.369568 382.430786 C 562.682068 377.576294 545.769165 369.456665 531.111267 358.179199 L 537.907104 358.143311 C 522.208313 370.662109 504.132507 380.081665 485.054565 386.072876 C 465.955444 392.033691 445.915833 394.729126 425.975403 394.261719 C 406.034973 393.785034 386.155029 390.143799 367.378357 383.292969 C 348.611938 376.454956 330.947937 366.334595 315.800903 353.15918 L 322.62616 353.40625 C 308.171204 364.172119 291.125 371.20752 273.550842 374.222534 C 255.959991 377.265381 237.892914 376.625854 220.605835 372.778809 C 203.323334 368.910889 186.74292 361.815796 172.197906 351.640381 C 157.661255 341.499512 145.225433 328.11499 136.74292 312.430786 L 144.166656 308.341309 C 145.07959 309.994995 145.642487 312.592041 144.811676 314.895386 C 144.000397 317.217896 142.606262 318.339966 141.418762 319.36792 C 138.977081 321.186646 136.667084 322.08252 134.387909 322.905884 C 129.837494 324.467041 125.389587 325.318726 120.92749 326.031616 C 116.470001 326.72583 112.018738 327.152954 107.545837 327.422119 C 105.307922 327.552124 103.067078 327.640381 100.797089 327.655029 C 98.448334 327.630859 96.409576 327.695801 93.476654 327.218384 C 92.473755 327.016602 92.205841 326.871704 91.586243 326.701294 L 89.959595 326.205444 L 86.727509 325.111206 C 84.583344 324.335449 82.460419 323.474976 80.369598 322.515015 C 76.196259 320.584595 72.152496 318.219604 68.478333 315.282959 C 61.047913 309.490845 55.623749 300.949585 53.45874 291.844116 L 57.255829 294.130005 C 50.020416 295.755859 42.542908 297.371216 34.737503 297.469604 C 30.8479 297.525879 26.887482 297.165771 23.028351 296.195801 C 19.276245 295.180786 15.645416 294.067139 12.073334 292.329224 C 8.553772 290.627075 4.962067 288.456665 2.359589 284.853394 C 1.019577 283.115845 0.192902 280.868774 -0.115829 278.637939 C -0.429184 276.360352 -0.002914 274.161255 0.598343 272.133789 C 3.562073 264.205444 9.462906 258.963745 15.234161 254.168701 C 21.155014 249.462524 27.524155 245.462891 34.207504 242.049561 C 37.604187 240.380005 40.888763 238.76001 44.736664 237.671631 C 48.390839 236.768311 52.001678 236.0354 55.637085 235.293335 C 62.89917 233.833374 70.174988 232.481689 77.477081 231.252441 C 81.128754 230.642456 84.785828 230.060425 88.460419 229.5625 C 90.29834 229.315063 92.139587 229.085449 93.994995 228.915039 C 94.923767 228.831299 95.854584 228.76001 96.799591 228.732056 C 97.273346 228.719971 97.74707 228.714966 98.244171 228.75293 C 98.49292 228.770874 98.74292 228.796265 99.031647 228.870361 C 99.182922 228.919556 99.322906 228.937012 99.550812 229.11084 C 99.649567 229.17627 99.772919 229.305054 99.837494 229.543335 C 99.938751 229.854126 99.733765 229.275024 99.527924 229.352539 Z M 99.060425 230.32251 C 98.861267 230.289185 98.742493 229.592529 98.785431 229.797485 C 98.821259 229.91748 98.87207 229.961304 98.87207 229.961304 C 98.921661 229.990845 98.827087 229.943726 98.759155 229.935425 C 98.599579 229.900024 98.387085 229.87915 98.175415 229.873291 C 97.75 229.854126 97.298767 229.872925 96.850006 229.899536 C 95.949158 229.956299 95.039154 230.055786 94.130402 230.168701 C 92.312073 230.397095 90.493347 230.684937 88.677917 230.991699 C 85.045837 231.607544 81.42334 232.30835 77.806671 233.036621 C 70.575012 234.503296 63.362915 236.093384 56.183746 237.787109 C 52.603729 238.64209 48.994995 239.503296 45.503754 240.491211 C 42.265427 241.512451 38.906677 243.256226 35.744171 244.959595 C 29.378326 248.480469 23.299576 252.59375 17.801254 257.274536 C 12.434998 261.932983 7.147507 267.383301 5.148315 273.557129 C 4.300003 276.612915 4.570847 279.547974 6.461243 281.900024 C 8.249985 284.300415 11.18959 286.121704 14.315002 287.516724 C 17.424591 288.957886 20.919998 289.947876 24.312912 290.782959 C 27.646255 291.540405 31.111252 291.784546 34.607101 291.65332 C 41.614563 291.411621 48.666687 289.756226 55.786652 287.97583 L 58.773346 287.229126 L 59.584991 290.262451 C 61.684174 298.112061 66.287506 304.988281 72.752502 309.830444 C 79.077515 314.689209 87.30249 317.898315 94.925842 319.829102 C 96.308319 320.0271 98.6604 320.035767 100.669159 319.97583 C 102.763763 319.914185 104.883759 319.782959 107 319.61084 C 111.235016 319.269165 115.469604 318.72876 119.629578 318.029175 C 123.770844 317.316284 127.919983 316.428345 131.612488 315.092529 C 133.425842 314.439209 135.187073 313.604126 136.234161 312.780029 C 136.670837 312.408325 136.995422 311.99292 136.831238 312.180786 C 136.720398 312.388306 136.817078 312.715454 136.74292 312.43042 L 128.220001 279.829224 L 144.166656 308.34082 C 152.179169 322.667114 163.806671 334.853394 177.422913 344.071655 C 191.040405 353.317505 206.580414 359.715454 222.700836 363.083374 C 238.824158 366.436646 255.582916 366.769531 271.660614 363.751221 C 287.720581 360.757446 303.14856 354.438354 316.107544 344.680786 L 319.60614 342.046265 L 322.934204 344.928345 C 351.221436 369.421631 388.793335 382.2854 426.224976 383.02124 C 463.65625 383.780396 501.640442 372.552979 531.064575 349.500366 L 534.483337 346.82251 L 537.862061 349.4646 C 551.22998 359.919556 566.79126 367.567505 583.223755 372.217041 C 599.662903 376.880005 616.965454 378.610352 634.07959 377.503296 C 668.241272 375.314575 702.071289 361.55957 726.224609 337.192017 L 728.537903 334.858398 L 731.44043 336.26709 C 743.9646 342.345459 757.736267 345.853394 771.712891 346.742065 C 778.702881 347.154175 785.737061 346.943726 792.70752 346.126709 C 799.615845 345.157959 807.028748 344.005859 813.955383 342.746704 C 827.857544 340.162964 841.646729 335.905396 851.343262 326.341309 C 861.075806 316.827148 867.001587 303.28833 867.328369 289.557129 L 867.496216 282.50708 L 872.450806 287.470825 C 882.617065 297.655396 896.913818 303.540039 911.40332 305.638306 C 918.686646 306.674194 926.127441 306.750366 933.401611 305.723755 C 940.58374 304.698364 947.973389 302.532471 953.970459 299.022095 C 956.849121 297.105469 959.328369 294.538696 960.800903 291.520874 C 962.285889 288.520386 962.63208 285.065796 961.844604 281.757446 C 960.234131 275.048706 954.981689 269.34668 949.439209 264.59375 C 943.77002 259.816284 937.425049 255.889648 930.61792 252.930908 C 923.812866 249.953735 916.584961 247.939209 909.230347 246.381226 C 894.525024 243.27124 879.210815 241.755005 864.523682 236.96875 C 849.557861 232.61792 836.814209 223.462036 823.689209 216.331299 C 797.575806 201.782104 765.046692 199.448364 737.305847 210.119629 L 735.374573 210.862549 L 734.394592 208.982544 C 714.912476 171.617432 677.618774 144.283325 636.62085 136.82959 C 616.135803 133.087036 594.84668 134.39624 574.862915 139.977905 C 554.847473 145.463379 536.020386 155.372925 520.520813 169.053345 L 516.784607 172.35083 L 513.729187 168.365845 C 496.442932 145.82251 473.146667 128.083374 447.237061 116.371216 C 421.283752 104.722534 392.399597 99.32251 364.027527 101.66626 C 335.622375 103.947144 308.046509 114.162109 284.105164 129.75415 C 260.181671 145.407959 239.917084 166.951294 226.470001 192.337891 L 225.04834 195.021729 L 222.479156 193.522461 C 202.275818 181.734985 176.880005 180.029175 154.208344 186.70166 C 142.835419 190.04248 132.014984 195.462036 122.619995 202.795898 L 115.861237 208.642944 L 109.71875 215.15332 L 104.324158 222.320801 C 102.710419 225.1875 100.620819 227.887451 99.060425 230.32251 Z"/>
        <path id="path1" fill="#ffffff" stroke="none" d="M 498.810852 146.227539 C 504.888306 147.724976 510.510803 151.230835 515.125854 155.695801 C 519.80249 160.152954 523.450806 165.628784 526.188354 171.506714 C 531.722107 183.433716 531.567505 196.589966 530.840027 208.725464 C 530.036255 220.950439 527.861267 233.200806 523.414612 244.691284 C 518.84375 256.052979 511.78125 266.765015 501.842529 273.779175 L 501.159973 272.946655 C 509.773743 264.760376 515.309143 254.123291 518.317932 242.963379 C 521.509155 231.821655 522.51709 220.138794 522.231262 208.543701 C 521.99707 196.9021 519.430847 185.823364 516.182068 175.472046 C 512.725403 165.077515 507.180847 155.402466 498.303345 147.176636 L 498.810852 146.227539 Z"/>
        <path id="path2" fill="#ffffff" stroke="none" d="M 354.772888 368.694214 C 339.7229 367.180786 325.276306 359.968384 313.725281 349.652954 C 307.987305 344.425049 303.021179 338.290039 299.200073 331.505859 C 295.464081 324.670044 292.483917 317.479614 290.413696 310.079956 C 286.232178 295.290894 285.580383 279.672974 288.532379 264.83374 C 290.122955 257.447876 292.461304 250.21582 295.984955 243.54126 C 299.455841 236.869141 304.193054 230.7854 310.148499 226.286621 L 310.843079 227.109131 C 300.292694 237.267456 295.456879 251.631226 293.844086 265.697876 C 292.093048 279.844116 293.818756 294.279541 298.608887 307.438354 C 303.383057 320.727539 311.980408 331.790894 321.250977 341.958374 C 325.949707 347.05127 331.213989 351.656616 336.822083 355.97876 C 342.496521 360.218262 348.58606 364.015381 355.087891 367.665039 L 354.772888 368.694214 Z"/>
        <path id="path3" fill="#ffffff" stroke="none" d="M 154.090851 329.632446 C 148.892914 327.06958 144.807922 322.837036 141.634155 318.057129 C 138.50415 313.233276 136.375824 307.741211 135.343323 302.058716 C 134.303345 296.377075 134.371674 290.484985 135.611267 284.869141 C 136.901245 279.277954 139.251678 273.880371 143.23291 269.662109 C 143.502075 275.419189 143.5979 280.524536 144.047516 285.539185 C 144.445007 290.53125 145.075836 295.35376 145.930847 300.141724 C 146.794586 304.928711 147.895844 309.667969 149.273743 314.483765 C 150.605835 319.341675 152.315002 324.155029 154.090851 329.632446 Z"/>
        <path id="path4" fill="#ffffff" stroke="none" d="M 682.832092 371.178711 C 690.97998 364.403687 698.72168 357.774536 705.924194 350.682861 C 709.410828 347.109985 713.0979 343.41748 716.117065 339.806274 C 717.589966 337.997437 718.887512 336.222046 719.77832 334.404541 C 720.692932 332.64209 721.272949 330.775879 721.695862 328.532471 C 723.356689 319.153687 723.86499 309.024536 723.532898 299.0979 C 723.116272 289.088379 721.71167 279.049194 719.710449 268.640869 C 725.853333 277.30957 729.814575 287.517944 731.871704 298.097046 C 733.972107 308.752075 734.195862 319.59082 732.24707 330.640015 C 731.669617 333.477051 730.707886 336.625 729.130859 339.421631 C 727.565002 342.176636 725.685852 344.547485 723.705017 346.598755 C 719.72583 350.643799 715.712891 353.935059 711.311646 357.084595 C 702.647095 363.348755 693.06543 368.346313 682.832092 371.178711 Z"/>
        <path id="path5" fill="#ffffff" stroke="none" d="M 522.358337 209.046631 C 535.040405 197.673706 549.690002 188.669556 565.324585 182.22998 C 581.033752 175.94873 597.71167 172.282104 614.511658 171.23877 C 631.32373 170.32373 648.252502 172.258789 664.355408 176.929565 C 668.352539 178.185059 672.313354 179.57251 676.233337 181.034546 C 680.123352 182.586182 683.93335 184.346191 687.612122 186.348755 C 694.960022 190.337891 701.785828 195.45752 707.066284 201.944946 C 701.612122 195.602051 694.693787 190.706665 687.297913 186.943359 C 683.594604 185.054565 679.770386 183.411621 675.869995 181.976196 C 671.939148 180.630005 667.977112 179.360352 663.989197 178.224121 C 647.920837 174.029541 631.183777 172.581665 614.697937 173.922852 C 598.223755 175.392944 582.009583 179.429565 566.88916 185.950439 C 551.842896 192.628784 537.915405 201.737061 526.030823 212.97998 L 522.358337 209.046631 Z"/>
        <path id="path6" fill="#ffffff" stroke="none" d="M 299.712158 242.124634 C 297.040039 266.013306 304.862915 290.217529 318.748108 309.404175 C 332.684387 328.773315 352.478943 343.226685 373.875854 353.342896 C 395.387085 363.391724 418.614136 369.740845 442.20166 371.95874 C 465.782532 374.206665 489.707947 372.53418 512.628723 366.88623 L 513.876282 372.121216 C 490.239563 377.477905 465.75708 378.712891 441.776245 375.972534 C 417.784973 373.259644 394.320862 366.362915 372.700806 355.763794 C 351.189819 345.0979 331.383972 330.049194 317.648254 310.179199 C 303.959656 290.503296 296.586365 265.959595 299.712158 242.124634 Z"/>
        <path id="path7" fill="#ffffff" stroke="none" d="M 224.246674 193.804565 C 192.907928 190.788818 160.32251 200.290039 135.301239 219.962524 C 122.893341 229.760864 112.222076 242.471191 107.331665 257.708374 C 102.54126 272.72583 103.894592 290.45874 113.719177 303.440796 C 103.524994 290.737427 101.565826 272.821289 106.044159 257.317871 C 110.607086 241.595459 121.187103 228.250854 133.602509 217.875854 C 158.625427 197.056274 191.851685 186.217529 224.6875 188.441284 L 224.246674 193.804565 Z"/>
        <path id="path8" fill="#ffffff" stroke="none" d="M 729.05249 291.326294 C 733.24292 302.609619 742.83374 311.638794 753.925415 317.008789 C 765.135864 322.459961 777.852112 324.579956 790.49707 325.177124 C 803.130005 325.763306 816.047485 324.67749 827.858765 319.936279 C 839.53833 315.236206 850.15625 306.661255 855.490356 294.897949 C 850.576294 306.8479 840.150879 315.959961 828.383301 321.175415 C 816.493286 326.441284 803.301636 328.015381 790.419556 327.866699 C 777.54834 327.700806 764.354187 326.036621 752.225403 320.669556 C 740.218323 315.34375 729.334595 306.037964 724.04248 293.29126 L 729.05249 291.326294 Z"/>
        <path id="path9" fill="#ffffff" stroke="none" d="M 341.869141 98.55249 C 372.770386 96.30127 404.712891 102.65918 431.210815 119.099609 C 457.533752 135.450806 477.87207 162.084106 484.143311 192.60376 C 490.33667 222.9021 481.595825 256.387451 459.41748 278.12793 C 437.391663 299.64624 402.414978 307.539185 374.079163 295.255859 C 402.590027 307.118286 437.155029 298.631592 458.469971 277.172974 C 479.961243 255.49292 487.97168 222.50708 481.51123 193.162109 C 474.987488 163.57373 454.794617 137.974609 429.106262 122.543335 C 403.233765 107.006226 372.174561 101.296265 342.299194 103.916626 L 341.869141 98.55249 Z"/>
        <path id="path10" fill="#ffffff" stroke="none" d="M 965.772095 289.770386 C 963.257935 293.70459 959.419189 296.429199 955.467529 298.178711 C 951.48584 299.940796 947.327026 300.994995 943.189941 301.6604 C 934.910767 303.18042 926.4375 303.258789 918.150024 302.285034 C 901.566284 300.280396 885.669189 293.477051 873.040039 282.811646 C 886.095459 292.954224 902.085083 298.980469 918.354126 300.277466 C 926.484131 300.897461 934.69751 300.480469 942.605469 298.69043 C 950.390869 297.077026 958.562866 294.080444 962.325439 287.67041 L 965.772095 289.770386 Z"/>
        <path id="path11" fill="#ffffff" stroke="none" d="M 313.60675 354.447144 C 347.708191 379.921631 389.511658 393.985474 431.609192 396.06958 C 452.672485 397.130005 473.891235 395.375488 494.38623 390.473389 C 514.892944 385.631226 534.588318 377.5625 552.625854 366.748291 L 553.760437 366.068359 L 554.808777 366.84375 C 569.27002 377.538818 585.960815 385.146729 603.440002 389.529541 C 620.934204 393.900879 639.190857 395.177002 657.19458 393.58667 C 675.203735 391.95874 692.959167 387.269165 709.442505 379.704956 C 725.95752 372.206665 741.089172 361.560425 753.66626 348.327881 C 741.702942 362.141235 726.670837 373.237549 710.232483 381.367065 C 693.74707 389.463745 675.774597 394.478394 657.487915 396.50708 C 639.193298 398.554565 620.505859 397.429565 602.575012 393.012939 C 584.650452 388.636597 567.454163 380.938721 552.484192 370.010864 L 554.665833 370.106201 C 536.37207 381.378784 516.10376 389.262451 495.243774 394.123779 C 474.35791 398.939575 452.780823 400.728394 431.419983 399.32251 C 410.06543 397.878296 388.932922 393.409546 368.916687 385.960449 C 348.95813 378.40332 330.078918 367.905029 313.60675 354.447144 Z"/>
        <path id="path12" fill="#ffffff" stroke="none" d="M 304.044128 283.248291 C 303.355103 289.89502 302.733643 296.517456 302.596191 303.169556 C 302.339172 309.818359 302.568542 316.46582 302.857666 323.14209 C 301.706848 316.549927 301.416443 309.829956 301.556152 303.138794 C 301.81543 296.450806 302.507141 289.760376 304.044128 283.248291 Z"/>
        <path id="path13" fill="#ffffff" stroke="none" d="M 309.05481 294.15332 L 308.32312 312.624146 L 307.809387 331.102051 C 307.164795 324.952026 307.134827 318.763794 307.283264 312.589111 C 307.552002 306.418701 308.00116 300.246704 309.05481 294.15332 Z"/>
        <path id="path14" fill="#ffffff" stroke="none" d="M 316.622986 307.333374 C 316.547729 312.742554 316.326111 318.114624 316.38208 323.49707 C 316.317932 328.87915 316.532898 334.251221 316.595276 339.660767 C 315.670471 334.324585 315.396545 328.904541 315.341614 323.49585 C 315.40686 318.087524 315.692627 312.668701 316.622986 307.333374 Z"/>
        <path id="path15" fill="#ffffff" stroke="none" d="M 326.255737 319.796631 C 326.275452 324.864624 326.203735 329.89502 326.463013 334.925415 C 326.6026 339.960449 327.073669 344.96875 327.450439 350.022949 C 326.217773 345.098755 325.682983 340.030884 325.423401 334.966309 C 325.283569 329.897095 325.419189 324.802979 326.255737 319.796631 Z"/>
        <path id="path16" fill="#ffffff" stroke="none" d="M 335.542542 329.037109 C 335.615417 333.805054 335.587646 338.533325 335.881653 343.26001 C 336.05603 347.992554 336.552246 352.69458 336.946106 357.446655 C 335.69812 352.836304 335.137146 348.072876 334.842407 343.311279 C 334.667358 338.543335 334.758728 333.748779 335.542542 329.037109 Z"/>
        <path id="path17" fill="#ffffff" stroke="none" d="M 346.01001 337.124146 C 346.030762 347.185425 347.82312 357.017456 351.335266 366.44458 C 346.503235 357.613281 344.598389 347.0896 346.01001 337.124146 Z"/>
        <path id="path18" fill="#ffffff" stroke="none" d="M 356.821228 346.123291 C 357.075439 350.318359 357.351257 354.463379 358.060425 358.561646 C 358.652527 362.678711 359.672485 366.705444 360.7229 370.775024 C 358.855835 366.994629 357.749573 362.878784 357.032471 358.724609 C 356.432495 354.551636 356.216248 350.29541 356.821228 346.123291 Z"/>
        <path id="path19" fill="#ffffff" stroke="none" d="M 366.647095 351.877563 C 367.323303 355.796631 367.60498 359.733765 368.168335 363.625854 C 368.613342 367.537476 369.335022 371.381226 370.185425 375.259521 C 368.50708 371.63916 367.700806 367.68457 367.13623 363.759155 C 366.688354 359.807129 366.467102 355.8479 366.647095 351.877563 Z"/>
        <path id="path20" fill="#ffffff" stroke="none" d="M 378.839172 358.124634 C 379.300415 361.689575 379.73291 365.202148 380.54834 368.653809 C 381.247925 372.131226 382.322083 375.502563 383.385803 378.936279 C 381.525818 375.844238 380.358337 372.38501 379.531677 368.875854 C 378.820435 365.341675 378.44165 361.710815 378.839172 358.124634 Z"/>
        <path id="path21" fill="#ffffff" stroke="none" d="M 390.528748 361.592041 C 391.506226 368.062866 393.361694 374.143311 396.145813 380.06543 C 392.12207 374.895874 390.070007 368.124634 390.528748 361.592041 Z"/>
        <path id="path22" fill="#ffffff" stroke="none" d="M 402.543762 366.917114 C 403.607483 369.567139 404.484985 372.220825 405.592529 374.799561 C 406.5896 377.423706 407.804993 379.939941 408.87915 382.58667 C 407.056274 380.375 405.750854 377.80957 404.62793 375.189575 C 403.615417 372.525024 402.773743 369.772949 402.543762 366.917114 Z"/>
        <path id="path23" fill="#ffffff" stroke="none" d="M 414.542114 371.077881 C 415.585815 373.398804 416.502075 375.693359 417.693726 377.873291 C 418.780823 380.107544 420.12207 382.181641 421.405396 384.379517 C 419.449158 382.728394 417.98877 380.587036 416.768738 378.350342 C 415.653748 376.059937 414.757935 373.62793 414.542114 371.077881 Z"/>
        <path id="path24" fill="#ffffff" stroke="none" d="M 426.17334 371.980835 C 426.178772 373.277954 426.724182 374.407959 427.294189 375.506226 L 429.120422 378.825806 C 430.282898 381.074951 431.592102 383.229126 432.704163 385.557495 C 430.880432 383.722046 429.48999 381.54541 428.20752 379.325439 C 427.630005 378.175415 427.037476 377.047485 426.567505 375.835449 C 426.092896 374.639648 425.784973 373.237915 426.17334 371.980835 Z"/>
        <path id="path25" fill="#ffffff" stroke="none" d="M 435.296692 374.332153 C 436.400818 376.023315 437.286682 377.746704 438.358765 379.380371 C 439.32959 381.076294 440.46582 382.645386 441.469177 384.398804 C 439.81543 383.217896 438.570007 381.603271 437.47168 379.924194 C 436.474182 378.18335 435.602478 376.340454 435.296692 374.332153 Z"/>
        <path id="path26" fill="#ffffff" stroke="none" d="M 446.342102 375.410889 C 448.262085 378.152466 450.084167 380.561279 452.18335 383.167969 C 449.173767 381.688354 446.937927 378.708374 446.342102 375.410889 Z"/>
        <path id="path27" fill="#ffffff" stroke="none" d="M 456.620422 375.920776 C 457.493347 376.837036 458.092102 377.816284 458.821228 378.730469 C 459.454163 379.713379 460.19165 380.592529 460.7771 381.715454 C 459.59668 381.222046 458.737915 380.299194 457.97583 379.337036 C 457.309143 378.305786 456.712524 377.195801 456.620422 375.920776 Z"/>
        <path id="path28" fill="#ffffff" stroke="none" d="M 465.648315 375.450439 C 466.640442 376.427124 467.345398 377.512085 468.157898 378.540039 C 468.873352 379.637085 469.678345 380.650024 470.284607 381.904175 C 469.047913 381.243286 468.148315 380.207886 467.312927 379.146606 C 466.574585 378.015869 465.883362 376.831665 465.648315 375.450439 Z"/>
        <path id="path29" fill="#ffffff" stroke="none" d="M 300.358673 268.685425 C 298.899902 273.815796 297.523163 278.929199 296.623199 284.149536 C 295.606293 289.348755 295.074707 294.617065 294.607422 299.93042 C 294.20874 294.599609 294.689911 289.230469 295.599915 283.961304 C 296.626862 278.713379 298.091461 273.525879 300.358673 268.685425 Z"/>
        <path id="path30" fill="#ffffff" stroke="none" d="M 183.267487 180.853271 C 186.544983 181.394653 189.655426 182.671265 192.589569 184.219116 C 195.466675 185.869995 198.210846 187.814209 200.418335 190.297485 C 197.654572 188.478271 194.969574 186.650391 192.087921 185.130371 C 189.263336 183.50708 186.283752 182.212891 183.267487 180.853271 Z"/>
        <path id="path31" fill="#ffffff" stroke="none" d="M 166.775421 182.579956 C 171.230408 182.895386 175.592072 184.072144 179.774597 185.643311 C 183.913757 187.324585 187.918762 189.41626 191.404572 192.209106 C 187.456665 190.14917 183.523743 188.16333 179.395844 186.612549 C 175.310852 184.951294 171.074188 183.73999 166.775421 182.579956 Z"/>
        <path id="path32" fill="#ffffff" stroke="none" d="M 150.292908 186.324951 C 155.573761 186.315796 160.82959 187.257446 165.918335 188.6875 C 170.973328 190.230835 175.907074 192.27417 180.345428 195.136719 C 175.510834 193.044556 170.657898 191.100464 165.625427 189.685791 C 160.626251 188.157959 155.491669 187.170898 150.292908 186.324951 Z"/>
        <path id="path33" fill="#ffffff" stroke="none" d="M 131.114166 194.856689 C 136.080414 194.806641 141.027496 195.68042 145.815002 197.016724 C 150.569153 198.466309 155.210419 200.390381 159.367493 203.108765 C 154.813751 201.1604 150.25415 199.336304 145.523346 198.015381 C 140.825836 196.581299 136.001251 195.662109 131.114166 194.856689 Z"/>
        <path id="path34" fill="#ffffff" stroke="none" d="M 113.960419 208.906616 C 117.999573 209.106201 121.970001 209.919556 125.880005 210.911255 C 129.758331 212.018799 133.600403 213.30957 137.191254 215.170898 C 133.293335 214.118774 129.489166 212.900391 125.608765 211.915771 C 121.759979 210.814941 117.859589 209.953369 113.960419 208.906616 Z"/>
        <path id="path35" fill="#ffffff" stroke="none" d="M 99.519165 229.375854 C 106.345825 228.07251 113.749603 229.427979 119.664581 233.080811 C 113.126678 230.741211 106.462494 229.508789 99.519165 229.375854 Z"/>
        <path id="path36" fill="#ffffff" stroke="none" d="M 737.491699 307.780396 C 738.688354 317.88501 735.667908 328.57373 729.344604 336.54834 C 734.442078 327.758789 737.229553 317.939575 737.491699 307.780396 Z"/>
        <path id="path37" fill="#ffffff" stroke="none" d="M 742.985413 314.015381 C 743.024597 323.075806 739.174194 332.233276 732.658752 338.532959 C 738.057495 331.27417 741.570007 322.95166 742.985413 314.015381 Z"/>
        <path id="path38" fill="#ffffff" stroke="none" d="M 736.525024 340.790771 C 738.87793 336.984131 741.337524 333.294189 743.564575 329.450439 C 744.740845 327.567139 745.817932 325.626221 746.924988 323.699219 C 747.98999 321.747559 749.25 319.899536 749.799988 317.724609 C 749.630005 319.988281 748.572083 322.069092 747.634583 324.071289 C 746.667053 326.0896 745.572937 328.043823 744.45752 329.984131 C 742.110413 333.793335 739.56543 337.498291 736.525024 340.790771 Z"/>
        <path id="path39" fill="#ffffff" stroke="none" d="M 744.957947 343.45752 C 750.801636 337.155029 755.405823 330.027466 758.765442 322.117554 C 756.781677 330.487061 751.77417 338.2146 744.957947 343.45752 Z"/>
        <path id="path40" fill="#ffffff" stroke="none" d="M 755.27832 345.93335 C 762.530823 340.34375 768.138306 333.089233 771.737915 324.671265 C 769.532898 333.57666 763.342041 341.563354 755.27832 345.93335 Z"/>
        <path id="path41" fill="#ffffff" stroke="none" d="M 771.460815 347.338379 C 777.941284 341.767944 782.781677 334.740845 785.694153 326.708374 C 784.205811 335.142456 778.812073 342.949097 771.460815 347.338379 Z"/>
        <path id="path42" fill="#ffffff" stroke="none" d="M 788.233765 347.693359 C 793.945435 341.404541 798.455017 334.342529 801.774963 326.523315 C 799.830383 334.799561 794.926697 342.454224 788.233765 347.693359 Z"/>
        <path id="path43" fill="#ffffff" stroke="none" d="M 806.709595 345.387939 C 811.984985 339.110474 815.875366 332.007935 818.343384 324.189209 C 817.29834 332.332031 813.011658 340.130005 806.709595 345.387939 Z"/>
        <path id="path44" fill="#ffffff" stroke="none" d="M 825.635864 343.05249 C 831.893677 335.109985 836.013794 325.832153 837.72876 315.868286 C 837.477051 325.991699 832.980469 336.084106 825.635864 343.05249 Z"/>
        <path id="path45" fill="#ffffff" stroke="none" d="M 843.712891 335.505859 C 847.613281 328.064941 850.264648 320.228394 851.702148 311.952148 C 851.70459 320.35791 848.823364 328.83374 843.712891 335.505859 Z"/>
        <path id="path46" fill="#ffffff" stroke="none" d="M 949.839966 299.018799 C 950.355835 299.569214 950.477051 300.178345 950.628784 300.783325 C 950.660767 301.405884 950.724609 302.023315 950.387939 302.700806 C 949.868774 302.150879 949.75 301.54126 949.599609 300.936279 C 949.568359 300.313721 949.50708 299.695435 949.839966 299.018799 Z"/>
        <path id="path47" fill="#ffffff" stroke="none" d="M 945.981689 300.161255 C 946.496216 300.807861 946.610474 301.425049 946.753296 302.052124 C 946.777466 302.69458 946.827881 303.319092 946.493774 304.077515 C 945.988281 303.530396 945.868286 302.849609 945.72168 302.186646 C 945.693726 301.508301 945.637451 300.81958 945.981689 300.161255 Z"/>
        <path id="path48" fill="#ffffff" stroke="none" d="M 942.023804 300.616211 C 942.334961 301.477905 942.338379 302.243286 942.445801 303.025391 C 942.434937 303.814575 942.527466 304.574097 942.319092 305.467896 C 941.6875 304.786255 941.51709 303.92749 941.407104 303.088745 C 941.415405 302.242432 941.48291 301.369629 942.023804 300.616211 Z"/>
        <path id="path49" fill="#ffffff" stroke="none" d="M 936.755859 301.31543 C 937.147949 302.224976 937.21582 303.078735 937.384155 303.938721 C 937.434204 304.813721 937.580811 305.657104 937.421631 306.63623 C 936.747925 305.89502 936.524536 304.974976 936.351685 304.068359 C 936.297119 303.146606 936.289551 302.199951 936.755859 301.31543 Z"/>
        <path id="path50" fill="#ffffff" stroke="none" d="M 931.13623 302.452881 C 931.518677 304.130005 931.625366 305.344604 931.515869 307.062012 C 930.260864 305.869141 930.099609 303.835449 931.13623 302.452881 Z"/>
        <path id="path51" fill="#ffffff" stroke="none" d="M 924.046265 302.008301 C 924.44873 302.944214 924.510742 303.838745 924.658691 304.73877 C 924.687988 305.650879 924.801636 306.539551 924.58374 307.536255 C 923.955811 306.7229 923.773682 305.775391 923.623291 304.8396 C 923.592041 303.89209 923.590454 302.92749 924.046265 302.008301 Z"/>
        <path id="path52" fill="#ffffff" stroke="none" d="M 916.766235 301.766724 C 917.180908 302.686279 917.199219 303.556641 917.246704 304.435059 C 917.174194 305.311646 917.132446 306.181274 916.687134 307.087891 C 916.267944 306.221191 916.25293 305.317017 916.206299 304.419556 C 916.280396 303.52417 916.324951 302.62085 916.766235 301.766724 Z"/>
        <path id="path53" fill="#ffffff" stroke="none" d="M 909.904175 300.14502 C 910.101685 302.42749 910.151245 304.315063 910.05127 306.604126 C 908.754639 304.706665 908.70166 302.099976 909.904175 300.14502 Z"/>
        <path id="path54" fill="#ffffff" stroke="none" d="M 902.521729 298.777466 C 902.990479 299.956299 903.060791 301.148315 903.161621 302.339111 C 903.14209 303.534546 903.154541 304.728394 902.762085 305.935791 C 902.289551 304.757446 902.22168 303.56543 902.12207 302.374146 C 902.142456 301.179199 902.132935 299.984985 902.521729 298.777466 Z"/>
        <path id="path55" fill="#ffffff" stroke="none" d="M 894.088745 295.55249 C 894.289185 296.768311 894.23291 297.876709 894.324097 299.005371 C 894.297852 300.137939 894.418701 301.240479 894.283813 302.466309 C 893.575439 301.439575 893.376221 300.22583 893.28418 299.035034 C 893.310059 297.840454 893.442871 296.61792 894.088745 295.55249 Z"/>
        <path id="path56" fill="#ffffff" stroke="none" d="M 884.992065 290.912964 C 885.134155 293.05249 885.102905 294.782471 884.859985 296.913696 C 883.69043 295.10791 883.750488 292.665894 884.992065 290.912964 Z"/>
        <path id="path57" fill="#ffffff" stroke="none" d="M 309.966736 341.02417 C 304.75946 347.251221 297.71524 351.448364 290.324036 353.812134 C 282.895447 356.179199 275.122711 356.76001 267.531677 356.338379 C 275.130737 356.071289 282.721863 354.77002 289.602631 351.857544 C 296.449585 348.965454 302.587158 344.400024 306.655762 338.494629 L 309.966736 341.02417 Z"/>
        <path id="path58" fill="#ffffff" stroke="none" d="M 513.147522 160.839111 C 517.104187 178.380859 515.51001 196.866211 508.887512 213.115845 C 514.20459 196.392944 514.200867 178.255005 509.121643 161.91333 L 513.147522 160.839111 Z"/>
        <path id="path59" fill="#ffffff" stroke="none" d="M 687.187927 365.281616 C 696.859192 358.230835 703.731262 347.439575 707.24585 335.73291 C 710.788757 323.952515 711.107056 311.26416 709.412048 298.953735 C 711.785034 311.150024 712.220032 323.94751 709.25708 336.276245 C 706.300842 348.528809 699.831665 360.293701 689.740417 368.574951 L 687.187927 365.281616 Z"/>
        <path id="path60" fill="#ffffff" stroke="none" d="M 220.490417 187.832031 C 224.540009 190.44165 226.75415 194.674194 227.970428 198.686279 C 229.208344 202.77832 229.666656 206.87085 230.02124 210.952881 C 230.6521 219.137451 230.102905 227.36084 228.412079 235.291626 C 229.418335 227.244629 229.249176 219.104614 227.952911 211.20166 C 227.272491 207.262451 226.457916 203.296631 225.023346 199.726196 C 223.61084 196.159546 221.398346 192.988403 218.377075 191.422974 L 220.490417 187.832031 Z"/>
        <path id="path61" fill="#ffffff" stroke="none" d="M 395.200439 99.970825 C 396.99585 101.04126 398.428772 102.571289 399.725403 104.179565 C 400.92749 105.859619 402.018738 107.650024 402.564575 109.668701 L 395.200439 99.970825 Z"/>
        <path id="path62" fill="#ffffff" stroke="none" d="M 404.435852 100.431274 C 406.196228 101.645386 407.540405 103.333374 408.70166 105.105835 C 409.762085 106.939941 410.665833 108.899536 410.953735 111.019531 C 409.853333 109.200806 408.944153 107.372925 407.81543 105.651245 C 406.787476 103.867554 405.56665 102.22998 404.435852 100.431274 Z"/>
        <path id="path63" fill="#ffffff" stroke="none" d="M 416.495422 102.695801 C 418.672485 104.784546 420.359192 107.310425 421.837097 109.92749 C 423.210449 112.600464 424.394592 115.397949 424.937927 118.366699 C 423.577515 115.685425 422.375854 112.996216 420.921265 110.420776 C 419.571655 107.789185 417.989136 105.304565 416.495422 102.695801 Z"/>
        <path id="path64" fill="#ffffff" stroke="none" d="M 430.767517 107.348389 C 433.282104 110.253296 435.207092 113.617554 436.835388 117.092896 C 438.355408 120.617065 439.59668 124.289551 440.097107 128.099609 C 438.759155 124.51001 437.49292 120.949585 435.88623 117.519531 C 434.388306 114.04126 432.567505 110.729614 430.767517 107.348389 Z"/>
        <path id="path65" fill="#ffffff" stroke="none" d="M 446.486694 113.341309 C 452.152527 121.112915 455.081665 130.987915 454.552063 140.592896 C 453.628723 131.026245 450.924561 121.867554 446.486694 113.341309 Z"/>
        <path id="path66" fill="#ffffff" stroke="none" d="M 462.91333 121.256226 C 466.696228 126.795898 468.571655 133.450806 469.5354 140.044189 C 470.39502 146.690063 470.449158 153.382568 470.029602 160.02832 C 469.584595 153.381226 469.47168 146.731201 468.505005 140.1875 C 467.657898 133.637085 465.932068 127.202026 462.91333 121.256226 Z"/>
        <path id="path67" fill="#ffffff" stroke="none" d="M 481.056274 132.096191 C 485.469971 143.96875 486.914551 156.734985 487.38501 169.33374 C 487.493347 181.981201 486.693359 194.597046 485.303345 207.135864 C 485.797913 194.530396 486.820801 181.943726 486.345825 169.35791 C 486.240845 156.775879 484.606262 144.209961 481.056274 132.096191 Z"/>
        <path id="path68" fill="#ffffff" stroke="none" d="M 496.918335 146.11792 C 499.76416 162.719604 500.54126 179.640015 500.10498 196.481201 C 499.301636 213.30835 497.280029 230.126709 493.216675 246.472534 C 496.398315 229.952148 498.62915 213.247559 499.066223 196.442871 C 499.87085 179.6521 498.876221 162.827515 496.918335 146.11792 Z"/>
        <path id="path69" fill="#ffffff" stroke="none" d="M 496.918335 146.11792 C 501.722107 179.429199 500.46167 213.605835 493.216675 246.472534"/>
    </g>
</svg>
