<svg width="2492" height="691" viewBox="0 0 2492 691" fill="none" xmlns="http://www.w3.org/2000/svg">
<path d="M1295 0.5V98H103.5V198H304V691H198.5V293H0.5V0.5H1295Z" fill="#D9D9D9"/>
<path d="M398.5 691V198H501.5V595H599.5V198H700V595H798.5V198H900V691H398.5Z" fill="#D9D9D9"/>
<path d="M1595 98V0.5H2492V98H1595Z" fill="#D9D9D9"/>
<path d="M2193 691V198H2492V297H2292.5V691H2193Z" fill="#D9D9D9"/>
<path fill-rule="evenodd" clip-rule="evenodd" d="M997 690V200H1392.5V1H1496.5V690H997ZM1097.5 594V297H1395.5V594H1097.5ZM1197 395.5V494.5H1297.5V395.5H1197Z" fill="#D9D9D9"/>
<path fill-rule="evenodd" clip-rule="evenodd" d="M1595 691V198H2093.5V691H1595ZM1695 593V296H1993V593H1695ZM1794.5 394.5V493.5H1895V394.5H1794.5Z" fill="#D9D9D9"/>
</svg>
